<svg width="20" height="20" viewBox="0 0 20 20" fill="none" xmlns="http://www.w3.org/2000/svg">
<g clip-path="url(#clip0_594_2352)">
<path fill-rule="evenodd" clip-rule="evenodd" d="M4 16H0V12H4V16ZM3 13H1V15H3V13ZM5 2H15V1H5V2ZM5 8H15V7H5V8ZM4 4H0V0H4V4ZM3 1H1V3H3V1ZM4 10H0V6H4V10ZM3 7H1V9H3V7ZM7.086 12.5H5V13.5H6.933L7.086 12.5ZM10.8327 13.5714L11.0636 12.0827C11.2425 10.9044 11.4063 10.0475 12.6206 10.0475C12.8828 10.0502 13.1423 10.0994 13.3862 10.1926L13.6995 9.17507C13.4275 9.05308 13.1302 8.99338 12.8307 9.00058C10.9444 9.00058 10.1787 10.1779 9.94116 11.8347L9.66291 13.5714H8.13534L8 14.43H9.52662L8.7865 20H9.95631L10.6964 14.43H12.4038L12.5401 13.5714H10.8327ZM20 13.5714H18.5633L16.8285 15.5973L15.5773 13.5714H14.0327L15.8451 16.3017L12.4104 20H13.8774L16.5095 17.0346L18.3257 20H19.8836L17.4929 16.3017L20 13.5714Z" fill="black"/>
</g>
<defs>
<clipPath id="clip0_594_2352">
<rect width="20" height="20" fill="white"/>
</clipPath>
</defs>
</svg>
