<?xml version="1.0" encoding="UTF-8"?><svg id="icons" xmlns="http://www.w3.org/2000/svg" viewBox="0 0 20 20"><defs><style>.cls-1{fill:#231f20;}</style></defs><path class="cls-1" d="M20,4.79474v-.5896L12.5.90717l-.71881.3161-6.33453,2.78888c-.27142.11951-.44666.38812-.44666.68475v5.40088l.89209.90222h.10791v-5.76544l5.64709,2.48315.35291.15521v7.90723l-1-.43964v1.09167l1.5.66052,7.5-3.29816v-.6156l-5.56445-2.06757,5.56445-2.44653v-.58954l-2.13721-.93958-1.07391.62,1.39716.61432-5.18604,2.27795v-2.77515l7-3.07812ZM18.09766,13.53906l-5.09766,2.24109v-4.13037l5.09766,1.88928ZM12.5,7l-1.28864-.56659-3.82172-1.6803c-.1004-.04419-.16522-.14343-.16522-.25311s.06482-.20898.16522-.25311l4.02435-1.76941,1.086-.47748,5.68604,2.5-5.68604,2.5ZM5.47485,12l-.98883-1h-2.23602l-.97485,1H0v8h10v-8h-4.52515ZM9,19H1v-4h8v4ZM9,14H1v-1h.69727l.97461-1h1.39648l.98877,1h3.94287v1Z" style="fill:currentColor; stroke-width:0px;" /></svg>