<svg data-name="Layer 1" xmlns="http://www.w3.org/2000/svg" width="32" height="32"><path d="M17.31 10l.57 1.12v1.13l-1.13 1.13h-.56l.56 1.12v1.12l-1.13 1.13H7.75l-1.13-1.13V7.75l1.07.06L10 4.38V1h1.12l1.13 2.25v3.38H18a1 1 0 011 1v1.25L17.88 10zM2.12 16.75H5.5V6.63H1z" fill="#323232"/><path d="M29.88 22L31 23.12v1.26a1 1 0 01-1 1h-5.75v3.38L23.12 31H22v-3.38l-2.31-3.43-1.07.06v-7.87l1.13-1.13h7.87l1.13 1.13v1.12l-.56 1.12h.56l1.13 1.13v1.13L29.31 22zM13 25.37h4.5V15.25h-3.38z" fill="#fff" stroke="#fff" stroke-miterlimit="10" stroke-width="2"/><path d="M29.88 22L31 23.12v1.26a1 1 0 01-1 1h-5.75v3.38L23.12 31H22v-3.38l-2.31-3.43-1.07.06v-7.87l1.13-1.13h7.87l1.13 1.13v1.12l-.56 1.12h.56l1.13 1.13v1.13L29.31 22zM13 25.37h4.5V15.25h-3.38z" fill="#323232"/></svg>