<svg data-name="Layer 1" xmlns="http://www.w3.org/2000/svg" width="32" height="32"><path d="M1.61 17.25a1.11 1.11 0 01-1-.55 1.12 1.12 0 010-1.12L9 1.06a1.1 1.1 0 011.92 0l8.39 14.52a1.12 1.12 0 01-1 1.67z" fill="#323232"/><path d="M10 1a.6.6 0 01.53.31l8.39 14.52a.62.62 0 01-.53.92H1.61a.62.62 0 01-.53-.92L9.47 1.31A.6.6 0 0110 1m0-1a1.63 1.63 0 00-1.4.81L.22 15.33a1.62 1.62 0 001.39 2.42h16.78a1.62 1.62 0 001.39-2.42L11.4.81A1.63 1.63 0 0010 0z" fill="#fff"/><g><path d="M22 31.5a1.1 1.1 0 01-1-.56l-8.35-14.52a1.12 1.12 0 011-1.67h16.74a1.12 1.12 0 011 1.67L23 30.94a1.1 1.1 0 01-1 .56z" fill="#323232"/><path d="M30.39 15.25a.62.62 0 01.53.92l-8.39 14.52a.61.61 0 01-1.06 0l-8.39-14.52a.62.62 0 01.53-.92h16.78m0-1H13.61a1.62 1.62 0 00-1.39 2.42l8.38 14.52a1.61 1.61 0 002.8 0l8.38-14.52a1.62 1.62 0 00-1.39-2.42z" fill="#fff"/></g></svg>