<svg width="20" height="20" viewBox="0 0 20 20" fill="none" xmlns="http://www.w3.org/2000/svg">
    <path fill-rule="evenodd" clip-rule="evenodd"
        d="M17.5 5C18.8807 5 20 3.88071 20 2.5C20 1.11929 18.8807 0 17.5 0C16.2905 0 15.2816 0.85888 15.05 2H4.75C2.40279 2 0.5 3.90279 0.5 6.25C0.5 8.59721 2.40279 10.5 4.75 10.5H15.25C17.0449 10.5 18.5 11.9551 18.5 13.75C18.5 15.5449 17.0449 17 15.25 17H4.94999C4.71836 15.8589 3.70948 15 2.5 15C1.11929 15 0 16.1193 0 17.5C0 18.8807 1.11929 20 2.5 20C3.70948 20 4.71836 19.1411 4.94999 18H15.25C17.5972 18 19.5 16.0972 19.5 13.75C19.5 11.4028 17.5972 9.5 15.25 9.5H4.75C2.95507 9.5 1.5 8.04493 1.5 6.25C1.5 4.45507 2.95507 3 4.75 3H15.05C15.2816 4.14112 16.2905 5 17.5 5ZM17.5 4C18.3284 4 19 3.32843 19 2.5C19 1.67157 18.3284 1 17.5 1C16.6716 1 16 1.67157 16 2.5C16 3.32843 16.6716 4 17.5 4ZM4 17.5C4 18.3284 3.32843 19 2.5 19C1.67157 19 1 18.3284 1 17.5C1 16.6716 1.67157 16 2.5 16C3.32843 16 4 16.6716 4 17.5Z"
        fill="white" />
</svg>