<svg width="228" height="140" viewBox="0 0 228 140" fill="none" preserveAspectRatio="none" xmlns="http://www.w3.org/2000/svg">
<g clip-path="url(#clip0_1894_327)">
<rect width="228" height="140" opacity="0.1" fill="var(--theme-primary)"/>
<g clip-path="url(#clip1_1894_327)">
<path opacity="0.6" d="M78.7676 0C87.3724 0 94.3486 6.96454 94.3486 15.5557V24H88V19C88 12.3727 82.5422 7.00026 75.8096 7H7V50C7 56.6273 12.4578 61.9997 19.1904 62H43V70H15.5801C6.9754 69.9998 0 63.0353 0 54.4443V0H78.7676Z" fill="var(--theme-primary)"/>
<path d="M5.3761e-07 94.917C0.000236862 89.9922 3.98635 86 8.90332 86L40.0645 86V131.083C40.0642 136.008 36.0781 140 31.1611 140H0L5.3761e-07 94.917Z" fill="var(--theme-primary)"/>
<path opacity="0.21" d="M49 31H160C171.046 31 180 39.9543 180 51V110H69C57.9543 110 49 101.046 49 90V31Z" fill="var(--theme-primary)"/>
</g>
<path opacity="0.6" d="M212.643 71C221.124 71.0002 228 77.8658 228 86.334V140H150.358C141.877 140 135 133.135 135 124.667V116H141.585V120.887C141.585 127.514 146.908 132.887 153.475 132.887H220.585V89.8867C220.585 83.2594 215.262 77.8869 208.695 77.8867H189V71H212.643Z" fill="var(--theme-secondary)"/>
<path d="M228 45.083C228 50.0078 224.014 54 219.097 54L187.936 54L187.936 8.91699C187.936 3.99223 191.922 -4.88489e-07 196.839 0L228 3.09579e-06L228 45.083Z" fill="var(--theme-secondary)"/>
</g>
<defs>
<clipPath id="clip0_1894_327">
<rect width="228" height="140" opacity="0.1" fill="var(--theme-primary)"/>
</clipPath>
<clipPath id="clip1_1894_327">
<rect width="180" height="140" opacity="0.1" fill="var(--theme-primary)"/>
</clipPath>
</defs>
</svg>
