<svg width="16" height="16" viewBox="0 0 16 16" fill="none" xmlns="http://www.w3.org/2000/svg">
<path d="M14.4 4.80005C14.8243 4.80005 15.2313 4.96862 15.5314 5.26868C15.8314 5.56874 16 5.9757 16 6.40005V9.60005C16 10.0244 15.8314 10.4314 15.5314 10.7314C15.2313 11.0315 14.8243 11.2 14.4 11.2H1.6C1.17565 11.2 0.768687 11.0315 0.468629 10.7314C0.168571 10.4314 0 10.0244 0 9.60005V6.40005C0 5.9757 0.168571 5.56874 0.468629 5.26868C0.768687 4.96862 1.17565 4.80005 1.6 4.80005H14.4ZM14.4 5.20005H1.6C1.28174 5.20005 0.976516 5.32648 0.751472 5.55152C0.526428 5.77656 0.4 6.08179 0.4 6.40005V9.60005C0.4 9.91831 0.526428 10.2235 0.751472 10.4486C0.976516 10.6736 1.28174 10.8 1.6 10.8H14.4C14.7183 10.8 15.0235 10.6736 15.2485 10.4486C15.4736 10.2235 15.6 9.91831 15.6 9.60005V6.40005C15.6 6.08179 15.4736 5.77656 15.2485 5.55152C15.0235 5.32648 14.7183 5.20005 14.4 5.20005ZM3.152 6.11525C3.3504 6.11525 3.536 6.15045 3.7088 6.22085C3.8816 6.29125 4.0208 6.38565 4.1264 6.50405L3.7904 6.83045C3.71861 6.73379 3.62482 6.65563 3.5168 6.60245C3.39623 6.54199 3.26286 6.51153 3.128 6.51365C3.0512 6.51365 2.9736 6.52405 2.8952 6.54485C2.81836 6.56491 2.74593 6.59909 2.6816 6.64565C2.6176 6.69205 2.5656 6.74965 2.5256 6.81845C2.4856 6.88725 2.4656 6.96965 2.4656 7.06565C2.4656 7.15845 2.484 7.23605 2.5208 7.29845C2.5576 7.36085 2.6072 7.41365 2.6696 7.45685C2.732 7.50005 2.8056 7.53685 2.8904 7.56725L3.1616 7.66085C3.2768 7.69605 3.3936 7.73605 3.512 7.78085C3.6304 7.82565 3.7376 7.88485 3.8336 7.95845C3.9296 8.03205 4.008 8.12405 4.0688 8.23445C4.1296 8.34485 4.16 8.48485 4.16 8.65445C4.16 8.83045 4.1272 8.98325 4.0616 9.11285C3.99945 9.2382 3.91008 9.34808 3.8 9.43445C3.6912 9.51925 3.5656 9.58245 3.4232 9.62405C3.07279 9.72445 2.69862 9.70244 2.3624 9.56165C2.16808 9.48267 1.9971 9.35547 1.8656 9.19205L2.2352 8.88005C2.3152 8.99845 2.4224 9.09445 2.5568 9.16805C2.76345 9.28187 3.0067 9.30947 3.2336 9.24485C3.3136 9.22245 3.3864 9.18725 3.452 9.13925C3.5176 9.09125 3.5712 9.03125 3.6128 8.95925C3.6544 8.88725 3.6752 8.80005 3.6752 8.69765C3.6752 8.59525 3.6536 8.50965 3.6104 8.44085C3.5655 8.37035 3.5057 8.31055 3.4352 8.26565C3.35495 8.21446 3.2687 8.17335 3.1784 8.14325L2.9756 8.07525L2.8688 8.04005C2.7592 8.00776 2.65178 7.96848 2.5472 7.92245C2.44441 7.87781 2.34894 7.81794 2.264 7.74485C2.17925 7.67081 2.11063 7.58013 2.0624 7.47845C2.0112 7.37285 1.9856 7.24165 1.9856 7.08485C1.9856 6.91525 2.02 6.76965 2.0888 6.64805C2.15539 6.52893 2.24711 6.42574 2.3576 6.34565C2.468 6.26565 2.5928 6.20725 2.732 6.17045C2.86902 6.13393 3.0102 6.11538 3.152 6.11525ZM12.9776 7.26245C13.144 7.26245 13.2952 7.28965 13.4312 7.34405C13.5672 7.39845 13.6824 7.47685 13.7768 7.57925C13.8712 7.68165 13.944 7.80565 13.9952 7.95125C14.0464 8.09685 14.072 8.26085 14.072 8.44325V8.52005C14.072 8.54565 14.0704 8.57125 14.0672 8.59685H12.2624C12.2656 8.69285 12.2872 8.78325 12.3272 8.86805C12.3672 8.95285 12.4208 9.02645 12.488 9.08885C12.6275 9.21838 12.8112 9.28965 13.0016 9.28805C13.1552 9.28805 13.288 9.25445 13.4 9.18725C13.512 9.12005 13.6 9.03845 13.664 8.94245L13.9808 9.19685C13.8592 9.35685 13.716 9.47445 13.5512 9.54965C13.3864 9.62485 13.2032 9.66245 13.0016 9.66245C12.8288 9.66245 12.6688 9.63365 12.5216 9.57605C12.38 9.52201 12.2509 9.43951 12.1424 9.33365C12.0345 9.22625 11.9496 9.09806 11.8928 8.95685C11.8304 8.80126 11.7994 8.63487 11.8016 8.46725C11.8016 8.29125 11.8312 8.12885 11.8904 7.98005C11.9496 7.83125 12.032 7.70405 12.1376 7.59845C12.2432 7.49285 12.368 7.41045 12.512 7.35125C12.656 7.29205 12.8112 7.26245 12.9776 7.26245ZM8.5088 7.26245C8.672 7.26245 8.8136 7.28565 8.9336 7.33205C9.0536 7.37845 9.152 7.44165 9.2288 7.52165C9.3056 7.60165 9.3632 7.69605 9.4016 7.80485C9.44 7.91365 9.4592 8.03045 9.4592 8.15525V9.14885C9.4592 9.20005 9.4604 9.25285 9.4624 9.30765L9.4664 9.39125C9.4712 9.47605 9.48 9.54565 9.4928 9.60005H9.0848C9.05942 9.4931 9.04653 9.38357 9.0464 9.27365H9.032C8.9488 9.39525 8.844 9.48965 8.7176 9.55685C8.5912 9.62405 8.4416 9.65765 8.2688 9.65765C8.1792 9.65765 8.0856 9.64565 7.988 9.62165C7.89287 9.59874 7.80263 9.5589 7.7216 9.50405C7.6399 9.44783 7.57184 9.37402 7.5224 9.28805C7.4696 9.19845 7.4432 9.08805 7.4432 8.95685C7.4432 8.78405 7.4896 8.64725 7.5824 8.54645C7.6752 8.44565 7.7968 8.36885 7.9472 8.31605C8.11177 8.26033 8.28273 8.22565 8.456 8.21285C8.6448 8.19685 8.8352 8.18885 9.0272 8.18885V8.12645C9.0272 7.95685 8.976 7.83125 8.8736 7.74965C8.7712 7.66805 8.6352 7.62725 8.4656 7.62725C8.3376 7.62725 8.2168 7.65205 8.1032 7.70165C7.99693 7.74635 7.90004 7.81067 7.8176 7.89125L7.5776 7.60325C7.69638 7.4935 7.83592 7.40864 7.988 7.35365C8.15464 7.29195 8.33111 7.26105 8.5088 7.26245ZM5.2688 5.97125V7.67045H5.2784C5.3328 7.55845 5.4256 7.46245 5.5568 7.38245C5.688 7.30245 5.8352 7.26245 5.9984 7.26245C6.1456 7.26245 6.272 7.28725 6.3776 7.33685C6.47918 7.38337 6.56939 7.4515 6.64193 7.53647C6.71447 7.62145 6.76759 7.72123 6.7976 7.82885C6.8312 7.94085 6.848 8.06085 6.848 8.18885V9.60005H6.3968V8.34245C6.3968 8.24965 6.3896 8.16165 6.3752 8.07845C6.36272 8.00057 6.33586 7.9257 6.296 7.85765C6.25794 7.79399 6.20424 7.74112 6.14 7.70405C6.0744 7.66565 5.9888 7.64645 5.8832 7.64645C5.704 7.64645 5.5568 7.71445 5.4416 7.85045C5.3264 7.98645 5.2688 8.16805 5.2688 8.39525V9.60005H4.8176V5.97125H5.2688ZM11.3504 7.26245C11.4208 7.26245 11.48 7.26885 11.528 7.28165L11.5088 7.69925C11.4448 7.68325 11.376 7.67525 11.3024 7.67525C11.1936 7.67525 11.0992 7.69525 11.0192 7.73525C10.9392 7.77525 10.8728 7.82885 10.82 7.89605C10.7661 7.96533 10.7262 8.04439 10.7024 8.12885C10.6768 8.21685 10.664 8.30885 10.664 8.40485V9.60005H10.2128V7.81445L10.21 7.64805L10.208 7.57925C10.2054 7.49434 10.2006 7.40951 10.1936 7.32485H10.6208C10.6248 7.36325 10.6288 7.40565 10.6316 7.45165L10.6388 7.62685L10.64 7.70885H10.6544C10.7184 7.57445 10.812 7.46645 10.9352 7.38485C11.0582 7.30331 11.2029 7.26066 11.3504 7.26245ZM9.0272 8.51525H8.9168C8.8048 8.51525 8.6888 8.52005 8.5688 8.52965C8.4488 8.53925 8.34 8.55845 8.2424 8.58725C8.1448 8.61605 8.064 8.65925 8 8.71685C7.96812 8.74589 7.943 8.78158 7.92641 8.82139C7.90983 8.8612 7.90217 8.90416 7.904 8.94725C7.904 9.01445 7.9176 9.07045 7.9448 9.11525C7.97182 9.15987 8.00878 9.19765 8.0528 9.22565C8.0976 9.25445 8.1472 9.27445 8.2016 9.28565C8.256 9.29685 8.312 9.30245 8.3696 9.30245C8.5808 9.30245 8.7432 9.23925 8.8568 9.11285C8.9704 8.98645 9.0272 8.82725 9.0272 8.63525V8.51525ZM12.9776 7.61765C12.796 7.61665 12.6206 7.6834 12.4856 7.80485C12.4227 7.86316 12.3706 7.93224 12.332 8.00885C12.292 8.08725 12.2688 8.17125 12.2624 8.26085H13.616C13.6135 8.17504 13.5981 8.09009 13.5704 8.00885C13.5449 7.9333 13.504 7.86385 13.4504 7.80485C13.3954 7.74568 13.3282 7.69902 13.2536 7.66805C13.166 7.63271 13.0721 7.61556 12.9776 7.61765Z" fill="black"/>
</svg>
