<svg width="16" height="16" viewBox="0 0 16 16" fill="none" xmlns="http://www.w3.org/2000/svg">
<g clip-path="url(#clip0_8117_7425)">
<path d="M14 5C14.5304 5 15.0391 5.21071 15.4142 5.58579C15.7893 5.96086 16 6.46957 16 7V14C16 14.5304 15.7893 15.0391 15.4142 15.4142C15.0391 15.7893 14.5304 16 14 16H2C1.46957 16 0.960859 15.7893 0.585786 15.4142C0.210714 15.0391 0 14.5304 0 14V7C0 6.46957 0.210714 5.96086 0.585786 5.58579C0.960859 5.21071 1.46957 5 2 5H3.988V7H2V14H14V7H11.988V5H14ZM8.989 12H6.989L7.036 3H4.86L7.989 0L10.989 3H8.989V12Z" fill="black"/>
</g>
<defs>
<clipPath id="clip0_8117_7425">
<rect width="16" height="16" fill="white"/>
</clipPath>
</defs>
</svg>
