<svg width="16" height="16" viewBox="0 0 16 16" fill="none" xmlns="http://www.w3.org/2000/svg">
<g clip-path="url(#clip0_8117_7417)">
<path fill-rule="evenodd" clip-rule="evenodd" d="M13.4998 1.68318e-07C13.9094 -2.25543e-05 14.3127 0.100573 14.6742 0.292941C15.0358 0.48531 15.3446 0.76356 15.5734 1.10323C15.8022 1.4429 15.9441 1.83358 15.9865 2.24093C16.029 2.64827 15.9707 3.05981 15.8168 3.43935C15.6629 3.81889 15.4181 4.15482 15.104 4.41759C14.7898 4.68036 14.416 4.86193 14.0152 4.94633C13.6144 5.03074 13.1991 5.01539 12.8056 4.90165C12.4122 4.7879 12.0527 4.57924 11.7588 4.294L5.93784 7.39C6.02785 7.82629 6.01999 8.27711 5.91483 8.71L11.5348 11.955C11.9183 11.4685 12.4688 11.1418 13.0795 11.038C13.6902 10.9343 14.3177 11.061 14.8403 11.3936C15.3629 11.7262 15.7435 12.2409 15.9081 12.8381C16.0728 13.4353 16.0099 14.0723 15.7317 14.6258C15.4534 15.1792 14.9796 15.6096 14.402 15.8336C13.8245 16.0576 13.1843 16.0592 12.6057 15.838C12.027 15.6169 11.5511 15.1888 11.2701 14.6368C10.9891 14.0847 10.9231 13.448 11.0848 12.85L5.51684 9.634C5.16206 10.1802 4.63918 10.5961 4.02718 10.8189C3.41518 11.0417 2.74729 11.0592 2.12442 10.8689C1.50155 10.6786 0.957525 10.2908 0.574525 9.76403C0.191526 9.23725 -0.00964244 8.60014 0.00140871 7.94894C0.0124599 7.29774 0.23513 6.66783 0.635783 6.15435C1.03644 5.64087 1.59331 5.27172 2.22228 5.10267C2.85125 4.93362 3.51815 4.97384 4.12224 5.21726C4.72633 5.46069 5.2348 5.89409 5.57084 6.452L11.1918 3.463C11.0332 3.08299 10.9709 2.66969 11.0105 2.25982C11.05 1.84994 11.1902 1.45618 11.4186 1.11353C11.647 0.770873 11.9565 0.489936 12.3195 0.295676C12.6826 0.101416 13.0881 -0.000150919 13.4998 1.68318e-07Z" fill="black"/>
</g>
<defs>
<clipPath id="clip0_8117_7417">
<rect width="16" height="16" fill="white"/>
</clipPath>
</defs>
</svg>
