<svg width="16" height="16" viewBox="0 0 16 16" fill="none" xmlns="http://www.w3.org/2000/svg">
<path fill-rule="evenodd" clip-rule="evenodd" d="M14.4 4.80005C14.8243 4.80005 15.2313 4.96862 15.5314 5.26868C15.8314 5.56874 16 5.9757 16 6.40005V9.60005C16 10.0244 15.8314 10.4314 15.5314 10.7314C15.2313 11.0315 14.8243 11.2 14.4 11.2H1.6C1.17565 11.2 0.768687 11.0315 0.468629 10.7314C0.168571 10.4314 0 10.0244 0 9.60005V6.40005C0 5.9757 0.168571 5.56874 0.468629 5.26868C0.768687 4.96862 1.17565 4.80005 1.6 4.80005H14.4ZM3.152 6.11525C3.0112 6.11525 2.8712 6.13365 2.732 6.17045C2.5928 6.20725 2.468 6.26565 2.3576 6.34565C2.2472 6.42565 2.1576 6.52645 2.0888 6.64805C2.02 6.76965 1.9856 6.91525 1.9856 7.08485C1.9856 7.24165 2.0112 7.37285 2.0624 7.47845C2.1136 7.58405 2.1808 7.67285 2.264 7.74485C2.3472 7.81685 2.4416 7.87605 2.5472 7.92245C2.6528 7.96885 2.76 8.00805 2.8688 8.04005L2.9756 8.07485L3.1784 8.14325C3.276 8.17685 3.3616 8.21765 3.4352 8.26565C3.5088 8.31365 3.5672 8.37205 3.6104 8.44085C3.6536 8.50965 3.6752 8.59525 3.6752 8.69765C3.6752 8.80005 3.6544 8.88725 3.6128 8.95925C3.5712 9.03125 3.5176 9.09125 3.452 9.13925C3.3864 9.18725 3.3136 9.22245 3.2336 9.24485C3.0067 9.30947 2.76345 9.28187 2.5568 9.16805C2.42792 9.09942 2.31758 9.0006 2.2352 8.88005L1.8656 9.19205C1.9968 9.35525 2.1624 9.47845 2.3624 9.56165C2.69862 9.70244 3.07279 9.72445 3.4232 9.62405C3.5656 9.58245 3.6912 9.51925 3.8 9.43445C3.9088 9.34965 3.996 9.24245 4.0616 9.11285C4.1272 8.98325 4.16 8.83045 4.16 8.65445C4.16 8.48485 4.1296 8.34485 4.0688 8.23445C4.01054 8.12703 3.93042 8.03301 3.8336 7.95845C3.73569 7.88379 3.62733 7.82395 3.512 7.78085C3.39653 7.73705 3.27967 7.69703 3.1616 7.66085L2.8904 7.56725C2.8123 7.54023 2.73808 7.50311 2.6696 7.45685C2.609 7.41558 2.55821 7.3615 2.5208 7.29845C2.48182 7.22722 2.46276 7.1468 2.4656 7.06565C2.4656 6.96965 2.4856 6.88725 2.5256 6.81845C2.5656 6.74965 2.6176 6.69205 2.6816 6.64565C2.74593 6.59909 2.81836 6.56491 2.8952 6.54485C2.9736 6.52405 3.0512 6.51365 3.128 6.51365C3.272 6.51365 3.4016 6.54325 3.5168 6.60245C3.632 6.66165 3.7232 6.73765 3.7904 6.83045L4.1264 6.50405C4.01082 6.3788 3.86792 6.28189 3.7088 6.22085C3.53187 6.14966 3.34271 6.11378 3.152 6.11525ZM12.9776 7.26245C12.8112 7.26245 12.656 7.29205 12.512 7.35125C12.368 7.41045 12.2432 7.49285 12.1376 7.59845C12.032 7.70405 11.9496 7.83125 11.8904 7.98005C11.83 8.1353 11.7999 8.30067 11.8016 8.46725C11.8016 8.64645 11.832 8.80965 11.8928 8.95685C11.9536 9.10405 12.0368 9.22965 12.1424 9.33365C12.248 9.43765 12.3744 9.51845 12.5216 9.57605C12.6688 9.63365 12.8288 9.66245 13.0016 9.66245C13.2032 9.66245 13.3864 9.62485 13.5512 9.54965C13.716 9.47445 13.8592 9.35685 13.9808 9.19685L13.664 8.94245C13.6 9.03845 13.512 9.12005 13.4 9.18725C13.288 9.25445 13.1552 9.28805 13.0016 9.28805C12.8113 9.28932 12.6277 9.2181 12.488 9.08885C12.4207 9.02629 12.3661 8.95132 12.3272 8.86805C12.2872 8.78308 12.2651 8.69075 12.2624 8.59685H14.0672C14.0704 8.57125 14.072 8.54565 14.072 8.52005V8.44325C14.072 8.26085 14.0464 8.09685 13.9952 7.95125C13.9487 7.81359 13.8743 7.68696 13.7768 7.57925C13.6808 7.47578 13.5627 7.39537 13.4312 7.34405C13.2866 7.28807 13.1326 7.26037 12.9776 7.26245ZM8.5088 7.26245C8.3232 7.26245 8.1496 7.29285 7.988 7.35365C7.83592 7.40864 7.69638 7.4935 7.5776 7.60325L7.8176 7.89125C7.8944 7.81445 7.9896 7.75125 8.1032 7.70165C8.21751 7.65191 8.34094 7.62657 8.4656 7.62725C8.6352 7.62725 8.7712 7.66805 8.8736 7.74965C8.976 7.83125 9.0272 7.95685 9.0272 8.12645V8.18885C8.8352 8.18885 8.6448 8.19685 8.456 8.21285C8.28273 8.22565 8.11177 8.26033 7.9472 8.31605C7.7968 8.36885 7.6752 8.44565 7.5824 8.54645C7.4896 8.64725 7.4432 8.78405 7.4432 8.95685C7.4432 9.08805 7.4696 9.19845 7.5224 9.28805C7.5752 9.37765 7.6416 9.44965 7.7216 9.50405C7.8016 9.55845 7.8904 9.59765 7.988 9.62165C8.0856 9.64565 8.1792 9.65765 8.2688 9.65765C8.4416 9.65765 8.5912 9.62405 8.7176 9.55685C8.844 9.48965 8.9488 9.39525 9.032 9.27365H9.0464C9.0464 9.38245 9.0592 9.49125 9.0848 9.60005H9.4928C9.47812 9.53132 9.46929 9.46147 9.4664 9.39125L9.4624 9.30765C9.4604 9.25285 9.4592 9.20005 9.4592 9.14885V8.15525C9.4592 8.03045 9.44 7.91365 9.4016 7.80485C9.36507 7.69911 9.30612 7.6025 9.2288 7.52165C9.14557 7.43748 9.04476 7.37274 8.9336 7.33205C8.79749 7.28291 8.65348 7.25931 8.5088 7.26245ZM5.2688 5.97125H4.8176V9.60005H5.2688V8.39525C5.2688 8.16805 5.3264 7.98645 5.4416 7.85045C5.5568 7.71445 5.704 7.64645 5.8832 7.64645C5.9888 7.64645 6.0744 7.66565 6.14 7.70405C6.2056 7.74245 6.2576 7.79365 6.296 7.85765C6.3344 7.92165 6.3608 7.99525 6.3752 8.07845C6.3896 8.16165 6.3968 8.24965 6.3968 8.34245V9.60005H6.848V8.18885C6.848 8.06085 6.8312 7.94085 6.7976 7.82885C6.76759 7.72123 6.71447 7.62145 6.64193 7.53647C6.56939 7.4515 6.47918 7.38337 6.3776 7.33685C6.272 7.28725 6.1456 7.26245 5.9984 7.26245C5.8352 7.26245 5.688 7.30245 5.5568 7.38245C5.4256 7.46245 5.3328 7.55845 5.2784 7.67045H5.2688V5.97125ZM11.3504 7.26245C11.1968 7.26245 11.0584 7.30325 10.9352 7.38485C10.8134 7.46479 10.7162 7.57695 10.6544 7.70885H10.64L10.6388 7.62685L10.6316 7.45165C10.629 7.4093 10.6254 7.36702 10.6208 7.32485H10.1936C10.2 7.39845 10.2048 7.48325 10.208 7.57925L10.21 7.64805L10.2128 7.81445V9.60005H10.664V8.40485C10.664 8.30885 10.6768 8.21685 10.7024 8.12885C10.7262 8.04439 10.7661 7.96533 10.82 7.89605C10.8728 7.82885 10.9392 7.77525 11.0192 7.73525C11.0992 7.69525 11.1936 7.67525 11.3024 7.67525C11.376 7.67525 11.4448 7.68325 11.5088 7.69925L11.528 7.28165C11.4699 7.26769 11.4102 7.26124 11.3504 7.26245ZM9.0272 8.51525V8.63525C9.0272 8.82725 8.9704 8.98645 8.8568 9.11285C8.7432 9.23925 8.5808 9.30245 8.3696 9.30245C8.312 9.30245 8.256 9.29685 8.2016 9.28565C8.1487 9.27506 8.09824 9.25471 8.0528 9.22565C8.00878 9.19765 7.97182 9.15987 7.9448 9.11525C7.91599 9.06408 7.90187 9.00594 7.904 8.94725C7.904 8.85125 7.936 8.77445 8 8.71685C8.064 8.65925 8.1448 8.61605 8.2424 8.58725C8.34 8.55845 8.4488 8.53925 8.5688 8.52965C8.6888 8.52005 8.8048 8.51525 8.9168 8.51525H9.0272ZM12.9776 7.61765C13.0832 7.61765 13.1752 7.63445 13.2536 7.66805C13.332 7.70165 13.3976 7.74725 13.4504 7.80485C13.5032 7.86245 13.5432 7.93045 13.5704 8.00885C13.5976 8.08725 13.6128 8.17125 13.616 8.26085H12.2624C12.2688 8.17125 12.292 8.08725 12.332 8.00885C12.4102 7.85275 12.5437 7.73129 12.7064 7.66805C12.7912 7.63445 12.8816 7.61765 12.9776 7.61765Z" fill="black"/>
</svg>
