<svg width="16" height="16" viewBox="0 0 16 16" fill="none" xmlns="http://www.w3.org/2000/svg">
<g clip-path="url(#clip0_8117_7415)">
<path fill-rule="evenodd" clip-rule="evenodd" d="M13.4998 1.68318e-07C13.9094 -2.25543e-05 14.3127 0.100573 14.6742 0.292941C15.0358 0.48531 15.3446 0.76356 15.5734 1.10323C15.8022 1.4429 15.9441 1.83358 15.9865 2.24093C16.029 2.64827 15.9707 3.05981 15.8168 3.43935C15.6629 3.81889 15.4181 4.15482 15.104 4.41759C14.7898 4.68036 14.416 4.86193 14.0152 4.94633C13.6144 5.03074 13.1991 5.01539 12.8056 4.90165C12.4122 4.7879 12.0527 4.57924 11.7588 4.294L5.93784 7.39C6.02785 7.82629 6.01999 8.27711 5.91483 8.71L11.5348 11.955C11.9182 11.4685 12.4685 11.1416 13.0792 11.0377C13.6898 10.9337 14.3173 11.0602 14.84 11.3926C15.3627 11.725 15.7434 12.2396 15.9083 12.8366C16.0732 13.4337 16.0106 14.0707 15.7326 14.6243C15.4546 15.1778 14.981 15.6084 14.4036 15.8326C13.8262 16.0569 13.1861 16.0588 12.6074 15.838C12.0286 15.6172 11.5525 15.1894 11.2712 14.6375C10.9899 14.0857 10.9235 13.449 11.0848 12.851L5.51684 9.634C5.16206 10.1802 4.63918 10.5961 4.02718 10.8189C3.41518 11.0417 2.74729 11.0592 2.12442 10.8689C1.50155 10.6786 0.957525 10.2908 0.574525 9.76403C0.191526 9.23725 -0.00964244 8.60014 0.00140871 7.94894C0.0124599 7.29774 0.23513 6.66783 0.635783 6.15435C1.03644 5.64087 1.59331 5.27172 2.22228 5.10267C2.85125 4.93362 3.51815 4.97384 4.12224 5.21726C4.72633 5.46069 5.2348 5.89409 5.57084 6.452L11.1918 3.463C11.0332 3.08299 10.9709 2.66969 11.0105 2.25982C11.05 1.84994 11.1902 1.45618 11.4186 1.11353C11.647 0.770873 11.9565 0.489936 12.3195 0.295676C12.6826 0.101416 13.0881 -0.000150919 13.4998 1.68318e-07ZM13.4998 12.5C13.2346 12.5 12.9803 12.6054 12.7927 12.7929C12.6052 12.9804 12.4998 13.2348 12.4998 13.5C12.4998 13.7652 12.6052 14.0196 12.7927 14.2071C12.9803 14.3946 13.2346 14.5 13.4998 14.5C13.7651 14.5 14.0194 14.3946 14.2069 14.2071C14.3945 14.0196 14.4998 13.7652 14.4998 13.5C14.4998 13.2348 14.3945 12.9804 14.2069 12.7929C14.0194 12.6054 13.7651 12.5 13.4998 12.5ZM2.99984 6.5C2.60201 6.5 2.22048 6.65804 1.93917 6.93934C1.65787 7.22064 1.49984 7.60218 1.49984 8C1.49984 8.39782 1.65787 8.77936 1.93917 9.06066C2.22048 9.34196 2.60201 9.5 2.99984 9.5C3.39766 9.5 3.77919 9.34196 4.0605 9.06066C4.3418 8.77936 4.49984 8.39782 4.49984 8C4.49984 7.60218 4.3418 7.22064 4.0605 6.93934C3.77919 6.65804 3.39766 6.5 2.99984 6.5ZM13.4998 1.5C13.2346 1.5 12.9803 1.60536 12.7927 1.79289C12.6052 1.98043 12.4998 2.23478 12.4998 2.5C12.4998 2.76522 12.6052 3.01957 12.7927 3.20711C12.9803 3.39464 13.2346 3.5 13.4998 3.5C13.7651 3.5 14.0194 3.39464 14.2069 3.20711C14.3945 3.01957 14.4998 2.76522 14.4998 2.5C14.4998 2.23478 14.3945 1.98043 14.2069 1.79289C14.0194 1.60536 13.7651 1.5 13.4998 1.5Z" fill="black"/>
</g>
<defs>
<clipPath id="clip0_8117_7415">
<rect width="16" height="16" fill="white"/>
</clipPath>
</defs>
</svg>
