<svg width="228" height="140" viewBox="0 0 228 140" fill="none" preserveAspectRatio="none" xmlns="http://www.w3.org/2000/svg">
<path d="M26.5 115L41.5 140L3.8147e-06 140L7.2679e-06 100.5L26.5 115Z" fill="var(--theme-secondary)"/>
<path opacity="0.8" d="M202 25L187 4.45856e-06L228.5 7.25609e-06L228.5 39.5L202 25Z" fill="var(--theme-secondary)"/>
<path opacity="0.8" d="M47.6943 35.7285L-5.82715 55.4688L-6.17285 54.5312L46.3066 35.1748L25.0879 -7.77832L25.9844 -8.22168L47.6943 35.7285ZM38.5 32L0 46V0H23L38.5 32Z" fill="var(--theme-primary)"/>
<path d="M230.117 75.4863L182.844 86.9307L155.448 142.222L154.552 141.778L182.155 86.0693L182.383 86.0137L229.883 74.5137L230.117 75.4863ZM228 140H166L188.733 94.4404L228 85V140Z" fill="var(--theme-primary)"/>
</svg>
