<svg data-name="Layer 1" xmlns="http://www.w3.org/2000/svg" width="32" height="32"><path d="M1 10a9 9 0 109-9 9 9 0 00-9 9z" fill="#fff" stroke="#323232" stroke-miterlimit="10"/><path d="M8.81 8.14l-3.58 3.72v-3C7 7.11 10 4.07 10 4.07s3 3 4.74 4.75v3l-3.55-3.68V16H8.81V8.14z" fill="#323232"/><g><path d="M13 22a9 9 0 109-9 9 9 0 00-9 9z" fill="#fff" stroke="#323232" stroke-miterlimit="10"/><path d="M20.81 23.88v-7.81h2.38v7.81l3.58-3.72v3C25 24.94 22 28 22 28l-4.8-4.78v-3l3.58 3.71z" fill="#323232"/></g></svg>