<svg data-name="Layer 1" xmlns="http://www.w3.org/2000/svg" width="32" height="32"><path d="M10 19.5a9.5 9.5 0 116.72-2.78A9.46 9.46 0 0110 19.5z" fill="#323232"/><path d="M10 1a9 9 0 016.36 15.36A9 9 0 013.64 3.64 9 9 0 0110 1m0-1a10 10 0 00-7.07 17.07A10 10 0 1017.07 2.93 9.93 9.93 0 0010 0z" fill="#fff"/><path d="M27.1 16.9a7.21 7.21 0 11-10.2 0 7.22 7.22 0 0110.2 0m1.26-1.26a9 9 0 100 12.72 9 9 0 000-12.72z" stroke="#fff" stroke-miterlimit="10" stroke-width="2"/><path d="M27.1 16.9a7.21 7.21 0 11-10.2 0 7.22 7.22 0 0110.2 0m1.26-1.26a9 9 0 100 12.72 9 9 0 000-12.72z" fill="#323232"/></svg>