<svg data-name="Layer 1" xmlns="http://www.w3.org/2000/svg" width="32" height="32"><path d="M1 10a9 9 0 109-9 9 9 0 00-9 9z" fill="#323232"/><g fill="#fff"><circle cx="6.42" cy="8.21" r="1.25"/><circle cx="13.58" cy="8.21" r="1.25"/><path d="M13.75 12a5.31 5.31 0 01-7.5 0 .6.6 0 00-.84 0 .61.61 0 000 .85 6.49 6.49 0 009.18 0 .61.61 0 000-.85.6.6 0 00-.84 0z"/></g><g><circle cx="22" cy="22" r="9.5" fill="#323232"/><path d="M22 13a9 9 0 11-9 9 9 9 0 019-9m0-1a10 10 0 1010 10 10 10 0 00-10-10z" fill="#fff"/><g fill="#fff"><path d="M18.42 21.46a1.25 1.25 0 10-1.25-1.25 1.25 1.25 0 001.25 1.25zM25.58 21.46a1.25 1.25 0 10-1.26-1.25 1.25 1.25 0 001.26 1.25zM17.41 25.73a.6.6 0 000 .84.58.58 0 00.84 0 5.32 5.32 0 017.5 0 .56.56 0 00.42.18.6.6 0 00.42-1 6.5 6.5 0 00-9.18-.02z"/></g></g></svg>