<svg data-name="Layer 1" xmlns="http://www.w3.org/2000/svg" width="32" height="32"><path d="M2.08 19.5A1.58 1.58 0 01.5 17.92V2.08A1.58 1.58 0 012.08.5h15.84a1.58 1.58 0 011.58 1.58v15.84a1.58 1.58 0 01-1.58 1.58z" fill="#323232"/><path d="M17.92 1A1.08 1.08 0 0119 2.08v15.84A1.08 1.08 0 0117.92 19H2.08A1.08 1.08 0 011 17.92V2.08A1.08 1.08 0 012.08 1h15.84m0-1H2.08A2.08 2.08 0 000 2.08v15.84A2.08 2.08 0 002.08 20h15.84A2.08 2.08 0 0020 17.92V2.08A2.08 2.08 0 0017.92 0z" fill="#fff"/><path d="M29.92 13H14.08A1.08 1.08 0 0013 14.08v15.84A1.08 1.08 0 0014.08 31h15.84A1.08 1.08 0 0031 29.92V14.08A1.08 1.08 0 0029.92 13zm-.72 1.8v14.4H14.8V14.8z" stroke="#fff" stroke-miterlimit="10" stroke-width="2"/><path d="M29.92 13H14.08A1.08 1.08 0 0013 14.08v15.84A1.08 1.08 0 0014.08 31h15.84A1.08 1.08 0 0031 29.92V14.08A1.08 1.08 0 0029.92 13zm-.72 1.8v14.4H14.8V14.8z" fill="#323232"/></svg>