<svg width="16" height="16" viewBox="0 0 16 16" fill="none" xmlns="http://www.w3.org/2000/svg">
<path d="M14 2.70835V4.39241C12.7751 2.35958 10.5463 1 8 1C4.13401 1 1 4.13401 1 8C1 11.866 4.13401 15 8 15C10.5463 15 12.7751 13.6404 14 11.6076V13.2916C12.5341 14.9525 10.3894 16 8 16C3.58172 16 0 12.4183 0 8C0 3.58172 3.58172 0 8 0C10.3894 0 12.5341 1.04751 14 2.70835Z" fill="#008F7A"/>
<path d="M15 14V13H16V14H15Z" fill="#008F7A"/>
<path d="M15 3V12H16V3H15Z" fill="#008F7A"/>
<path d="M7 9.79289L11.1464 5.64645C11.3417 5.45118 11.6583 5.45118 11.8536 5.64645C12.0488 5.84171 12.0488 6.15829 11.8536 6.35355L7.35355 10.8536C7.15829 11.0488 6.84171 11.0488 6.64645 10.8536L4.14645 8.35355C3.95118 8.15829 3.95118 7.84171 4.14645 7.64645C4.34171 7.45118 4.65829 7.45118 4.85355 7.64645L7 9.79289Z" fill="#008F7A"/>
</svg>
