<svg width="16" height="16" viewBox="0 0 16 16" fill="none" xmlns="http://www.w3.org/2000/svg">
<path d="M11.1464 5.64645L7 9.79289L4.85355 7.64645C4.65829 7.45118 4.34171 7.45118 4.14645 7.64645C3.95118 7.84171 3.95118 8.15829 4.14645 8.35355L6.64645 10.8536C6.84171 11.0488 7.15829 11.0488 7.35355 10.8536L11.8536 6.35355C12.0488 6.15829 12.0488 5.84171 11.8536 5.64645C11.6583 5.45118 11.3417 5.45118 11.1464 5.64645Z" fill="#008F7A"/>
<path fill-rule="evenodd" clip-rule="evenodd" d="M8 16C3.58172 16 0 12.4183 0 8C0 3.58172 3.58172 0 8 0C12.4183 0 16 3.58172 16 8C16 12.4183 12.4183 16 8 16ZM8 15C11.866 15 15 11.866 15 8C15 4.13401 11.866 1 8 1C4.13401 1 1 4.13401 1 8C1 11.866 4.13401 15 8 15Z" fill="#008F7A"/>
</svg>
