<svg width="102" height="102" viewBox="0 0 102 102" fill="none" xmlns="http://www.w3.org/2000/svg">
<g clip-path="url(#clip0_4442_802)">
<rect width="102" height="102" fill="#181818"/>
<rect width="102" height="20" fill="#363636"/>
<path fill-rule="evenodd" clip-rule="evenodd" d="M93.4286 10.5714V14H94.5714V10.5714H98V9.42857H94.5714V6H93.4286V9.42857H90V10.5714H93.4286Z" fill="#7E7E7E"/>
<rect x="15" y="7" width="25" height="6" fill="#7E7E7E"/>
<rect x="4" y="6" width="8" height="8" rx="4" fill="#7E7E7E"/>
<rect y="24" width="102" height="20" fill="#2A2A2A"/>
<path d="M89 34H97V35.1429H89V34Z" fill="#7E7E7E"/>
<rect x="4" y="30" width="8" height="8" rx="4" fill="#7E7E7E"/>
<rect x="0.5" y="24.5" width="101" height="77" stroke="#5E5E5E"/>
<rect x="15" y="31" width="25" height="6" fill="#7E7E7E"/>
<rect x="10" y="58" width="81" height="2" fill="#5E5E5E"/>
<rect x="10" y="72" width="81" height="2" fill="#5E5E5E"/>
<rect x="10" y="86" width="65" height="2" fill="#5E5E5E"/>
</g>
<defs>
<clipPath id="clip0_4442_802">
<rect width="102" height="102" fill="white"/>
</clipPath>
</defs>
</svg>
