<svg id="icon" xmlns="http://www.w3.org/2000/svg" viewBox="0 0 64 64"><path d="M23.026 36.1h18.375l-.802.8H23.026zM27 17.1v.8h10v-.8zm-3.974 13.8h21.948v-.8H23.026zm-3.126 1h-2.8v-2.8h2.8zm-.8-2h-1.2v1.2h1.2zm3.926 12.2v.8h11.569l.801-.8zm0-16.2h21.948v-.8H23.026zm-3.126 12h-2.8v-2.8h2.8zm-.8-2h-1.2v1.2h1.2zm-2 5.2h2.8v2.8h-2.8zm.8 2h1.2v-1.2h-1.2zm2-17.2h-2.8v-2.8h2.8zm-.8-2h-1.2v1.2h1.2zM33.9 7v1a.902.902 0 0 1-.9.9h-1a.902.902 0 0 1-.9-.9V7a.902.902 0 0 1 .9-.9h1a.902.902 0 0 1 .9.9zm-.8 0a.1.1 0 0 0-.1-.1h-1a.1.1 0 0 0-.1.1v1a.1.1 0 0 0 .1.1h1a.1.1 0 0 0 .1-.1zM20.616 58.9h-6.413a2.107 2.107 0 0 1-2.103-2.103V11.203A2.107 2.107 0 0 1 14.203 9.1h6.506a2.725 2.725 0 0 1 2.667-2.186h4.929a4.214 4.214 0 0 1 8.39 0h4.929A2.725 2.725 0 0 1 44.291 9.1h5.506a2.107 2.107 0 0 1 2.103 2.103v15.581c-.035-.002-.069-.011-.104-.012h-.026a2.486 2.486 0 0 0-.67.103V11.203A1.304 1.304 0 0 0 49.797 9.9h-5.451v2.902H20.654V9.9h-6.45a1.304 1.304 0 0 0-1.304 1.303v45.594a1.304 1.304 0 0 0 1.303 1.303h6.705zm.84-46.899h22.089v-2.1H43.5v-.67a1.922 1.922 0 0 0-1.876-1.516h-5.71v-.4a3.414 3.414 0 0 0-6.828 0v.4h-5.71A1.922 1.922 0 0 0 21.5 9.23v.67h-.045zM51.1 38.334v18.463a1.304 1.304 0 0 1-1.303 1.303h-18.5l-.802.8h19.302a2.107 2.107 0 0 0 2.103-2.103V37.535zm-1.791-1.18l.562 3.581-.143.145L38.606 52l-.566-.566 10.978-10.977-.41-2.604L26.88 59.54a2.301 2.301 0 0 1-.866.543l-4.165 1.571 1.558-4.283a2.294 2.294 0 0 1 .542-.865L51.775 28.7l2.938 3.06zm4.283-5.405l-1.828-1.905-27.248 27.228a1.503 1.503 0 0 0-.355.567l-.965 2.653 2.544-.96a1.501 1.501 0 0 0 .574-.357z"/></svg>
