<svg width="32" height="32" viewBox="0 0 32 32" fill="none" xmlns="http://www.w3.org/2000/svg">
<path d="M11.8 17C11.9105 17 12 17.0895 12 17.2V17.8C12 17.9105 11.9105 18 11.8 18H11.2C11.0895 18 11 17.9105 11 17.8V17.2C11 17.0895 11.0895 17 11.2 17H11.8Z" fill="white"/>
<path d="M9.8 17C9.91046 17 10 17.0895 10 17.2V17.8C10 17.9105 9.91046 18 9.8 18H9.2C9.08954 18 9 17.9105 9 17.8V17.2C9 17.0895 9.08954 17 9.2 17H9.8Z" fill="white"/>
<path d="M7.8 17C7.91046 17 8 17.0895 8 17.2V17.8C8 17.9105 7.91046 18 7.8 18H7.2C7.08954 18 7 17.9105 7 17.8V17.2C7 17.0895 7.08954 17 7.2 17H7.8Z" fill="white"/>
<path d="M7.8 5C7.91046 5 8 5.08954 8 5.2V5.8C8 5.91046 7.91046 6 7.8 6H7.2C7.08954 6 7 5.91046 7 5.8V5.2C7 5.08954 7.08954 5 7.2 5H7.8Z" fill="white"/>
<path d="M11.8 5C11.9105 5 12 5.08954 12 5.2V5.8C12 5.91046 11.9105 6 11.8 6H11.2C11.0895 6 11 5.91046 11 5.8V5.2C11 5.08954 11.0895 5 11.2 5H11.8Z" fill="white"/>
<path d="M9.8 5C9.91046 5 10 5.08954 10 5.2V5.8C10 5.91046 9.91046 6 9.8 6H9.2C9.08954 6 9 5.91046 9 5.8V5.2C9 5.08954 9.08954 5 9.2 5H9.8Z" fill="white"/>
<path d="M7 7.5C7 7.22386 7.22386 7 7.5 7H19.5C19.7761 7 20 7.22386 20 7.5C20 7.77614 19.7761 8 19.5 8H7.5C7.22386 8 7 7.77614 7 7.5Z" fill="white"/>
<path d="M7.5 9C7.22386 9 7 9.22386 7 9.5C7 9.77614 7.22386 10 7.5 10H24.5C24.7761 10 25 9.77614 25 9.5C25 9.22386 24.7761 9 24.5 9H7.5Z" fill="white"/>
<path d="M7 11.5C7 11.2239 7.22386 11 7.5 11H24.5C24.7761 11 25 11.2239 25 11.5C25 11.7761 24.7761 12 24.5 12H7.5C7.22386 12 7 11.7761 7 11.5Z" fill="white"/>
<path d="M7.5 19C7.22386 19 7 19.2239 7 19.5C7 19.7761 7.22386 20 7.5 20H19.5C19.7761 20 20 19.7761 20 19.5C20 19.2239 19.7761 19 19.5 19H7.5Z" fill="white"/>
<path d="M7 21.5C7 21.2239 7.22386 21 7.5 21H24.5C24.7761 21 25 21.2239 25 21.5C25 21.7761 24.7761 22 24.5 22H7.5C7.22386 22 7 21.7761 7 21.5Z" fill="white"/>
<path d="M7.5 23C7.22386 23 7 23.2239 7 23.5C7 23.7761 7.22386 24 7.5 24H24.5C24.7761 24 25 23.7761 25 23.5C25 23.2239 24.7761 23 24.5 23H7.5Z" fill="white"/>
<path fill-rule="evenodd" clip-rule="evenodd" d="M28 3C28 2.44772 27.5523 2 27 2H5C4.44772 2 4 2.44772 4 3V29C4 29.5523 4.44772 30 5 30H27C27.5523 30 28 29.5523 28 29V3ZM5 3H27V29H5V3Z" fill="white"/>
<path d="M7 13.5C7 13.2239 7.22386 13 7.5 13H24.5C24.7761 13 25 13.2239 25 13.5C25 13.7761 24.7761 14 24.5 14H7.5C7.22386 14 7 13.7761 7 13.5Z" fill="white"/>
<path d="M7.5 25C7.22386 25 7 25.2239 7 25.5C7 25.7761 7.22386 26 7.5 26H24.5C24.7761 26 25 25.7761 25 25.5C25 25.2239 24.7761 25 24.5 25H7.5Z" fill="white"/>
</svg>
