<svg width="32" height="32" viewBox="0 0 32 32" fill="none" xmlns="http://www.w3.org/2000/svg">
<path fill-rule="evenodd" clip-rule="evenodd" d="M15 5.5C15 5.22386 15.2239 5 15.5 5H25.5C25.7761 5 26 5.22386 26 5.5V7.5C26 7.77614 25.7761 8 25.5 8H15.5C15.2239 8 15 7.77614 15 7.5V5.5ZM16 6V7H25V6H16Z" fill="white"/>
<path d="M14 9.5C14 9.22386 14.2239 9 14.5 9H21.5C21.7761 9 22 9.22386 22 9.5C22 9.77614 21.7761 10 21.5 10H14.5C14.2239 10 14 9.77614 14 9.5Z" fill="white"/>
<path d="M14.8 13C14.9105 13 15 13.0895 15 13.2V13.8C15 13.9105 14.9105 14 14.8 14H14.2C14.0895 14 14 13.9105 14 13.8V13.2C14 13.0895 14.0895 13 14.2 13H14.8Z" fill="white"/>
<path d="M17 13.2C17 13.0895 16.9105 13 16.8 13H16.2C16.0895 13 16 13.0895 16 13.2V13.8C16 13.9105 16.0895 14 16.2 14H16.8C16.9105 14 17 13.9105 17 13.8V13.2Z" fill="white"/>
<path d="M19 13.2C19 13.0895 18.9105 13 18.8 13H18.2C18.0895 13 18 13.0895 18 13.2V13.8C18 13.9105 18.0895 14 18.2 14H18.8C18.9105 14 19 13.9105 19 13.8V13.2Z" fill="white"/>
<path d="M14.5 11C14.2239 11 14 11.2239 14 11.5C14 11.7761 14.2239 12 14.5 12H26.5C26.7761 12 27 11.7761 27 11.5C27 11.2239 26.7761 11 26.5 11H14.5Z" fill="white"/>
<path fill-rule="evenodd" clip-rule="evenodd" d="M14 15.5C14 15.2239 14.2239 15 14.5 15H26.5C26.7761 15 27 15.2239 27 15.5V21.5C27 21.7761 26.7761 22 26.5 22H14.5C14.2239 22 14 21.7761 14 21.5V15.5ZM15 18V19H18V18H15ZM19 18V19H22V18H19ZM19 20H22V21H19V20ZM23 20H26V21H23V20ZM23 18V19H26V18H23ZM26 16V17H23V16H26ZM19 16H22V17H19V16ZM18 20H15V21H18V20ZM18 16V17H15V16H18Z" fill="white"/>
<path fill-rule="evenodd" clip-rule="evenodd" d="M30 3C30 2.44772 29.5523 2 29 2H12C11.4477 2 11 2.44772 11 3V25C11 25.5523 11.4477 26 12 26H29C29.5523 26 30 25.5523 30 25V3ZM12 3H29V25H12V3Z" fill="white"/>
<path d="M3 6H9V7H3V29H20V28H21V29C21 29.5523 20.5523 30 20 30H3C2.44772 30 2 29.5523 2 29V7C2 6.44772 2.44772 6 3 6Z" fill="white"/>
<path d="M5.5 12H9V11H5.5C5.22386 11 5 11.2239 5 11.5C5 11.7761 5.22386 12 5.5 12Z" fill="white"/>
<path d="M9 14V13H5.5C5.22386 13 5 13.2239 5 13.5C5 13.7761 5.22386 14 5.5 14H9Z" fill="white"/>
<path d="M5.5 15H9V16H5.5C5.22386 16 5 15.7761 5 15.5C5 15.2239 5.22386 15 5.5 15Z" fill="white"/>
<path d="M5.5 21H9V20H5.5C5.22386 20 5 20.2239 5 20.5C5 20.7761 5.22386 21 5.5 21Z" fill="white"/>
<path d="M5.5 23H9V22H5.5C5.22386 22 5 22.2239 5 22.5C5 22.7761 5.22386 23 5.5 23Z" fill="white"/>
<path d="M5.5 24H9V25H5.5C5.22386 25 5 24.7761 5 24.5C5 24.2239 5.22386 24 5.5 24Z" fill="white"/>
<path d="M6 9.2C6 9.08954 5.91046 9 5.8 9H5.2C5.08954 9 5 9.08954 5 9.2V9.8C5 9.91046 5.08954 10 5.2 10H5.8C5.91046 10 6 9.91046 6 9.8V9.2Z" fill="white"/>
<path d="M5.8 18C5.91046 18 6 18.0895 6 18.2V18.8C6 18.9105 5.91046 19 5.8 19H5.2C5.08954 19 5 18.9105 5 18.8V18.2C5 18.0895 5.08954 18 5.2 18H5.8Z" fill="white"/>
<path d="M8 18.2C8 18.0895 7.91046 18 7.8 18H7.2C7.08954 18 7 18.0895 7 18.2V18.8C7 18.9105 7.08954 19 7.2 19H7.8C7.91046 19 8 18.9105 8 18.8V18.2Z" fill="white"/>
<path d="M8 9.2C8 9.08954 7.91046 9 7.8 9H7.2C7.08954 9 7 9.08954 7 9.2V9.8C7 9.91046 7.08954 10 7.2 10H7.8C7.91046 10 8 9.91046 8 9.8V9.2Z" fill="white"/>
</svg>
