<svg width="20" height="20" viewBox="0 0 20 20" fill="none" xmlns="http://www.w3.org/2000/svg">
<path d="M17.0048 15.7381V10.7742L17.0722 10.658L18.6982 7.86211C18.7 7.85868 18.6997 7.85336 18.6933 7.84941L17.2558 7.02422L17.0048 6.88066V3.69316C17.0048 3.3763 16.7451 3.11316 16.4179 3.11309H10.6298L10.5146 3.04766L8.16596 1.7V2.5457H7.16596V1.13262C7.16596 0.891841 7.2951 0.669826 7.50287 0.550586L7.58295 0.511523C7.74611 0.444785 7.92958 0.444669 8.09272 0.511523L8.17182 0.550586L10.8964 2.11309H16.4179C17.2911 2.11316 18.0048 2.81769 18.0048 3.69316V6.30059L19.1904 6.98125C19.6753 7.25976 19.8445 7.87959 19.5624 8.36504L18.0048 11.0418V15.7381C18.0048 16.6136 17.2911 17.3181 16.4179 17.3182H15.5595V16.3182H16.4179C16.7451 16.3181 17.0048 16.055 17.0048 15.7381ZM12.9706 7.11309V11.8631H7.16596V7.11309H12.9706ZM8.16596 10.8631H11.9706V8.11309H8.16596V10.8631ZM12.9706 18.2996C12.9705 18.5403 12.8414 18.7615 12.6337 18.8807C12.4266 18.9994 12.1719 18.9995 11.9648 18.8807L9.24115 17.3182H3.71869C2.84567 17.3179 2.13275 16.6135 2.13275 15.7381V13.032L0.946231 12.3514C0.713289 12.2177 0.542622 11.9971 0.472599 11.7371C0.402616 11.4771 0.438792 11.2001 0.574161 10.9676L2.13275 8.28594V3.69316C2.13275 2.81778 2.84567 2.11331 3.71869 2.11309H4.57709V3.11309H3.71869C3.39162 3.1133 3.13276 3.37638 3.13276 3.69316V8.55645L3.0644 8.67363L1.4394 11.4705C1.43809 11.4727 1.43693 11.4753 1.43744 11.4773C1.43799 11.4794 1.43988 11.4821 1.4433 11.4842L3.13276 12.4529V15.7381C3.13276 16.0549 3.39162 16.3179 3.71869 16.3182H9.50678L9.62201 16.3846L11.9706 17.7313V16.659H12.9706V18.2996Z" fill="white"/>
</svg>