<svg width="16" height="16" viewBox="0 0 16 16" fill="none" xmlns="http://www.w3.org/2000/svg">
<path d="M8.7168 8.95898L9 8C7.97064 7.69531 6.80597 7.15997 5.91632 6.4422C6.97504 5.31732 7.64752 4.05048 8 3H9V2H5.57202L4.19824 0.551758L3.47363 1.23926L4.19525 2H1V3H2C2.40399 4.03778 3.23175 5.33002 4.41791 6.47729C3.57691 7.1737 2.2269 7.69506 1.009 8L1.25119 8.9707C2.6799 8.61273 4.20752 7.98364 5.17536 7.15228C6.17493 7.97503 7.49213 8.59674 8.7168 8.95898ZM3.08777 3H6.94019C6.59925 3.87573 6.0199 4.8764 5.16468 5.77728C4.2085 4.86364 3.50006 3.85528 3.08777 3ZM14.0185 15.9951L14.9287 15.5791L11 7.5L7 15.5723L7.9043 16L8.80268 14H13.1085L14.0185 15.9951ZM9.2746 13L11 9.5L12.6523 13H9.2746Z" fill="black"/>
</svg>
