<svg width="16" height="16" viewBox="0 0 16 16" fill="none" xmlns="http://www.w3.org/2000/svg">
<path d="M6.97949 4.29492C7.60707 5.99199 7.92075 6.84067 8.54004 7.45996C9.15933 8.07925 10.008 8.39293 11.7051 9.02051L13 9.5L11.7051 9.97949C10.008 10.6071 9.1584 10.9207 8.54004 11.54L8.42773 11.6592C7.8814 12.2689 7.56781 13.1142 6.97949 14.7051L6.5 16L6.02051 14.7051C5.43219 13.1142 5.11926 12.2682 4.57227 11.6592L4.45996 11.54C3.84067 10.9217 2.99199 10.6071 1.29492 9.97949L0 9.5L1.29492 9.02051C2.88589 8.43216 3.7311 8.11931 4.34082 7.57227L4.45996 7.45996C5.07925 6.84067 5.39293 5.99199 6.02051 4.29492L6.5 3L6.97949 4.29492ZM6.5 6.08398C6.14219 6.97141 5.78516 7.66796 5.22656 8.22656C4.66796 8.78516 3.97141 9.14219 3.08398 9.5C3.97153 9.85806 4.66714 10.2158 5.22559 10.7734C5.78436 11.3314 6.1423 12.0278 6.5 12.915C6.85794 12.0279 7.216 11.3327 7.77344 10.7744C8.33141 10.2156 9.02779 9.8577 9.91504 9.5C9.02802 9.1423 8.33186 8.78498 7.77344 8.22656C7.21484 7.66796 6.85781 6.97141 6.5 6.08398ZM13.5059 0.463867C13.7306 1.07364 13.844 1.37912 14.0664 1.60156C14.2878 1.82279 14.5919 1.9362 15.1992 2.16113H15.2012L15.667 2.33301L15.2021 2.50586C14.5924 2.73061 14.2879 2.84398 14.0654 3.06641C13.8438 3.28806 13.7304 3.5925 13.5049 4.20215L13.333 4.66699L13.1611 4.20215C12.9364 3.59244 12.823 3.28787 12.6006 3.06543C12.3791 2.84399 12.0745 2.73095 11.4668 2.50586L11.4648 2.50488L11 2.33301L11.4639 2.16113C12.0736 1.93635 12.3791 1.82303 12.6016 1.60059C12.8232 1.37893 12.9356 1.07355 13.1611 0.463867L13.333 0L13.5059 0.463867Z" fill="black"/>
</svg>
