<svg xmlns="http://www.w3.org/2000/svg" viewBox="0 0 48 48"><path d="M41.943 6.973l-.006-.637a2.097 2.097 0 0 0-.628-1.133L38.797 2.69a2.118 2.118 0 0 0-3.024-.052L9.258 29.154l-3.606 8.341a.644.644 0 0 0 .013.53.824.824 0 0 0 .246.6 3.12 3.12 0 0 0 2.117.4l.326-.002c.684 0 2.188-.058 3.78-.12 1.841-.072 3.928-.154 5.018-.154a4.129 4.129 0 0 1 .95.082c-.032.064-.072.134-.101.186a1.563 1.563 0 0 0-.266.761.772.772 0 0 0 .235.556c.547.545 2.084.637 6.118.637.891 0 1.905-.004 3.056-.01 1.418-.006 3.03-.013 4.856-.013v-.8c-1.827 0-3.44.007-4.86.014-5.003.023-8.304.037-8.605-.384a1.136 1.136 0 0 1 .162-.367 1.478 1.478 0 0 0 .252-.712c0-.664-.96-.75-1.797-.75-1.106 0-3.2.082-5.05.154-1.583.062-3.08.12-3.748.12l-.333.003a8.947 8.947 0 0 1-1.14-.04l7.911-3.39L41.308 8.28a2.349 2.349 0 0 0 .635-1.307zm-28.08 27.35l-3.535 1.516-2.167-2.168 1.515-3.534zm-3.756-4.886l19.87-19.872 4.458 4.457-19.872 19.871zM30.543 9l1.446-1.446 4.457 4.457L35 13.457zm2.011-2.011l.937-.937 4.457 4.457-.937.937zM7.822 34.462l1.715 1.716-3.002 1.287zM40.743 7.714l-2.23 2.23-4.456-4.458 2.281-2.281a1.313 1.313 0 0 1 1.894.052l2.51 2.51a1.379 1.379 0 0 1 .401.637l.005.505a1.554 1.554 0 0 1-.405.805z"/></svg>