<?xml version="1.0" encoding="UTF-8"?><svg id="icons" xmlns="http://www.w3.org/2000/svg" viewBox="0 0 20 20"><path d="m11.78119,1.22327l-6.33453,2.78888c-.27142.11951-.44666.38812-.44666.68475v4.96301c.30334-.26788.63586-.49182,1-.6485v-3.77686l5.64709,2.48315.35291.15521v7.90723l-1.69019-.7431c-.04388.04846-.07721.10394-.12378.15045l-.61542.61523,2.92938,1.28998,7.5-3.29816v-.6156l-5.56445-2.06757,5.56445-2.44653v-.58954l-2.13721-.93958-1.07391.62,1.39716.61432-5.18604,2.27795v-2.77515l7-3.07812v-.5896L12.5.90717l-.71881.3161Zm6.31647,12.3158l-5.09766,2.24109v-4.13037l5.09766,1.88928Zm-5.59766-6.53906l-1.28864-.56659-3.82172-1.6803c-.1004-.04419-.16522-.14343-.16522-.25311s.06482-.20898.16522-.25311l4.02435-1.76941,1.086-.47748,5.68604,2.5-5.68604,2.5Zm-8.39459,11.01569c.3678.14777.75659.23248,1.15601.25842l-.99365.99365c-.45245.45245-1.07739.73224-1.76776.73224C1.11926,20,0,18.88068,0,17.5,0,16.80963.27985,16.18469.73224,15.73224l.82367-.82367,1.17633-1.17633c.45239-.45239,1.07739-.73224,1.76776-.73224.76276,0,1.43726.34888,1.89581.88739l-.70758.70758c-.27429-.35913-.70245-.59497-1.18823-.59497-.40088,0-.77734.15576-1.06055.43945l-1.17639,1.17639-.8241.8241c-.2832.28271-.43896.65918-.43896,1.06006,0,.82715.67285,1.5,1.5,1.5.40088,0,.77734-.15576,1.06055-.43945l.54486-.54486Zm5.16235-3.74792l-2,2c-.45245.45245-1.07739.73224-1.76776.73224-.74176,0-1.40082-.32935-1.85864-.84235l.70758-.70758c.27539.33301.68622.54993,1.15106.54993.40088,0,.77734-.15576,1.06055-.43945l2.00049-2.00049c.2832-.28271.43896-.65918.43896-1.06006,0-.112-.01392-.22046-.03772-.32507-.00476-.0213-.01355-.04089-.01923-.06189-.02344-.08508-.05096-.16858-.08856-.24689-.00629-.01349-.01447-.02588-.02124-.03912-.04419-.08539-.0943-.16724-.15344-.24225-.00305-.00391-.00641-.00763-.00952-.01154-.0658-.08173-.13922-.15717-.22009-.22418-.25952-.21466-.58783-.34906-.9502-.34906-.40088,0-.77734.15576-1.06055.43945l-.5495.5495c-.36658-.14844-.7533-.23615-1.15228-.26215l.99457-.99457c.45239-.45239,1.07739-.73224,1.76776-.73224.63898,0,1.2157.24695,1.65765.64136h0l.00012.00012c.12848.11469.2453.2403.34784.37903.00006.00006.00012.00006.00018.00018.09521.12885.17743.2663.24683.41241.00659.01361.0152.02588.02155.03967.05988.13226.10498.27142.1413.41473.00745.02887.0199.05542.02631.08466.03668.17041.05823.34644.05823.52783,0,.69031-.27985,1.31537-.73224,1.76776Z" style="fill:currentColor; stroke-width:0px;"/></svg>