<?xml version="1.0" encoding="UTF-8"?><svg id="Icons" xmlns="http://www.w3.org/2000/svg" viewBox="0 0 32 32"><rect x="0" y="1" width="14" height="12" style="fill:#3b8fc4;"/><rect x="1" y="2" width="12" height="10" style="fill:#d3eaf9;"/><rect x="16" y="1" width="14" height="12" style="fill:#3b8fc4;"/><rect x="17" y="2" width="12" height="10" style="fill:#fbe2c3;"/><rect x="3" y="14" width="8" height="1" style="fill:#3b8fc4;"/><rect x="0" y="17" width="14" height="12" style="fill:#3b8fc4;"/><rect x="1" y="18" width="12" height="10" style="fill:#e6e2f0;"/><rect x="3" y="30" width="8" height="1" style="fill:#3b8fc4;"/><path d="M1,7s3,1,4-2,2-1,4,0-1,2,0,3,3-1,3,0,1,1,1,1V2H1v5Z" style="fill:#bddbee;"/><path d="M1,10s1-1,3,0,5,0,5,2H1v-2Z" style="fill:#bddbee;"/><path d="M18,2s0,3,3,3,3,3,5,3,3,2,3,2V2h-11Z" style="fill:#f7cb93;"/><path d="M9,28H1v-9c2.31,0,4.79999,1.15997,4.98999,3.67999.42999.15997.94.41998,1.41998.90997,1.51001,1.51001,1.59003,3.94,1.59003,4.41003Z" style="fill:#c5bddd;"/><path d="M8,28H1v-8c1.38,0,4,.63,4,3,0,.22998.02002.37.03003.45001.03998.00995.06995.01996.10999.02997.37.08002.97998.22998,1.57001.81,1.25,1.26001,1.28998,3.46002,1.28998,3.71002Z" style="fill:#e6e2f0;"/><path d="M7,28H1v-7s3,0,3,2,1,1,2,2,1,3,1,3Z" style="fill:#c5bddd;"/><path d="M7,18s-1,3,2,3,4,2,4,2v-5h-6Z" style="fill:#c5bddd;"/><path d="M25.96002,12h-1c-.09003-.75-.32001-1.67999-.75-1.98004-.10004-.06995-.26001-.13995-.55005-.04999-2.33997.78003-4.06995.41003-4.91998-.20996-.47998-.34003-.73999-.79004-.73999-1.26001,0-1.92999-.33002-3.04004-1-3.38v-1.06c1.33002.27997,2,1.76996,2,4.44,0,.14001.12.31.32001.45001.62.44995,2.03998.72998,4.02002.07996.66998-.21997,1.14996-.02997,1.44.17004.84998.58997,1.10999,2.01996,1.17999,2.79999Z" style="fill:#f7cb93;"/><path d="M22.25,15c-.68751,0-1.25.5625-1.25,1.25v.75h7v7h.75c.68749,0,1.25-.5625,1.25-1.25v-6.5c0-.6875-.56251-1.25-1.25-1.25h-6.5Z" style="fill:#50ad4e;"/><path d="M31.75,28.5l-3.4246-3.12037c-.17897-.2088-.3254-.15463-.3254.12037v1.5h-10v-6h6v3.33333c0,.6875-.41465,1.1301-.92144,1.59466l-.07856.07201h1.75c.68749,0,1.25-.5625,1.25-1.25v-4.5c0-.6875-.56251-1.25-1.25-1.25h-7.5c-.68751,0-1.25.5625-1.25,1.25v8.5c0,.6875.56249,1.25,1.25,1.25h10.75v1.5c0,.275.14643.32917.3254.12037l3.4246-3.12037Z" style="fill:#50ad4e;"/></svg>