<?xml version="1.0" encoding="UTF-8"?><svg id="Icons" xmlns="http://www.w3.org/2000/svg" viewBox="0 0 16 16"><rect x="0" y="9" width="6" height="5" style="fill:#3b8fc4;"/><path d="M10,8.00004v-.2564c0-.4107.33294-.74365.74365-.74365h3.5127c.4107,0,.74365.33295.74365.74365v2.5127c0,.4107-.33295.74365-.74365.74365h-.25637v-2.7501c.00001-.13802-.11188-.2499-.2499-.2499l-3.75009.00004ZM15.98043,13.95806l-1.86581-1.78785c-.02108-.01706-.05008-.02049-.07455-.00881s-.04006.03638-.04006.06349v.77509l-4.552-.00021c-.24739,0-.44793-.20054-.44793-.44792v-2.30199c-.00001-.138.11186-.24988.24987-.24988h2.5159c.13799,0,.24984.11189.24978.24988l-.00087.86672c-.00009.22814-.09668.44558-.26589.59859l-.31523.28504,1.20816-.00024c.19785-.00003.35822-.16044.35822-.35827v-1.89808c0-.41071-.33295-.74365-.74366-.74365h-3.51268c-.41071,0-.74366.33293-.74366.74365v4.51266c0,.41071.33295.74365.74366.74365l5.25634-.00094v.78133c0,.02711.01558.05183.04006.06349.02448.01168.05348.00825.07455-.00881l1.86581-1.79495c.01239-.01002.01957-.02508.01957-.041,0-.01594-.00719-.031-.01957-.04102Z" style="fill:#50ad4e;"/><rect x="0" width="6" height="5" style="fill:#3b8fc4;"/><rect x="1" y="6" width="4" height="1" style="fill:#3b8fc4;"/><rect x="1" y="15" width="4" height="1" style="fill:#3b8fc4;"/><rect x="1" y="1" width="4" height="3" style="fill:#d3eaf9;"/><rect x="8" width="6" height="5" style="fill:#3b8fc4;"/><rect x="9" y="1" width="4" height="3" style="fill:#fbe2c3;"/><rect x="1" y="10" width="4" height="3" style="fill:#e6e2f0;"/><rect x="9" y="3" width="1" height="1" style="fill:#f7cb93;"/><path d="M1,3s3-1,3-2H1v2Z" style="fill:#bddbee;"/><path d="M9,1s1,1,2,1,2,2,2,2V1h-4Z" style="fill:#f7cb93;"/><path d="M4,13H1v-3c1.21002,0,3,.79999,3,3Z" style="fill:#c5bddd;"/><path d="M1,11s2,0,2,2H1v-2Z" style="fill:#e6e2f0;"/><rect x="1" y="12" width="1" height="1" style="fill:#c5bddd;"/></svg>