<?xml version="1.0" encoding="UTF-8"?><svg id="Icons" xmlns="http://www.w3.org/2000/svg" viewBox="0 0 32 32"><path d="m20,6V1H3.01044C1.34784,1,0,2.34784,0,4.01044v19.97913c0,1.6626,1.34784,3.01044,3.01044,3.01044h18.98956V6h-2Z" style="fill:#49b0f2; stroke-width:0px;"/><rect x="2" y="2" width="1" height="19" style="fill:#bddbee; stroke-width:0px;"/><path d="m21,13.13904v-7.13904h-1v7.0802c-.02454-.00018-.04352-.00403-.06836-.00403-1.82031,0-3.94141.41797-5.23633.83203-3.91602,1.25293-6.68066,3.75684-7.39648,6.69922-.11353.46631-.16107.93103-.17053,1.39258H3c-1.10461,0-2,.89539-2,2s.89539,2,2,2h5.44452c.24634.33746.51379.66827.82697.98242.00616.00616.01379.01141.01996.01758h12.70856v-13.66821c-.30206-.0863-.63654-.14941-1-.19275Z" style="fill:#f8f8f8; stroke-width:0px;"/><path d="m31.46313,21.24609c-1.18551-2.17848-6.32307-.92914-8.53931-2.06177-.19629-.10034-.17358-.38672.10693-1.33228.36396-1.23058.6133-2.45987-.5304-3.23108-1.57546-1.06203-5.67902-.34308-7.50037.23956-6.65668,2.12938-8.81334,7.60994-5.01953,11.4173,2.41543,2.42567,6.3928,3.39802,9.84229,3.32007,4.92773-.10474,10.00122-2.27783,11.55029-4.94678.65552-1.12939.68628-2.30713.09009-3.40503Z" style="fill:#6e6e6e; stroke-width:0px;"/><path d="m19.43604,28.60108c-3.58789,0-6.85791-1.13184-8.74707-3.0293-1.03613-1.03906-1.58154-2.24902-1.57666-3.49902.01318-3.7041,4.93701-6.90723,10.75146-6.99512l.16162-.00098c1.13086,0,1.85498.19727,2.14502.58594.30908.41406.1543,1.05078-.09814,1.9043-.26465.8916-.59424,2,.39551,2.50684,1.08594.55566,2.68994.63281,4.24121.70898,1.70117.08203,3.4541.16602,3.87549.94043.42676.78613.40137,1.60254-.07617,2.42578-1.36768,2.35645-6.17041,4.35254-10.70703,4.44922l-.36523.00293Z" style="fill:#efefef; stroke-width:0px;"/><path d="m29.6803,20.09271c-.8418-.20575-1.86346-.258-2.91785-.30927-.80969-.03894-1.62323-.08673-2.34979-.19427l-1.93317,1.39325-6.41846,5.22949c-.0752.06128-.12463.13953-.17712.21552-1.14453.04419-2.31873.68365-2.53076,2.01337,1.55524.646,3.34674,1.03687,5.24384,1.12701.04492-.02509.09534-.03876.13593-.07172l6.46631-5.26953,4.48108-4.13385Z" style="fill:#f8f8f8; stroke-width:0px;"/><path d="m31.41887,16.4195c-.20281-.24691-.53653-.28125-.78612-.0809l-7.52148,5.41883-6.41855,5.22993,1.40902,1.73322,6.41997-5.22903,6.81618-6.28519c.24983-.20259.28409-.53556.08098-.78687Z" style="fill:#6e6e6e; stroke-width:0px;"/><rect x="14" y="23" width="3" height="3" rx="1.14996" ry="1.14996" style="fill:#c96b4b; stroke-width:0px;"/><path d="m17.48817,29.15678l-1.43879-1.73772s-1.7339-.07236-1.74078,1.43998c-.00815,1.49608-1.8086,2.46382-1.8086,2.46382.03186.01941,1.51218.90295,3.35927.0681,1.46717-.66261,1.6289-2.23418,1.6289-2.23418Z" style="fill:#a67a47; stroke-width:0px;"/><rect width="32" height="32" style="fill:none; stroke-width:0px;"/><rect x="16" y="17" width="3" height="3" rx="1.14996" ry="1.14996" style="fill:#9bc29c; stroke-width:0px;"/><rect x="11" y="19" width="3" height="3" rx="1.14996" ry="1.14996" style="fill:#57a6d9; stroke-width:0px;"/></svg>