<?xml version="1.0" encoding="UTF-8"?><svg id="Icons" xmlns="http://www.w3.org/2000/svg" viewBox="0 0 32 32"><path d="M31,27.66667s-6-3-15,0-15,0-15,0L5,3.88889s6,2,11,0,11,0,11,0l4,23.77778Z" style="fill:#e5d255;"/><circle cx="15.5" cy="21.5" r="7.5" style="fill:#f4eec8;"/><circle cx="15.5" cy="21.5" r="6.5" style="fill:#449443;"/><circle cx="15.5" cy="21.5" r="5.5" style="fill:#50ad4e;"/><path d="M27.02264,26.78857c1.32886-.45038,2.51788-1.06738,3.49323-1.80438l-1.28809-7.72852c-.70691-.16388-1.48828-.25568-2.33911-.25568-1.12207,0-2.28418.15039-3.45312.44629-4.62109,1.16943-7.70117,4.21436-7.01367,6.93213.30518,1.20526,1.28638,2.12701,2.72668,2.66772,3.19177-.64868,5.8714-.55975,7.87408-.25757Z" style="fill:#f4eec8;"/><ellipse cx="24.66241" cy="22.29315" rx="7.5" ry="4" transform="translate(-4.71545 6.73165) rotate(-14.2012)" style="fill:#a67032;"/><path d="M25.3984,25.20147c-3.71303.93962-6.68924.06189-7.03734-1.31369s1.85235-3.56333,5.56538-4.50295,6.68924-.06189,7.03734,1.31369-1.85235,3.56333-5.56538,4.50295Z" style="fill:#bf813a;"/><path d="M28.87665,27.16382c-.6593-2.39111-4.0968-4.16382-8.37665-4.16382-4.7666,0-8.5,2.19629-8.5,5,0,.29413.04999.57965.12903.85858,1.21753-.21039,2.5047-.51428,3.87097-.96973,5.82373-1.94122,10.37805-1.36987,12.87665-.72504Z" style="fill:#f4eec8;"/><ellipse cx="20.5" cy="28" rx="7.5" ry="4" style="fill:#419ed9;"/><path d="M20.5,31c-3.83008,0-6.5-1.58105-6.5-3s2.66992-3,6.5-3,6.5,1.58105,6.5,3-2.66992,3-6.5,3Z" style="fill:#6db5e3;"/><rect width="32" height="32" style="fill:none;"/></svg>