<?xml version="1.0" encoding="UTF-8"?><svg id="Icons" xmlns="http://www.w3.org/2000/svg" viewBox="0 0 16 16"><path d="M16,14.28907s-3.20021-1.6016-8,0c-4.79981,1.5996-8,0-8,0L2.13279,1.48827s3.20121,1.0664,5.86721,0,5.86719,0,5.86719,0l2.13281,12.8008Z" style="fill:#e5d255;"/><circle cx="6" cy="10" r="5" style="fill:#f4eec8;"/><circle cx="6" cy="10" r="4" style="fill:#449443;"/><circle cx="6" cy="10" r="3" style="fill:#50ad4e;"/><path d="M14.64069,6.1308c-.35919-.08423-.75-.1308-1.17194-.1308-1.02148,0-2.12891.25293-3.20215.73193-2.86328,1.27734-4.41016,3.61475-3.59668,5.43701.4519,1.01263,1.53656,1.6106,2.98944,1.6748.76715-.15729,1.47614-.23224,2.12537-.25488.44489-.11877.89178-.26752,1.33344-.46484.93768-.41754,1.77142-.97748,2.41852-1.61578l-.896-5.37744Z" style="fill:#f4eec8;"/><ellipse cx="11.69238" cy="9.92826" rx="4.5" ry="2.5" transform="translate(-3.03065 5.62543) rotate(-24.04422)" style="fill:#a67032;"/><path d="M12.30355,11.29811c-2.0622.92006-3.65528.39732-3.80747.0562s.52294-1.87583,2.58515-2.79589,3.65528-.39732,3.80747-.0562-.52294,1.87583-2.58515,2.79589Z" style="fill:#bf813a;"/><path d="M8,14.28906c3.1615-1.05493,5.62128-.72003,6.93738-.36859.02435-.1394.06262-.27545.06262-.42047,0-1.99512-2.36426-3.5-5.5-3.5s-5.5,1.50488-5.5,3.5c0,.53503.18103,1.03021.49036,1.47516,1.0332-.05933,2.21014-.25305,3.50964-.6861Z" style="fill:#f4eec8;"/><ellipse cx="9.5" cy="13.5" rx="4.5" ry="2.5" style="fill:#419ed9;"/><path d="M9.5,15c-2.25814,0-3.5-1.12646-3.5-1.5s1.24186-1.5,3.5-1.5,3.5,1.12646,3.5,1.5-1.24186,1.5-3.5,1.5Z" style="fill:#6db5e3;"/><rect width="16" height="16" style="fill:none;"/></svg>