<?xml version="1.0" encoding="UTF-8"?><svg id="Icons" xmlns="http://www.w3.org/2000/svg" viewBox="0 0 16 16"><g><polygon points="3 14 3 13 4 13 4 9 3 9 3 6.70599 4.29297 8 5 7.29297 2.51709 4.80859 2.5 4.82568 2.48291 4.80859 0 7.29297 .70703 8 2 6.70599 2 9 0 9 0 13 2 13 2 15 7.92188 15 6.92188 14 3 14" style="fill:#6e6e6e;"/><polygon points="11 2 11 0 7 0 7 2 2 2 2 4 3 4 3 3 7 3 7 4 11 4 11 3 14 3 14 6.92188 15 7.92188 15 2 11 2" style="fill:#6e6e6e;"/></g><rect x="1" y="10" width="2" height="2" style="fill:#f8f8f8;"/><rect x="8" y="1" width="2" height="2" style="fill:#f8f8f8;"/><rect x="0" width="16" height="16" style="fill:none;"/><path d="M10,3h-2V1h2V3ZM3,10H1v2h2v-2Z" style="fill:#cdebfb;"/><path d="M14.96243,10.0054c.01294-.00049,.02451-.0054,.03757-.0054,.55228,0,1,.44769,1,1,0,.34982-.17966,.65771-.45172,.83643-.05951,.03906-.13797,.03091-.18829-.01941l-.42404-.42404-.8338-.8338-2.7486-2.7486c-.19525-.19525-.51184-.19525-.70709,0l-2.0441,2.0441c-.05859,.05859-.15356,.05859-.21216,0l-.49487-.4949c-.05859-.05856-.05859-.15353,0-.21213l2.10554-2.10554c-.02345-.57148,.43289-1.0421,.99914-1.0421s1.02258,.47063,.99914,1.0421l2.9633,2.9633Zm-4.96157,4.9525c-.02345,.57144,.43289,1.0421,.99913,1.0421s1.02258-.47066,.99914-1.0421l2.1233-2.12333c.05859-.05856,.05859-.15353,0-.21213l-.49487-.4949c-.05859-.05856-.15356-.05856-.21216,0l-2.06186,2.06189c-.19525,.19525-.51184,.19525-.70709,0l-2.7486-2.7486-1.25784-1.25784c-.05032-.05035-.12878-.0585-.18829-.01941-.27206,.17871-.45172,.48657-.45172,.83643,0,.55228,.44772,1,1,1,.01306,0,.02463-.00491,.03757-.0054l2.9633,2.9633Zm1.17592-2.72047l1.06064-1.06067c.09766-.09763,.09766-.25592,0-.35355l-1.06064-1.06067c-.09766-.09763-.25592-.09763-.35358,0l-1.06064,1.06067c-.09766,.09763-.09766,.25592,0,.35355l1.06064,1.06067c.09766,.09763,.25592,.09763,.35358,0Z" style="fill:#aa40d6;"/></svg>