<?xml version="1.0" encoding="UTF-8"?><svg id="Icons" xmlns="http://www.w3.org/2000/svg" viewBox="0 0 32 32"><g><polygon points="5 27 5 24 8 24 8 18 5 18 5 11.70703 7.64648 14.35352 8.35352 13.64648 4.5 9.79297 .64648 13.64648 1.35352 14.35352 4 11.70703 4 18 2 18 2 24 4 24 4 28 15.96484 28 14.96484 27 5 27" style="fill:#6e6e6e;"/><polygon points="22 4 22 2 16 2 16 4 4 4 4 8 5 8 5 5 16 5 16 8 22 8 22 5 27 5 27 14.96484 28 15.96484 28 4 22 4" style="fill:#6e6e6e;"/></g><rect x="17" y="3" width="4" height="4" style="fill:#f8f8f8;"/><rect x="3" y="19" width="4" height="4" style="fill:#f8f8f8;"/><rect width="32" height="32" style="fill:none;"/><rect width="32" height="32" style="fill:none;"/><path d="M7,23H3v-4H7v4Z" style="fill:#cdebfb;"/><rect x="17" y="3" width="4" height="4" style="fill:#cdebfb;"/><path d="M29.92487,20.0108c.02588-.00098,.04901-.0108,.07513-.0108,1.10455,0,2,.89539,2,2,0,.69965-.35931,1.31543-.90344,1.67285-.11902,.07812-.27594,.06183-.37659-.03882l-.84808-.84808-1.6676-1.6676-5.49719-5.49719c-.3905-.3905-1.02368-.3905-1.41418,0l-4.0882,4.0882c-.11719,.11719-.30713,.11719-.42432,0l-.98975-.98981c-.11719-.11713-.11719-.30707,0-.42426l4.21108-4.21108c-.04689-1.14296,.86578-2.08421,1.99827-2.08421s2.04516,.94125,1.99827,2.08421l5.9266,5.9266Zm-9.92313,9.90499c-.0469,1.14289,.86578,2.08421,1.99827,2.08421s2.04517-.94132,1.99827-2.08421l4.2466-4.24666c.11719-.11713,.11719-.30707,0-.42426l-.98975-.98981c-.11719-.11713-.30713-.11713-.42432,0l-4.12372,4.12378c-.3905,.3905-1.02368,.3905-1.41418,0l-5.49719-5.49719-2.51569-2.51569c-.10065-.10071-.25757-.117-.37659-.03882-.54413,.35742-.90344,.97314-.90344,1.67285,0,1.10455,.89545,2,2,2,.02612,0,.04926-.00983,.07513-.0108l5.9266,5.9266Zm2.35185-5.44094l2.12128-2.12134c.19531-.19525,.19531-.51184,0-.70709l-2.12128-2.12134c-.19531-.19525-.51184-.19525-.70715,0l-2.12128,2.12134c-.19531,.19525-.19531,.51184,0,.70709l2.12128,2.12134c.19531,.19525,.51184,.19525,.70715,0Z" style="fill:#aa40d6;"/></svg>