<svg width="32" height="32" viewBox="0 0 32 32" fill="none" xmlns="http://www.w3.org/2000/svg">
<g clip-path="url(#clip0_8165_33)">
<g clip-path="url(#clip1_8165_33)">
<path d="M17.989 17.01L15.661 19.339L13.368 17.046L15.697 14.718L14.989 14.01L12.661 16.339L11.343 15.021L8.455 17.908C8.02487 18.3417 7.74198 18.8997 7.64633 19.503C7.55068 20.1064 7.64712 20.7245 7.922 21.27L7.454 21.738C7.17298 22.0196 7.01515 22.4012 7.01515 22.799C7.01515 23.1968 7.17298 23.5784 7.454 23.86L7.808 24.214L5 27.021L5.707 27.728L8.515 24.921L8.868 25.274C9.00715 25.4135 9.17244 25.5241 9.35442 25.5996C9.5364 25.6751 9.73148 25.714 9.9285 25.714C10.1255 25.714 10.3206 25.6751 10.5026 25.5996C10.6846 25.5241 10.8499 25.4135 10.989 25.274L11.458 24.806C11.868 25.01 12.31 25.125 12.758 25.125C13.504 25.125 14.251 24.841 14.82 24.272L17.707 21.385L16.368 20.045L18.697 17.718L17.989 17.01ZM10.283 24.567C10.1892 24.6607 10.0621 24.7134 9.9295 24.7134C9.79692 24.7134 9.66976 24.6607 9.576 24.567L8.161 23.154C8.0672 23.0601 8.01452 22.9327 8.01452 22.8C8.01452 22.6673 8.0672 22.5399 8.161 22.446L8.514 22.093L10.636 24.215L10.282 24.568L10.283 24.567ZM14.113 23.565C13.7532 23.9233 13.266 24.1246 12.7582 24.1248C12.2504 24.125 11.7631 23.9241 11.403 23.566L9.16 21.322C8.80286 20.9619 8.60271 20.4751 8.60328 19.9679C8.60384 19.4607 8.80506 18.9743 9.163 18.615L9.93 17.849L14.88 22.799L14.113 23.565ZM15.587 22.092L10.637 17.142L11.344 16.435L16.294 21.385L15.587 22.092ZM24.878 8.514L27.686 5.707L26.979 5L24.171 7.807L23.818 7.454C23.5363 7.17353 23.155 7.01606 22.7575 7.01606C22.36 7.01606 21.9787 7.17353 21.697 7.454L21.228 7.922C20.6825 7.64694 20.0642 7.5505 19.4608 7.64634C18.8574 7.74218 18.2995 8.02544 17.866 8.456L14.979 11.343L21.343 17.707L24.231 14.82C24.6613 14.3862 24.9444 13.828 25.04 13.2245C25.1357 12.621 25.0391 12.0026 24.764 11.457L25.232 10.99C25.513 10.7084 25.6709 10.3268 25.6709 9.929C25.6709 9.53117 25.513 9.14959 25.232 8.868L24.878 8.514ZM22.404 8.161C22.4978 8.06726 22.6249 8.01461 22.7575 8.01461C22.8901 8.01461 23.0172 8.06726 23.111 8.161L24.525 9.575C24.6188 9.66893 24.6715 9.79625 24.6715 9.929C24.6715 10.0617 24.6188 10.1891 24.525 10.283L24.172 10.636L22.05 8.514L22.404 8.161ZM16.393 11.343L17.1 10.636L22.05 15.586L21.343 16.293L16.393 11.343ZM23.523 14.113L22.757 14.879L17.807 9.929L18.573 9.163C18.9328 8.80466 19.42 8.60338 19.9278 8.6032C20.4356 8.60301 20.9229 8.80392 21.283 9.162L23.527 11.406C23.8841 11.7661 24.0843 12.2529 24.0837 12.7601C24.0832 13.2673 23.8809 13.7537 23.523 14.113Z" fill="black"/>
</g>
</g>
<defs>
<clipPath id="clip0_8165_33">
<rect width="32" height="32" fill="white"/>
</clipPath>
<clipPath id="clip1_8165_33">
<rect width="22.69" height="22.73" fill="white" transform="translate(5 5)"/>
</clipPath>
</defs>
</svg>
