<svg width="16" height="16" viewBox="0 0 16 16" fill="none" xmlns="http://www.w3.org/2000/svg">
<g clip-path="url(#clip0_8165_20)">
<g clip-path="url(#clip1_8165_20)">
<g clip-path="url(#clip2_8165_20)">
<path d="M9.366 9.247L8.653 8.546L6.88 10.346L5.56 9.026L7.36 7.253L6.66 6.54L4.853 8.32L3.744 7.21L2.38 8.575C1.9732 8.98335 1.71934 9.51926 1.66107 10.0927C1.6028 10.6661 1.74366 11.2422 2.06 11.724L1.316 12.468C1.12853 12.6555 1.02321 12.9098 1.02321 13.175C1.02321 13.4402 1.12853 13.6945 1.316 13.882L0 15.199L0.707 15.906L2.024 14.589C2.11672 14.6821 2.2269 14.7559 2.34823 14.8063C2.46955 14.8567 2.59963 14.8826 2.731 14.8826C2.86237 14.8826 2.99245 14.8567 3.11377 14.8063C3.2351 14.7559 3.34528 14.6821 3.438 14.589L4.182 13.845C4.59106 14.1144 5.07023 14.2576 5.56 14.257C5.88874 14.2579 6.21441 14.1936 6.5182 14.068C6.82199 13.9424 7.0979 13.7578 7.33 13.525L8.695 12.161L7.587 11.053L9.366 9.247ZM2.731 13.882L2.024 13.175L2.731 12.467L3.439 13.175L2.731 13.882ZM6.624 12.818C6.34156 13.0993 5.95915 13.2573 5.5605 13.2573C5.16185 13.2573 4.77944 13.0993 4.497 12.818L3.087 11.409C2.80567 11.1266 2.64772 10.7441 2.64772 10.3455C2.64772 9.94685 2.80567 9.56444 3.087 9.282L3.745 8.625L7.281 12.161L6.624 12.818ZM15.906 0.707L15.199 0L13.882 1.317C13.6945 1.12953 13.4402 1.02421 13.175 1.02421C12.9098 1.02421 12.6555 1.12953 12.468 1.317L11.724 2.061C11.2424 1.74411 10.6662 1.60292 10.0926 1.66121C9.51903 1.7195 8.98306 1.9737 8.575 2.381L7.111 3.846L12.061 8.795L13.525 7.331C13.9318 6.92265 14.1857 6.38674 14.2439 5.8133C14.3022 5.23986 14.1613 4.66383 13.845 4.182L14.589 3.438C14.7765 3.25047 14.8818 2.99616 14.8818 2.731C14.8818 2.46584 14.7765 2.21153 14.589 2.024L15.906 0.707ZM12.818 6.623L12.06 7.38L8.525 3.845L9.282 3.087C9.56444 2.80567 9.94685 2.64772 10.3455 2.64772C10.7441 2.64772 11.1266 2.80567 11.409 3.087L12.819 4.496C13.404 5.082 13.404 6.036 12.819 6.623H12.818ZM13.175 3.438L12.467 2.73L13.175 2.023L13.882 2.73L13.175 3.438Z" fill="black"/>
</g>
</g>
</g>
<defs>
<clipPath id="clip0_8165_20">
<rect width="16" height="16" fill="white"/>
</clipPath>
<clipPath id="clip1_8165_20">
<rect width="16" height="16" fill="white"/>
</clipPath>
<clipPath id="clip2_8165_20">
<rect width="15.91" height="15.91" fill="white"/>
</clipPath>
</defs>
</svg>
