<?xml version="1.0" encoding="UTF-8"?><svg id="Icons" xmlns="http://www.w3.org/2000/svg" viewBox="0 0 32 32"><defs><style>.cls-1{fill:none;}.cls-2{fill:#e5a894;}.cls-3{fill:#e5d255;}.cls-4{fill:#d9c44c;}.cls-5{fill:#fbe2c3;}.cls-6{fill:#f4eec8;}.cls-7{fill:#c7552e;}.cls-8{fill:#6e6e6e;}</style></defs><path class="cls-3" d="M31,28s-6-3-15,0-15,0-15,0L5,4s6,2,11,0,11,0,11,0l4,24Z"/><path class="cls-6" d="M28.11078,10.66455c-.03632.03143-.07648.05695-.11078.09131l-15.58594,15.58789c-.08984.08984-.16211.19629-.21191.31299l-1.03876,2.42377c-.86591-.3136-2.16339-1.12927-2.16339-2.9809,0-1.97266,1.64844-3.44824,3.39355-5.01025,1.28027-1.146,2.6001-2.32764,3.29883-3.80371,2.55615-1.07324,3.81494-3.0293,4.10742-3.53711.41357-.71777.1665-1.63525-.55127-2.04834-.71777-.4126-1.63574-.16602-2.04834.55127-.13574.23584-.59619.95459-1.47803,1.59814-.06445-.12305-.13672-.24219-.21631-.35742-.6582-.94824-1.75342-1.49219-3.00586-1.49219-2.39697,0-4.49,1.75244-4.49,3.75,0,.53906.20045,1.0459.58277,1.42676.69971.69775,1.7998.80664,2.74072.82178-.29932.28125-.61768.56641-.94092.85547-1.95703,1.75195-4.39258,3.93213-4.39258,7.24561,0,1.27563.34814,2.33136.88269,3.1922,1.28607.0733,2.7453.0462,4.37201-.17578-.00311-.00104-.00677-.00281-.00989-.00385,1.46625-.19891,3.05444-.54523,4.75519-1.11218,1.52069-.5069,2.9472-.83136,4.2821-1.03906l9.03864-9.0365-1.20996-7.25989Z"/><path class="cls-7" d="M18.06689,12.75049c-.21484.37256-1.11328,1.76709-2.94922,2.60303-.02539-.4668-.17188-.91357-.43359-1.29102-.4751-.68506-1.25098-1.0625-2.18408-1.0625-1.79883,0-3.5,1.33643-3.5,2.75,0,.27539.10352.52393.29883.71875.49854.49707,1.45312.52539,2.54932.53174l.15186-.00049c.59375,0,1.14453-.05322,1.6543-.14746-.58203.94482-1.56543,1.8252-2.59473,2.74658-1.90283,1.70361-4.05957,3.63428-4.05957,6.50049,0,3.59668,3.36969,4.83276,3.36969,4.83276l.40643-.91809c-1.24799-.47797-2.77612-1.70337-2.77612-3.91467,0-2.41943,1.89453-4.11523,3.72656-5.75537,1.37207-1.22803,2.66797-2.38818,3.21045-3.83789,2.5127-.90625,3.72559-2.78613,3.99609-3.25684l-.86621-.49902ZM12,16l-.15479.00049c-1.11719-.00879-1.73975-.08008-1.84521-.25049,0-.7876,1.15381-1.75,2.5-1.75.5957,0,1.07959.22461,1.3623.63232.21143.30469.2959.69189.24609,1.08887-.62012.17334-1.3208.27881-2.1084.27881Z"/><rect class="cls-8" x="26.11635" y="13.38303" width="2.99969" height="3.99954" transform="translate(-2.78869 24.03312) rotate(-45)"/><polygon class="cls-5" points="13.1211 27.0508 11 32 15.9492 29.8789 13.1211 27.0508"/><polygon class="cls-8" points="12.0771 29.4961 11 32 13.5137 30.9316 12.0771 29.4961"/><path class="cls-2" d="M31.7969,13.4258c-.0342-.2012-.1377-.3653-.291-.5176l-1.4141-1.4141c-.3916-.3925-.9941-.4218-1.3848-.0312l-1.4443,1.4453,2.8281,2.8281,1.4151-1.414c.1533-.1543.2587-.3789.291-.5782v-.3183Z"/><rect class="cls-4" x="12.04527" y="20.45433" width="17.00026" height="3.99954" transform="translate(-9.8599 21.10571) rotate(-45.00238)"/><rect class="cls-1" width="32" height="32"/></svg>