<?xml version="1.0" encoding="UTF-8"?><svg id="Icons" xmlns="http://www.w3.org/2000/svg" viewBox="0 0 16 16"><defs><style>.cls-1{fill:none;}.cls-2{fill:#e5a894;}.cls-3{fill:#e5d255;}.cls-4{fill:#d9c44c;}.cls-5{fill:#fbe2c3;}.cls-6{fill:#f4eec8;}.cls-7{fill:#c7552e;}.cls-8{fill:#6e6e6e;}</style></defs><path class="cls-3" d="M16,14.4004s-3.20021-1.6016-8,0c-4.79981,1.5996-8,0-8,0L2.13279,1.5996s3.20121,1.0664,5.86721,0,5.86719,0,5.86719,0l2.13281,12.8008Z"/><path class="cls-6" d="M11.89093,13.69507l3.41833-3.44049-.86951-5.21869c-.04956-.00366-.0976-.0144-.14777-.0144-.53418,0-1.03613.20801-1.41357.58545l-.2207.22021q-2.05811,2.05518-4.01611,4.05664l-1.37793,1.4082c-.16406.10254-.29736.25195-.37988.43262l-.59753,1.30469c-.05151-.02777-.09564-.06738-.15198-.08594-1.13428-.37305-1.13428-.89453-1.13428-1.06543,0-.95996.72998-1.4707,2.02197-2.29199.76904-.48926,1.62744-1.03613,2.24707-1.81689.71533-.19092,1.28516-.50732,1.7334-.96094.69141-.7002,1.01758-1.62451.99756-2.8252-.00928-.54541-.4541-.98291-1-.98291h-1c-.26807,0-.52539.10791-.71338.29932-.10352.10547-.18164.23145-.22949.36816-.72266-.64746-1.69434-.94482-2.47949-.94482-.01758,0-.12646.00244-.14404.00342-2.12695.11182-3.43311,1.99316-3.43311,3.29297,0,.35889.11523,1.34082,1.30518,1.77734-1.17383.86475-2.30566,2.07178-2.30566,4.08154,0,1.34009.63513,2.46313,1.7796,3.22913,1.1889.00189,2.612-.17065,4.2204-.70667,1.46118-.48755,2.77142-.6759,3.89093-.70532Z"/><path class="cls-2" d="M15.707,8.4004c.3907-.3906.3907-1.0234-.0009-1.4141l-.7071-.707c-.3906-.3906-1.0234-.3906-1.414,0l-.708.707,2.123,2.1231.707-.709Z"/><rect class="cls-8" x="11.86146" y="7.40799" width="2.43383" height="3.00142" transform="translate(-2.46814 11.86077) rotate(-45.0135)"/><polygon class="cls-4" points="13.2793 10.8301 11.1563 8.707 7.8135 12.125 9.916 14.2285 13.2793 10.8301"/><polygon class="cls-5" points="7.793 12.1055 6.0254 15.9648 9.916 14.2285 7.793 12.1055"/><polygon class="cls-8" points="7.9697 15.1113 6.9092 14.0508 6.0254 15.9648 7.9697 15.1113"/><rect class="cls-1" width="16" height="16"/><path class="cls-7" d="M5.50928,14.84277c-1.61816-.53125-2.50928-1.58496-2.50928-2.96484,0-2.10352,1.56543-3.09912,2.94629-3.97803.46436-.29541.91309-.58105,1.28125-.89258-.34131.00879-.69141.00732-1.04932.00391l-.47168-.00146c-1.41016,0-1.70605-.53857-1.70605-.99072,0-.75537.854-2.2085,2.48584-2.29443.75635-.0332,1.80469.35254,2.29541,1.15527.16553.27051.25.56299.25293.86475.21631-.08496.40088-.19629.54492-.34229.29395-.29736.43164-.76221.42041-1.40234h1c.01562.92383-.21631,1.60645-.70898,2.10547-.41943.42432-.9751.65186-1.61328.77295-.50293.78857-1.3623,1.33545-2.19434,1.86523-1.27734.81201-2.4834,1.57959-2.4834,3.13428,0,1.1709.99072,1.74219,1.82178,2.01562l-.3125.94922ZM5.01416,5.92725c.09082.03369.29248.08252.69238.08252l.47656.00146c.64453.00439,1.27295.00635,1.8252-.04785.05273-.20361.02588-.38916-.07959-.56152-.26221-.42969-.93311-.7041-1.38965-.67822-.95898.0498-1.44092.86328-1.5249,1.20361Z"/></svg>