<svg width="32" height="32" viewBox="0 0 32 32" fill="none" xmlns="http://www.w3.org/2000/svg">
<g clip-path="url(#clip0_4922_1121)">
<g clip-path="url(#clip1_4922_1121)">
<path d="M2 8.36066V26.0289L15.5503 31.9067C15.6922 31.9682 15.8453 32 16 32C16.1547 32 16.3078 31.9682 16.4497 31.9067L27.8078 26.9798C28.4591 26.6973 29.0135 26.2306 29.403 25.6371C29.7925 25.0436 30 24.3492 30 23.6393V5.97113L16.4497 0.0933328C16.3078 0.031767 16.1547 0 16 0C15.8453 0 15.6922 0.031767 15.5503 0.0933328L4.19217 5.02022C3.54093 5.30271 2.98646 5.76941 2.59698 6.3629C2.2075 6.95639 2 7.65079 2 8.36066V8.36066Z" fill="url(#paint0_radial_4922_1121)"/>
<path d="M15.5489 0.114486L4.18272 5.04368C3.5343 5.32489 2.98222 5.78951 2.59442 6.38039C2.20661 6.97127 2 7.66263 2 8.36941V26.0492L15.5489 31.925C15.6911 31.9873 15.8447 32.0194 16 32.0194V0.0200806C15.8447 0.0200731 15.6911 0.0522162 15.5489 0.114486V0.114486Z" fill="url(#paint1_linear_4922_1121)"/>
<path d="M15.1548 31.6171C15.2603 31.7373 15.3904 31.8336 15.5361 31.8996C15.6819 31.9656 15.84 31.9997 16 31.9997C16.16 31.9997 16.3182 31.9656 16.4639 31.8996C16.6097 31.8336 16.7397 31.7373 16.8453 31.6171L22.8796 24.7471C23.4406 24.1084 23.75 23.2874 23.75 22.4373V3.28954L16.4511 0.0947391C16.3089 0.0324779 16.1553 0.000335693 16 0.000335693C15.8447 0.000335693 15.6911 0.0324779 15.5489 0.0947391L8.25 3.26095V22.4373C8.25 23.2874 8.55938 24.1084 9.12037 24.7471L15.1548 31.6171Z" fill="url(#paint2_linear_4922_1121)"/>
<path d="M16.1667 10.6667C13.3762 10.6724 10.722 10.8579 9.66835 11.2231C8.59773 11.5941 7.8064 12.0347 7.66675 13.1247V18.4816C7.78313 19.7107 8.06242 20.6615 9.17959 21.2413C10.2968 21.821 12.4613 21.7746 13.2293 21.7746C13.7258 21.777 14.2166 21.6688 14.6662 21.4581C15.1157 21.2474 15.5128 20.9393 15.8286 20.5562C15.869 20.5052 15.9204 20.464 15.9789 20.4357C16.0375 20.4073 16.1017 20.3926 16.1667 20.3926C16.2318 20.3926 16.296 20.4073 16.3546 20.4357C16.4131 20.464 16.4645 20.5052 16.5049 20.5562C16.8207 20.9393 17.2178 21.2474 17.6673 21.4581C18.1169 21.6688 18.6077 21.777 19.1041 21.7746C19.8722 21.7746 22.0367 21.821 23.1539 21.2413C24.2711 20.6615 24.5504 19.7107 24.6667 18.4816V13.1247C24.5271 12.0347 23.7358 11.5941 22.6651 11.2231C21.6115 10.8579 18.9573 10.6724 16.1667 10.6667ZM16.1667 17.4799C15.4429 17.5209 14.4743 18.6016 13.9754 18.7791C13.0037 18.8964 12.0217 18.9016 11.0487 18.7945C10.7388 18.7749 10.4474 18.6404 10.2316 18.4171C10.0158 18.1939 9.89112 17.8982 9.88201 17.5878V15.015C9.96925 13.1028 10.9372 12.8851 16.1668 12.9002C21.3963 12.8851 22.3643 13.1028 22.4515 15.015V17.5878C22.4424 17.8982 22.3178 18.1939 22.1019 18.4171C21.8861 18.6404 21.5947 18.7749 21.2848 18.7945C20.3119 18.9016 19.3299 18.8964 18.3581 18.7791C17.8592 18.6016 16.8906 17.5209 16.1667 17.4799Z" fill="white"/>
<rect x="25.3333" y="13.6667" width="1.33333" height="5.33333" rx="0.666666" fill="white"/>
<rect x="5.66675" y="13.6667" width="1.33333" height="5.33333" rx="0.666667" fill="white"/>
</g>
</g>
<defs>
<radialGradient id="paint0_radial_4922_1121" cx="0" cy="0" r="1" gradientUnits="userSpaceOnUse" gradientTransform="translate(23.6305 23.5627) rotate(-140.703) scale(27.1377 27.3359)">
<stop offset="0.00036" stop-color="#36B6E3"/>
<stop offset="0.51516" stop-color="#0089D9"/>
</radialGradient>
<linearGradient id="paint1_linear_4922_1121" x1="19.2754" y1="1.91116" x2="4.50449" y2="27.4952" gradientUnits="userSpaceOnUse">
<stop offset="0.00403" stop-color="#00B7FF"/>
<stop offset="0.05884" stop-color="#0ABAFF" stop-opacity="0.79702"/>
<stop offset="0.12293" stop-color="#15BDFF" stop-opacity="0.58812"/>
<stop offset="0.18789" stop-color="#1EBFFF" stop-opacity="0.40794"/>
<stop offset="0.25235" stop-color="#26C1FF" stop-opacity="0.26085"/>
<stop offset="0.31625" stop-color="#2CC3FF" stop-opacity="0.14665"/>
<stop offset="0.37943" stop-color="#30C4FF" stop-opacity="0.0652"/>
<stop offset="0.44158" stop-color="#32C5FF" stop-opacity="0.01636"/>
<stop offset="0.5015" stop-color="#33C5FF" stop-opacity="0"/>
</linearGradient>
<linearGradient id="paint2_linear_4922_1121" x1="16" y1="0.000339129" x2="16" y2="31.9997" gradientUnits="userSpaceOnUse">
<stop offset="2e-05" stop-color="#0076BA" stop-opacity="0"/>
<stop offset="0.07961" stop-color="#0076BA" stop-opacity="0.02243"/>
<stop offset="0.16208" stop-color="#0076BA" stop-opacity="0.08931"/>
<stop offset="0.24593" stop-color="#0076BA" stop-opacity="0.20084"/>
<stop offset="0.33071" stop-color="#0076BA" stop-opacity="0.35715"/>
<stop offset="0.41576" stop-color="#0076BA" stop-opacity="0.5572"/>
<stop offset="0.5008" stop-color="#0076BA" stop-opacity="0.8"/>
<stop offset="0.59278" stop-color="#0076BA" stop-opacity="0.77758"/>
<stop offset="0.6881" stop-color="#0076BA" stop-opacity="0.71071"/>
<stop offset="0.78495" stop-color="#0076BA" stop-opacity="0.59929"/>
<stop offset="0.88287" stop-color="#0076BA" stop-opacity="0.44317"/>
<stop offset="0.98074" stop-color="#0076BA" stop-opacity="0.24416"/>
<stop offset="1" stop-color="#0076BA" stop-opacity="0.2"/>
</linearGradient>
<clipPath id="clip0_4922_1121">
<rect width="32" height="32" fill="white"/>
</clipPath>
<clipPath id="clip1_4922_1121">
<rect width="32" height="32" fill="white"/>
</clipPath>
</defs>
</svg>
