<svg width="16" height="16" viewBox="0 0 16 16" fill="none" xmlns="http://www.w3.org/2000/svg">
<g clip-path="url(#clip0_4922_1147)">
<g clip-path="url(#clip1_4922_1147)">
<path d="M1 4.18033V13.0144L7.77516 15.9533C7.84612 15.9841 7.92265 16 8 16C8.07735 16 8.15388 15.9841 8.22484 15.9533L13.9039 13.4899C14.2295 13.3486 14.5068 13.1153 14.7015 12.8186C14.8962 12.5218 15 12.1746 15 11.8197V2.98557L8.22484 0.0466664C8.15388 0.0158835 8.07735 0 8 0C7.92265 0 7.84612 0.0158835 7.77516 0.0466664L2.09609 2.51011C1.77046 2.65136 1.49323 2.88471 1.29849 3.18145C1.10375 3.4782 1 3.82539 1 4.18033V4.18033Z" fill="url(#paint0_radial_4922_1147)"/>
<path d="M7.77445 0.0572428L2.09136 2.52184C1.76715 2.66244 1.49111 2.89476 1.29721 3.1902C1.10331 3.48564 1 3.83132 1 4.18471V13.0246L7.77445 15.9625C7.84557 15.9936 7.92236 16.0097 8 16.0097V0.0100403C7.92236 0.0100366 7.84557 0.0261081 7.77445 0.0572428V0.0572428Z" fill="url(#paint1_linear_4922_1147)"/>
<path d="M7.57738 15.8085C7.63017 15.8686 7.69518 15.9168 7.76805 15.9498C7.84093 15.9828 7.92001 15.9998 8 15.9998C8.08 15.9998 8.15908 15.9828 8.23196 15.9498C8.30483 15.9168 8.36984 15.8686 8.42263 15.8085L11.4398 12.3735C11.7203 12.0542 11.875 11.6437 11.875 11.2186V1.64476L8.22555 0.0473543C8.15443 0.0162237 8.07764 0.000152588 8 0.000152588C7.92236 0.000152588 7.84557 0.0162237 7.77445 0.0473543L4.125 1.63046V11.2186C4.125 11.6437 4.27969 12.0542 4.56018 12.3735L7.57738 15.8085Z" fill="url(#paint2_linear_4922_1147)"/>
<path d="M8.08325 5.33334C6.688 5.33624 5.36089 5.42897 4.83405 5.61155C4.29874 5.79708 3.90308 6.01738 3.83325 6.56236V9.24084C3.89144 9.85538 4.03109 10.3308 4.58967 10.6207C5.14826 10.9105 6.23052 10.8873 6.61455 10.8873C6.86279 10.8885 7.10819 10.8344 7.33296 10.7291C7.55773 10.6237 7.75627 10.4697 7.91418 10.2781C7.93436 10.2526 7.96006 10.232 7.98934 10.2178C8.01862 10.2037 8.05072 10.1963 8.08325 10.1963C8.11578 10.1963 8.14789 10.2037 8.17717 10.2178C8.20645 10.232 8.23214 10.2526 8.25233 10.2781C8.41024 10.4697 8.60877 10.6237 8.83354 10.7291C9.05832 10.8344 9.30371 10.8885 9.55195 10.8873C9.93598 10.8873 11.0182 10.9105 11.5768 10.6207C12.1354 10.3308 12.2751 9.85536 12.3333 9.24082V6.56234C12.2634 6.01736 11.8678 5.79706 11.3324 5.61154C10.8056 5.42897 9.4785 5.33624 8.08325 5.33334ZM8.08325 8.73996C7.72131 8.76044 7.23701 9.3008 6.9876 9.38956C6.50172 9.44822 6.01071 9.45081 5.52424 9.39726C5.3693 9.38748 5.2236 9.3202 5.11569 9.20859C5.00778 9.09698 4.94544 8.9491 4.94088 8.79393V7.50752C4.98451 6.55144 5.46847 6.44255 8.08327 6.45012C10.6981 6.44255 11.182 6.55144 11.2257 7.50752V8.79393C11.2211 8.9491 11.1588 9.09698 11.0508 9.20859C10.9429 9.3202 10.7972 9.38748 10.6423 9.39726C10.1558 9.45081 9.66482 9.44822 9.17894 9.38956C8.92949 9.3008 8.44519 8.76044 8.08325 8.73996Z" fill="white"/>
<rect x="12.6667" y="6.83334" width="0.666666" height="2.66667" rx="0.333333" fill="white"/>
<rect x="2.83325" y="6.83334" width="0.666667" height="2.66667" rx="0.333333" fill="white"/>
</g>
</g>
<defs>
<radialGradient id="paint0_radial_4922_1147" cx="0" cy="0" r="1" gradientUnits="userSpaceOnUse" gradientTransform="translate(11.8153 11.7813) rotate(-140.703) scale(13.5688 13.668)">
<stop offset="0.00036" stop-color="#36B6E3"/>
<stop offset="0.51516" stop-color="#0089D9"/>
</radialGradient>
<linearGradient id="paint1_linear_4922_1147" x1="9.63772" y1="0.955578" x2="2.25225" y2="13.7476" gradientUnits="userSpaceOnUse">
<stop offset="0.00403" stop-color="#00B7FF"/>
<stop offset="0.05884" stop-color="#0ABAFF" stop-opacity="0.79702"/>
<stop offset="0.12293" stop-color="#15BDFF" stop-opacity="0.58812"/>
<stop offset="0.18789" stop-color="#1EBFFF" stop-opacity="0.40794"/>
<stop offset="0.25235" stop-color="#26C1FF" stop-opacity="0.26085"/>
<stop offset="0.31625" stop-color="#2CC3FF" stop-opacity="0.14665"/>
<stop offset="0.37943" stop-color="#30C4FF" stop-opacity="0.0652"/>
<stop offset="0.44158" stop-color="#32C5FF" stop-opacity="0.01636"/>
<stop offset="0.5015" stop-color="#33C5FF" stop-opacity="0"/>
</linearGradient>
<linearGradient id="paint2_linear_4922_1147" x1="8" y1="0.000154306" x2="8" y2="15.9998" gradientUnits="userSpaceOnUse">
<stop offset="2e-05" stop-color="#0076BA" stop-opacity="0"/>
<stop offset="0.07961" stop-color="#0076BA" stop-opacity="0.02243"/>
<stop offset="0.16208" stop-color="#0076BA" stop-opacity="0.08931"/>
<stop offset="0.24593" stop-color="#0076BA" stop-opacity="0.20084"/>
<stop offset="0.33071" stop-color="#0076BA" stop-opacity="0.35715"/>
<stop offset="0.41576" stop-color="#0076BA" stop-opacity="0.5572"/>
<stop offset="0.5008" stop-color="#0076BA" stop-opacity="0.8"/>
<stop offset="0.59278" stop-color="#0076BA" stop-opacity="0.77758"/>
<stop offset="0.6881" stop-color="#0076BA" stop-opacity="0.71071"/>
<stop offset="0.78495" stop-color="#0076BA" stop-opacity="0.59929"/>
<stop offset="0.88287" stop-color="#0076BA" stop-opacity="0.44317"/>
<stop offset="0.98074" stop-color="#0076BA" stop-opacity="0.24416"/>
<stop offset="1" stop-color="#0076BA" stop-opacity="0.2"/>
</linearGradient>
<clipPath id="clip0_4922_1147">
<rect width="16" height="16" fill="white"/>
</clipPath>
<clipPath id="clip1_4922_1147">
<rect width="16" height="16" fill="white"/>
</clipPath>
</defs>
</svg>
