<svg width="20" height="20" viewBox="0 0 20 20" fill="none" xmlns="http://www.w3.org/2000/svg">
<g clip-path="url(#clip0_3101_450)">
<path d="M13.1572 20H12.1572V17H13.1572V20Z" fill="black"/>
<path d="M18.3535 3.35352L3.35352 18.3535L2.64648 17.6465L17.6465 2.64648L18.3535 3.35352Z" fill="black"/>
<path d="M9.82812 16.1924L7.70703 18.3135L7 17.6064L9.12109 15.4854L9.82812 16.1924Z" fill="black"/>
<path d="M18.3135 17.6064L17.6064 18.3135L15.4854 16.1924L16.1924 15.4854L18.3135 17.6064Z" fill="black"/>
<path fill-rule="evenodd" clip-rule="evenodd" d="M15.2676 10C15.7263 10.6231 15.9999 11.3971 16 12.2324C16 13.2315 15.603 14.19 14.8965 14.8965C14.19 15.603 13.2315 16 12.2324 16C11.3971 15.9999 10.6231 15.7263 10 15.2676L15.2676 10ZM11.7285 14.9521C11.892 14.9823 12.0602 15 12.2324 15C12.9663 15 13.6705 14.7084 14.1895 14.1895C14.7084 13.6705 15 12.9663 15 12.2324C15 12.0602 14.9823 11.892 14.9521 11.7285L11.7285 14.9521Z" fill="black"/>
<path d="M20 13.1572H17V12.1572H20V13.1572Z" fill="black"/>
<path fill-rule="evenodd" clip-rule="evenodd" d="M6.24414 1.41992C4.76259 2.37695 3.76074 4.06732 3.76074 6C3.76074 7.93189 4.76215 9.62108 6.26855 10.5781L7.71973 11.5H6C2.9473 11.5 0.5 9.03899 0.5 6C0.5 4.54239 1.07578 3.14392 2.10156 2.1123C3.12766 1.08061 4.52036 0.500058 5.97266 0.5H7.66797L6.24414 1.41992ZM4.28027 1.83398C3.73573 2.05791 3.23486 2.39076 2.81055 2.81738C1.97167 3.66105 1.5 4.80584 1.5 6C1.5 7.88419 2.64794 9.4939 4.29004 10.165C3.33751 9.04576 2.76074 7.59245 2.76074 6C2.76074 4.40714 3.33693 2.95312 4.28027 1.83398Z" fill="black"/>
<path d="M18.3135 7.70703L16.1924 9.82812L15.4854 9.12109L17.6064 7L18.3135 7.70703Z" fill="black"/>
<path d="M6.90234 6.0791L8 6.09961L7.14355 6.84766L7.4668 7.9541L6.52832 7.33789L5.61523 8L5.88184 6.87402L5 6.17188L6.11035 6.09277L6.47754 5L6.90234 6.0791Z" fill="black"/>
<path d="M9.53711 2.43945L11 2.46582L9.8584 3.46387L10.29 4.93848L9.03809 4.11719L7.82031 5L8.17578 3.49902L7 2.5625L8.47949 2.45703L8.9707 1L9.53711 2.43945Z" fill="black"/>
</g>
<defs>
<clipPath id="clip0_3101_450">
<rect width="20" height="20" fill="white"/>
</clipPath>
</defs>
</svg>
