<svg width="20" height="20" viewBox="0 0 20 20" fill="none" xmlns="http://www.w3.org/2000/svg">
<g clip-path="url(#clip0_4231_1574)">
<path d="M9.5 0C12.2614 0 14.5 2.23858 14.5 5C14.5 7.14448 13.1495 8.97233 11.2529 9.68262C11.9031 9.81739 12.5404 10.0246 13.1533 10.3066L12.7354 11.2158C11.7078 10.7429 10.6085 10.5 9.5 10.5C8.39153 10.5 7.29217 10.7429 6.26465 11.2158C5.23707 11.6888 4.29978 12.3837 3.50781 13.2637C2.71571 14.1438 2.08446 15.1912 1.65332 16.3477C1.22216 17.5042 1 18.7455 1 20H0C0 18.628 0.243375 17.268 0.716797 15.998C1.19022 14.7283 1.88547 13.5716 2.76465 12.5947C3.64404 11.6176 4.69054 10.8387 5.84668 10.3066C6.45926 10.0247 7.09627 9.8174 7.74609 9.68262C5.85001 8.9721 4.5 7.14415 4.5 5C4.5 2.23858 6.73858 0 9.5 0ZM17 11C17.4114 11 17.7995 11.0781 18.1641 11.2344C18.5286 11.3906 18.8464 11.6042 19.1172 11.875C19.388 12.1458 19.6042 12.4662 19.7656 12.8359C19.9271 13.2057 20.0052 13.5938 20 14C20 14.4166 19.9218 14.8047 19.7656 15.1641C19.6094 15.5234 19.3958 15.8412 19.125 16.1172C18.8542 16.3932 18.5338 16.6094 18.1641 16.7656C17.7943 16.9219 17.4062 17 17 17C16.6615 17 16.3281 16.9401 16 16.8203V18H15V19H14V20H11V17.7969L14.0859 14.7031C14.0287 14.4636 14 14.2291 14 14C14 13.5886 14.0782 13.2004 14.2344 12.8359C14.3906 12.4714 14.6042 12.1536 14.875 11.8828C15.1458 11.612 15.4636 11.3958 15.8281 11.2344C16.1927 11.0729 16.5834 10.9948 17 11ZM17 12C16.724 12 16.4661 12.0521 16.2266 12.1562C15.987 12.2604 15.7734 12.4037 15.5859 12.5859C15.3985 12.7682 15.2552 12.9793 15.1562 13.2188C15.0573 13.4583 15.0052 13.7188 15 14C15 14.1822 15.0235 14.349 15.0703 14.5C15.1172 14.651 15.1719 14.81 15.2344 14.9766L12 18.2031V19H13V18H14V17H15V16.2891L15.7266 15.5703C15.9349 15.6901 16.1354 15.7917 16.3281 15.875C16.5208 15.9583 16.7448 16 17 16C17.276 16 17.5339 15.9479 17.7734 15.8438C18.013 15.7396 18.2266 15.5963 18.4141 15.4141C18.6015 15.2318 18.7448 15.0208 18.8438 14.7812C18.9427 14.5417 18.9948 14.2812 19 14C19 13.7241 18.9479 13.4661 18.8438 13.2266C18.7396 12.9871 18.5963 12.7734 18.4141 12.5859C18.2318 12.3985 18.0208 12.2552 17.7812 12.1562C17.5417 12.0573 17.2812 12.0052 17 12ZM17.5 13C17.6354 13 17.7526 13.0496 17.8516 13.1484C17.9505 13.2473 17.9999 13.3647 18 13.5C18 13.6354 17.9504 13.7526 17.8516 13.8516C17.7526 13.9505 17.6354 14 17.5 14C17.3646 14 17.2474 13.9505 17.1484 13.8516C17.0496 13.7526 17 13.6354 17 13.5C17.0001 13.3647 17.0495 13.2473 17.1484 13.1484C17.2474 13.0496 17.3646 13 17.5 13ZM9.5 1C7.29086 1 5.5 2.79086 5.5 5C5.5 7.20914 7.29086 9 9.5 9C11.7091 9 13.5 7.20914 13.5 5C13.5 2.79086 11.7091 1 9.5 1Z" fill="white"/>
</g>
<defs>
<clipPath id="clip0_4231_1574">
<rect width="20" height="19.9999" fill="white"/>
</clipPath>
</defs>
</svg>
