<?xml version="1.0" encoding="UTF-8"?><svg id="icons" xmlns="http://www.w3.org/2000/svg" viewBox="0 0 20 20"><path d="m6,17h-1v-1h1v1Zm0-3h-1v1h1v-1Zm-2-2h-1v1h1v-1Zm2,.72784v-.72784h-1v1h1v-.27216Zm1.96875,6.27216h1.03125v1H0v-1h1v-9h6.96875v9Zm-.96875-8H2v8h5v-8Zm-3,3h-1v1h1v-1Zm9-6.12714v2.77515l5.18604-2.27795-1.39716-.61432,1.07391-.62,2.13721.93958v.58954l-5.56445,2.44653,5.56445,2.06757v.6156l-7.5,3.29816-3.5-1.54132v-1.09021l3,1.31897v-7.90723l-.35291-.15521-5.64709-2.48315v3.76544h-1v-4.3031c0-.29663.17523-.56525.44666-.68475l6.33453-2.78888.71881-.3161,7.5,3.29797v.5896l-7,3.07812Zm0,3.77692v4.13037l5.09766-2.24109-5.09766-1.88928Zm5.18604-7.14978l-5.68604-2.5-1.086.47748-4.02435,1.76941c-.1004.04413-.16522.14343-.16522.25311s.06482.20892.16522.25311l3.82172,1.6803,1.28864.56659,5.68604-2.5ZM4,16h-1v1h1v-1Z" style="fill:currentColor; stroke-width:0px;"/></svg>