<svg width="32" height="32" viewBox="0 0 32 32" fill="none" xmlns="http://www.w3.org/2000/svg">
<path d="M29.8981 13.313L27.1209 18.2104V25.6669C27.1209 26.1308 26.9392 26.5757 26.6159 26.9037C26.2925 27.2317 25.8539 27.416 25.3965 27.416H24.2167V8.26839C24.2167 8.07308 24.1402 7.88576 24.004 7.74765C23.8678 7.60954 23.6832 7.53195 23.4906 7.53195H11.5105V2.27742C11.5103 2.22865 11.5228 2.1807 11.5468 2.13843C11.5708 2.09617 11.6054 2.06109 11.647 2.03678C11.6887 2.01246 11.736 1.99978 11.7841 2C11.8321 2.00023 11.8793 2.01337 11.9207 2.03807L16.2771 4.58617H25.3965C25.8539 4.58617 26.2925 4.77045 26.6159 5.09846C26.9392 5.42647 27.1209 5.87135 27.1209 6.33523V10.7281L29.5968 12.201C29.7803 12.3097 29.9146 12.4869 29.9709 12.6947C30.0272 12.9026 30.0011 13.1245 29.8981 13.313ZM11.5105 18.9468H19.4972V12.3188H11.5105V18.9468ZM19.1342 23.7337H7.51716C7.32459 23.7337 7.13991 23.6561 7.00375 23.518C6.86759 23.3799 6.79109 23.1926 6.79109 22.9973V4.58617H5.61123C5.15389 4.58617 4.71528 4.77045 4.39189 5.09846C4.06851 5.42647 3.88683 5.87135 3.88683 6.33523V13.7917L1.10963 18.6891C1.05581 18.7833 1.0209 18.8873 1.00693 18.9953C0.992948 19.1032 1.00017 19.2129 1.02818 19.318C1.05619 19.423 1.10444 19.5215 1.17013 19.6076C1.23582 19.6936 1.31767 19.7657 1.41094 19.8195L3.88683 21.274V25.6669C3.88683 26.1308 4.06851 26.5757 4.39189 26.9037C4.71528 27.2317 5.15389 27.416 5.61123 27.416H14.7379L19.0943 29.9641C19.1356 29.9878 19.1824 30.0002 19.2299 30C19.2775 29.9998 19.3241 29.9869 19.3653 29.9627C19.4064 29.9385 19.4405 29.9038 19.4643 29.862C19.4881 29.8203 19.5007 29.7729 19.5009 29.7247V24.102C19.5009 24.0533 19.4914 24.0051 19.4729 23.9602C19.4544 23.9153 19.4274 23.8745 19.3933 23.8403C19.3592 23.806 19.3187 23.779 19.2742 23.7607C19.2298 23.7424 19.1822 23.7332 19.1342 23.7337Z" fill="#09B8CA"/>
</svg>
