<svg xmlns="http://www.w3.org/2000/svg" width="16" height="16" viewBox="0 0 16 16" fill="none">
<path fill-rule="evenodd" clip-rule="evenodd" d="M1 9C1 8.72386 0.776142 8.5 0.5 8.5C0.223858 8.5 0 8.72386 0 9V11.5C0 11.7761 0.223858 12 0.5 12C0.776142 12 1 11.7761 1 11.5V9ZM0 1.5C0 0.671573 0.671573 0 1.5 0H2.5C2.77614 0 3 0.223858 3 0.5C3 0.776142 2.77614 1 2.5 1H1.5C1.22386 1 1 1.22386 1 1.5V2.5C1 2.77614 0.776142 3 0.5 3C0.223858 3 0 2.77614 0 2.5V1.5ZM1 14.5C1 14.7761 1.22386 15 1.5 15H2.5C2.77614 15 3 15.2239 3 15.5C3 15.7761 2.77614 16 2.5 16H1.5C0.671573 16 0 15.3284 0 14.5V13.5C0 13.2239 0.223858 13 0.5 13C0.776142 13 1 13.2239 1 13.5V14.5ZM1 4.5C1 4.22386 0.776142 4 0.5 4C0.223858 4 0 4.22386 0 4.5V7C0 7.27614 0.223858 7.5 0.5 7.5C0.776142 7.5 1 7.27614 1 7V4.5ZM6.5 0H4.5C4.22386 0 4 0.223858 4 0.5C4 0.776142 4.22386 1 4.5 1H6.5C6.77614 1 7 0.776142 7 0.5C7 0.223858 6.77614 0 6.5 0ZM6.5 15H4.5C4.22386 15 4 15.2239 4 15.5C4 15.7761 4.22386 16 4.5 16H6.5C6.77614 16 7 15.7761 7 15.5C7 15.2239 6.77614 15 6.5 15ZM15 15H13V1H15V15ZM8.85355 11.1464C9.02712 11.32 9.0464 11.5894 8.91141 11.7843L8.85355 11.8536C8.67999 12.0271 8.41056 12.0464 8.21569 11.9114L8.14645 11.8536L5.14645 8.85355C4.97288 8.67999 4.9536 8.41056 5.08859 8.21569L5.14645 8.14645L8.14645 5.14645C8.34171 4.95118 8.65829 4.95118 8.85355 5.14645C9.02712 5.32001 9.0464 5.58944 8.91141 5.78431L8.85355 5.85355L6.706 8H12V1C12 0.447715 12.4477 0 13 0H15C15.5523 0 16 0.447715 16 1V15C16 15.5523 15.5523 16 15 16H13C12.4477 16 12 15.5523 12 15V9H6.706L8.85355 11.1464Z" fill="white"/>
</svg>