<svg width="16" height="16" viewBox="0 0 16 16" fill="none" xmlns="http://www.w3.org/2000/svg">
<path fill-rule="evenodd" clip-rule="evenodd" d="M9.14645 11.1464C8.97288 11.32 8.95359 11.5894 9.08859 11.7843L9.14645 11.8536C9.32001 12.0271 9.58944 12.0464 9.78431 11.9114L9.85355 11.8536L12.8536 8.85355C13.0271 8.67999 13.0464 8.41056 12.9114 8.21569L12.8536 8.14645L9.85355 5.14645C9.65829 4.95118 9.34171 4.95118 9.14645 5.14645C8.97288 5.32001 8.95359 5.58944 9.08859 5.78431L9.14645 5.85355L11.294 8H7V1C7 0.447715 6.55228 0 6 0H1C0.447715 0 0 0.447715 0 1V15C0 15.5523 0.447715 16 1 16H6C6.55228 16 7 15.5523 7 15V9H11.294L9.14645 11.1464ZM1 1H6V15H1V1Z" fill="white"/>
<path d="M16 1.5C16 0.671573 15.3284 0 14.5 0H12.5C12.2239 0 12 0.223858 12 0.5C12 0.776142 12.2239 1 12.5 1H14.5C14.7761 1 15 1.22386 15 1.5V2.5C15 2.77614 15.2239 3 15.5 3C15.7761 3 16 2.77614 16 2.5V1.5Z" fill="white"/>
<path d="M15 14.5C15 14.7761 14.7761 15 14.5 15H12.5C12.2239 15 12 15.2239 12 15.5C12 15.7761 12.2239 16 12.5 16H14.5C15.3284 16 16 15.3284 16 14.5V13.5C16 13.2239 15.7761 13 15.5 13C15.2239 13 15 13.2239 15 13.5V14.5Z" fill="white"/>
<path d="M15.5 8.5C15.2239 8.5 15 8.72386 15 9V11.5C15 11.7761 15.2239 12 15.5 12C15.7761 12 16 11.7761 16 11.5V9C16 8.72386 15.7761 8.5 15.5 8.5Z" fill="white"/>
<path d="M15.5 4C15.2239 4 15 4.22386 15 4.5V7C15 7.27614 15.2239 7.5 15.5 7.5C15.7761 7.5 16 7.27614 16 7V4.5C16 4.22386 15.7761 4 15.5 4Z" fill="white"/>
</svg>
