<svg width="16" height="16" viewBox="0 0 16 16" fill="none" xmlns="http://www.w3.org/2000/svg">
<path d="M8 1C8.14281 1 8.27977 1.05672 8.38075 1.15768C8.48173 1.25864 8.53846 1.39557 8.53846 1.53835V2.97395C8.53846 3.11673 8.48173 3.25367 8.38075 3.35463C8.27977 3.45559 8.14281 3.51231 8 3.51231C7.85719 3.51231 7.72023 3.45559 7.61925 3.35463C7.51827 3.25367 7.46154 3.11673 7.46154 2.97395V1.53835C7.46154 1.39557 7.51827 1.25864 7.61925 1.15768C7.72023 1.05672 7.85719 1 8 1ZM8 12.4877C8.14281 12.4877 8.27977 12.5444 8.38075 12.6454C8.48173 12.7463 8.53846 12.8833 8.53846 13.026V14.4616C8.53846 14.6044 8.48173 14.7414 8.38075 14.8423C8.27977 14.9433 8.14281 15 8 15C7.85719 15 7.72023 14.9433 7.61925 14.8423C7.51827 14.7414 7.46154 14.6044 7.46154 14.4616V13.026C7.46154 12.8833 7.51827 12.7463 7.61925 12.6454C7.72023 12.5444 7.85719 12.4877 8 12.4877ZM1 7.99856C1 7.85579 1.05673 7.71885 1.15771 7.61789C1.25869 7.51693 1.39565 7.46021 1.53846 7.46021H2.97436C3.11717 7.46021 3.25413 7.51693 3.35511 7.61789C3.45609 7.71885 3.51282 7.85579 3.51282 7.99856C3.51282 8.14134 3.45609 8.27828 3.35511 8.37924C3.25413 8.4802 3.11717 8.53692 2.97436 8.53692H1.53846C1.39565 8.53692 1.25869 8.4802 1.15771 8.37924C1.05673 8.27828 1 8.14134 1 7.99856ZM12.4872 7.99856C12.4872 7.85579 12.5439 7.71885 12.6449 7.61789C12.7459 7.51693 12.8828 7.46021 13.0256 7.46021H14.4615C14.6043 7.46021 14.7413 7.51693 14.8423 7.61789C14.9433 7.71885 15 7.85579 15 7.99856C15 8.14134 14.9433 8.27828 14.8423 8.37924C14.7413 8.4802 14.6043 8.53692 14.4615 8.53692H13.0256C12.8828 8.53692 12.7459 8.4802 12.6449 8.37924C12.5439 8.27828 12.4872 8.14134 12.4872 7.99856ZM13.4062 2.59352C13.507 2.69446 13.5636 2.83129 13.5636 2.97395C13.5636 3.11662 13.507 3.25345 13.4062 3.35439L11.9703 4.78999C11.921 4.84288 11.8615 4.88531 11.7955 4.91473C11.7294 4.94416 11.6581 4.95998 11.5858 4.96125C11.5135 4.96253 11.4417 4.94923 11.3746 4.92216C11.3076 4.89508 11.2467 4.85478 11.1956 4.80366C11.1444 4.75254 11.1041 4.69164 11.077 4.62461C11.05 4.55757 11.0367 4.48577 11.0379 4.41349C11.0392 4.3412 11.055 4.26992 11.0845 4.20388C11.1139 4.13784 11.1563 4.07841 11.2092 4.02912L12.6451 2.59352C12.7461 2.4927 12.8829 2.43608 13.0256 2.43608C13.1683 2.43608 13.3052 2.4927 13.4062 2.59352ZM2.59385 2.59352C2.69481 2.4927 2.83167 2.43608 2.97436 2.43608C3.11705 2.43608 3.25391 2.4927 3.35487 2.59352L4.79077 4.02912C4.88588 4.13118 4.93766 4.26616 4.9352 4.40563C4.93274 4.5451 4.87623 4.67816 4.77757 4.7768C4.67892 4.87544 4.54582 4.93193 4.40632 4.9344C4.26683 4.93686 4.13182 4.88509 4.02974 4.78999L2.59385 3.35439C2.49301 3.25345 2.43637 3.11662 2.43637 2.97395C2.43637 2.83129 2.49301 2.69446 2.59385 2.59352ZM4.79077 11.2071C4.89161 11.3081 4.94824 11.4449 4.94824 11.5876C4.94824 11.7302 4.89161 11.8671 4.79077 11.968L3.35487 13.4036C3.2528 13.4987 3.11779 13.5505 2.97829 13.548C2.83879 13.5456 2.7057 13.4891 2.60704 13.3904C2.50839 13.2918 2.45187 13.1587 2.44941 13.0192C2.44695 12.8798 2.49873 12.7448 2.59385 12.6427L4.02974 11.2071C4.13071 11.1063 4.26756 11.0497 4.41026 11.0497C4.55295 11.0497 4.68981 11.1063 4.79077 11.2071ZM11.2092 11.2071C11.3102 11.1063 11.4471 11.0497 11.5897 11.0497C11.7324 11.0497 11.8693 11.1063 11.9703 11.2071L13.4062 12.6427C13.4591 12.692 13.5015 12.7515 13.5309 12.8175C13.5604 12.8835 13.5762 12.9548 13.5775 13.0271C13.5787 13.0994 13.5654 13.1712 13.5383 13.2382C13.5113 13.3053 13.471 13.3662 13.4198 13.4173C13.3687 13.4684 13.3078 13.5087 13.2407 13.5358C13.1737 13.5628 13.1019 13.5761 13.0296 13.5749C12.9573 13.5736 12.886 13.5578 12.8199 13.5284C12.7539 13.4989 12.6944 13.4565 12.6451 13.4036L11.2092 11.968C11.1084 11.8671 11.0518 11.7302 11.0518 11.5876C11.0518 11.4449 11.1084 11.3081 11.2092 11.2071ZM8 4.58901C7.09554 4.58901 6.22813 4.94823 5.58858 5.58764C4.94904 6.22706 4.58974 7.09429 4.58974 7.99856C4.58974 8.90284 4.94904 9.77007 5.58858 10.4095C6.22813 11.0489 7.09554 11.4081 8 11.4081C8.90446 11.4081 9.77187 11.0489 10.4114 10.4095C11.051 9.77007 11.4103 8.90284 11.4103 7.99856C11.4103 7.09429 11.051 6.22706 10.4114 5.58764C9.77187 4.94823 8.90446 4.58901 8 4.58901Z" fill="black"/>
</svg>
