<svg xmlns="http://www.w3.org/2000/svg" width="20" height="20" viewBox="0 0 20 20" fill="none">
<path fill-rule="evenodd" clip-rule="evenodd" d="M4.57718 2.61348V13.9771C4.57718 14.2282 4.78206 14.4317 5.03479 14.4317H12.2421C12.3685 14.4317 12.4709 14.5334 12.4709 14.6589V18.2993C12.4709 18.3602 12.4383 18.4165 12.3852 18.447C12.3321 18.4775 12.2667 18.4775 12.2135 18.447L9.3735 16.818H3.71916C3.11892 16.818 2.63234 16.3347 2.63234 15.7385V12.7425L1.19487 11.918C1.07658 11.8502 0.990281 11.7384 0.954985 11.6073C0.919688 11.4763 0.938283 11.3366 1.00668 11.2192L2.63234 8.42201V3.69303C2.63234 3.09681 3.11892 2.61348 3.71916 2.61348H4.57718ZM7.92345 0.984507L10.7635 2.61348H16.4178C17.0181 2.61348 17.5047 3.09681 17.5047 3.69303V6.59076L18.9421 7.41519C19.1881 7.55647 19.2724 7.86902 19.1303 8.11348L17.5047 10.9089V15.7385C17.5047 16.3347 17.0181 16.818 16.4178 16.818H15.5598V4.99985C15.5598 4.74881 15.3549 4.5453 15.1022 4.5453H7.66604V1.13223C7.66604 1.07132 7.6987 1.01501 7.7518 0.984534C7.8049 0.954058 7.87034 0.954048 7.92345 0.984507ZM12.4709 7.61348V11.3635H7.66604V7.61348H12.4709Z" stroke="white"/>
</svg>
