<svg width="16" height="16" viewBox="0 0 16 16" fill="none" xmlns="http://www.w3.org/2000/svg">
<path d="M8.05112 15C6.09208 15 4.42714 14.3154 3.05628 12.9463C1.68543 11.5772 1 9.91432 1 7.95775C1 6.1743 1.58172 4.62793 2.74515 3.31866C3.90859 2.00939 5.34937 1.2365 7.06749 1C7.11509 1 7.1618 1.00176 7.20763 1.00528C7.25346 1.0088 7.29841 1.01379 7.34248 1.02025C7.04516 1.43457 6.80983 1.89525 6.63649 2.40229C6.46315 2.90933 6.37648 3.44073 6.37648 3.99648C6.37648 5.56162 6.9247 6.89173 8.02115 7.9868C9.1176 9.08187 10.4497 9.62969 12.0174 9.63028C12.5762 9.63028 13.1088 9.54372 13.6153 9.3706C14.1218 9.19748 14.5766 8.96244 14.9797 8.66549C14.9868 8.70951 14.9918 8.7544 14.9947 8.80018C14.9977 8.84595 14.9994 8.89261 15 8.94014C14.7744 10.6555 14.0061 12.0942 12.6952 13.2562C11.3842 14.4181 9.83682 14.9994 8.05112 15Z" fill="black"/>
</svg>
