<svg width="16" height="16" viewBox="0 0 16 16" fill="none" xmlns="http://www.w3.org/2000/svg">
<g id="icon">
<path id="vector" fill-rule="evenodd" clip-rule="evenodd" d="M10.8326 10.3858C10.8407 10.0981 10.8833 9.81242 10.9597 9.53494C11.0673 9.31306 11.2019 9.10537 11.3606 8.91659C12.1646 7.96752 12.6513 6.79062 12.7526 5.55094C12.8338 4.22013 12.2932 2.92691 11.2891 2.04976C9.71442 0.645454 7.34597 0.615347 5.73613 1.97918C4.67862 2.8533 4.10312 4.1806 4.1879 5.55C4.28926 6.79012 4.77636 7.96738 5.58084 8.91659C5.73975 9.10552 5.87444 9.31356 5.98178 9.53588C6.05786 9.81307 6.10021 10.0984 6.1079 10.3858C6.11786 10.6442 6.14934 10.9015 6.20202 11.1547C6.21425 11.2102 6.2359 11.2441 6.25002 11.294H5.95637L6.3799 12.7058L6.03637 13.8493L7.4359 14.7594C8.06574 15.1679 8.87701 15.1676 9.50649 14.7585L10.906 13.8493L10.5634 12.7058L10.986 11.294H10.6924C10.7065 11.2441 10.7281 11.2093 10.7404 11.1547C10.793 10.9015 10.8245 10.6442 10.8345 10.3858H10.8326ZM8.99449 13.9688C8.67496 14.1723 8.26649 14.1723 7.94696 13.9688L7.14037 13.4446L7.36155 12.7058L7.22037 12.2352H9.72013L9.57896 12.7058L9.80013 13.4446L8.99449 13.9688ZM8.94084 11.294V8.47047H7.99966V11.294H7.25613C7.18878 11.1894 7.14242 11.0728 7.11966 10.9505C7.07755 10.7459 7.05299 10.5381 7.04625 10.3293C7.03544 9.97339 6.98172 9.62009 6.88625 9.27706C6.75729 8.93966 6.57067 8.62725 6.33472 8.35376C5.64266 7.55067 5.22028 6.55052 5.12719 5.49447C5.06177 4.42219 5.51301 3.38327 6.34131 2.69918C7.59569 1.63812 9.43977 1.66219 10.666 2.75565C11.4523 3.44142 11.876 4.45305 11.8133 5.49447C11.7202 6.55052 11.2978 7.55067 10.6058 8.35376C10.3704 8.62713 10.1841 8.93919 10.0552 9.27612C9.95946 9.61944 9.90542 9.97305 9.89425 10.3293C9.88751 10.5381 9.86295 10.7459 9.82084 10.9505C9.79706 11.0717 9.75248 11.1879 9.68908 11.294H8.94084ZM9.88202 7.52929H7.05849V6.58812H9.88202V7.52929Z" fill="white"/>
</g>
</svg>
