<svg width="32" height="32" viewBox="0 0 32 32" fill="none" xmlns="http://www.w3.org/2000/svg">
<path fill-rule="evenodd" clip-rule="evenodd" d="M10.5 5C10.2239 5 10 5.22386 10 5.5V7.5C10 7.77614 10.2239 8 10.5 8H21.5C21.7761 8 22 7.77614 22 7.5V5.5C22 5.22386 21.7761 5 21.5 5H10.5ZM11 7V6H21V7H11Z" fill="white"/>
<path d="M7.5 9C7.22386 9 7 9.22386 7 9.5C7 9.77614 7.22386 10 7.5 10H19.5C19.7761 10 20 9.77614 20 9.5C20 9.22386 19.7761 9 19.5 9H7.5Z" fill="white"/>
<path d="M7.8 15C7.91046 15 8 15.0895 8 15.2V15.8C8 15.9105 7.91046 16 7.8 16H7.2C7.08954 16 7 15.9105 7 15.8V15.2C7 15.0895 7.08954 15 7.2 15H7.8Z" fill="white"/>
<path d="M9.8 15C9.91046 15 10 15.0895 10 15.2V15.8C10 15.9105 9.91046 16 9.8 16H9.2C9.08954 16 9 15.9105 9 15.8V15.2C9 15.0895 9.08954 15 9.2 15H9.8Z" fill="white"/>
<path d="M12 15.2C12 15.0895 11.9105 15 11.8 15H11.2C11.0895 15 11 15.0895 11 15.2V15.8C11 15.9105 11.0895 16 11.2 16H11.8C11.9105 16 12 15.9105 12 15.8V15.2Z" fill="white"/>
<path d="M7 11.5C7 11.2239 7.22386 11 7.5 11H24.5C24.7761 11 25 11.2239 25 11.5C25 11.7761 24.7761 12 24.5 12H7.5C7.22386 12 7 11.7761 7 11.5Z" fill="white"/>
<path fill-rule="evenodd" clip-rule="evenodd" d="M7 17.5C7 17.2239 7.22388 17 7.5 17H24.5C24.7761 17 25 17.2239 25 17.5V26.5C25 26.7761 24.7761 27 24.5 27H7.5C7.22388 27 7 26.7761 7 26.5V17.5ZM8 21V23H12V21H8ZM13 21V23H19V21H13ZM13 24H19V26H13V24ZM24 24V26H20V24H24ZM20 21V23H24V21H20ZM24 18V20H20V18H24ZM13 18H19V20H13V18ZM12 24H8V26H12V24ZM12 18V20H8V18H12Z" fill="white"/>
<path d="M7.5 13C7.22386 13 7 13.2239 7 13.5C7 13.7761 7.22386 14 7.5 14H24.5C24.7761 14 25 13.7761 25 13.5C25 13.2239 24.7761 13 24.5 13H7.5Z" fill="white"/>
<path fill-rule="evenodd" clip-rule="evenodd" d="M27 2C27.5523 2 28 2.44772 28 3V29C28 29.5523 27.5523 30 27 30H5C4.44772 30 4 29.5523 4 29V3C4 2.44772 4.44772 2 5 2H27ZM27 3H5V29H27V3Z" fill="white"/>
</svg>
