<svg id="icons" xmlns="http://www.w3.org/2000/svg" viewBox="0 0 32 32"><title>arcgis-hub-glyph-32</title><path d="M3.062 7.5A2.438 2.438 0 1 1 5.5 9.938 2.438 2.438 0 0 1 3.062 7.5zM24.54 23.68a.77.77 0 0 1 .963-.13l2.348 1.44a.1.1 0 0 1 .027.145A14.989 14.989 0 0 1 1.724 11.404a5.42 5.42 0 0 0 2.933 1.461 11.566 11.566 0 0 0 .643 7.557l4.891-2.943a5.973 5.973 0 0 1 4.009-7.203V4.269a.099.099 0 0 0-.115-.098 11.65 11.65 0 0 0-3.574 1.218 5.471 5.471 0 0 0-1.967-2.392 14.947 14.947 0 0 1 19.252 3.762.1.1 0 0 1-.027.146l-2.52 1.516a.099.099 0 0 1-.128-.023 11.696 11.696 0 0 0-7.206-4.227.1.1 0 0 0-.115.098v6.007a6.001 6.001 0 0 1 .096 11.417.14.14 0 0 0-.096.134v5.42a11.684 11.684 0 0 0 6.739-3.567zM12.8 16a3.2 3.2 0 1 0 3.2-3.2 3.2 3.2 0 0 0-3.2 3.2zm1.4 11.247v-5.45a.1.1 0 0 0-.068-.094 5.988 5.988 0 0 1-1.99-1.111L7.3 23.504a11.66 11.66 0 0 0 6.899 3.743zm15.59-17.14a.1.1 0 0 0-.142-.046l-2.599 1.563a.099.099 0 0 0-.042.119 11.67 11.67 0 0 1-.048 8.052l2.848 1.746a.099.099 0 0 0 .144-.048 14.934 14.934 0 0 0-.16-11.386z" fill="#8129FF"/></svg>