<svg id="icons" xmlns="http://www.w3.org/2000/svg" viewBox="0 0 32 32"><title>arcgis-experience-builder-glyph-32</title><path d="M30.85 12.82l-2.85 5v7.44A1.78 1.78 0 0 1 26.22 27H25V7.75a.76.76 0 0 0-.75-.75H12V1.31a.28.28 0 0 1 .42-.25L17.51 4h8.71A1.78 1.78 0 0 1 28 5.78v4.42l2.54 1.47a.83.83 0 0 1 .31 1.15zM12 18h8v-6h-8zm7.62 5H7.75a.76.76 0 0 1-.75-.75V4H5.78A1.78 1.78 0 0 0 4 5.78V13l-2.89 5a.85.85 0 0 0 .31 1.15L4 20.59v4.61A1.78 1.78 0 0 0 5.78 27h8.62l5.18 3a.28.28 0 0 0 .42-.24v-6.39a.38.38 0 0 0-.38-.37z" fill="#5CBFBC"/></svg>