<svg id="icons" xmlns="http://www.w3.org/2000/svg" viewBox="0 0 32 32"><title>arcgis-community-analyst-glyph-32</title><path d="M18.65 21.9c0 .979-1.186 1.772-2.65 1.772-1.463 0-2.65-.793-2.65-1.773s1.187-1.771 2.65-1.771c1.464 0 2.65.792 2.65 1.771zm5.15-6.098a.215.215 0 0 0-.254.046l-1.277 1.369c2.264 1.092 3.818 2.77 3.818 4.656 0 3.295-4.627 6.065-10.087 6.065s-10.087-2.77-10.087-6.065c0-1.886 1.456-3.565 3.723-4.658l-1.178-1.361a.215.215 0 0 0-.26-.051C5.106 17.36 3.1 19.766 3.1 22.496c0 4.72 5.776 8.445 12.9 8.445s12.9-3.725 12.9-8.445c0-2.732-2.006-5.135-5.1-6.694zM16 1.2c-1.867 0-5 .493-5 3.793v8.145a.974.974 0 0 0 .286.69l4.448 4.439a.377.377 0 0 0 .533 0l4.447-4.44a.974.974 0 0 0 .286-.69V4.994c0-3.3-3.133-3.793-5-3.793zm0 8.15a2.35 2.35 0 1 1 2.35-2.349A2.357 2.357 0 0 1 16 9.35z" fill="#84A338"/></svg>