<svg id="uuid-f322e0d4-a11a-43bd-bf73-c7c8b40f4c8d" xmlns="http://www.w3.org/2000/svg" viewBox="0 0 32 32"><path d="M31.266 16.13L27.3 19.947c-.116.118-.298.021-.298-.16V18h-4v-4h4v-1.79c0-.18.182-.277.298-.158l3.966 3.76a.235.235 0 0 1 0 .317zM7.992 14H1.165a.163.163 0 0 0-.163.163v3.674c0 .09.073.163.163.163h6.827v-4zm12.575 1.573c-1.32.767-3.12 1.21-5.217 1.21s-3.898-.443-5.218-1.21v3.985h.001v.005c0 1.346 2.335 2.437 5.217 2.437s5.217-1.091 5.217-2.437l-.001-.005h.001v-3.985zm-5.217-1.117c2.881 0 5.217-.876 5.217-1.956s-2.336-1.957-5.217-1.957-5.218.876-5.218 1.957 2.336 1.956 5.218 1.956zM6.584 9.69C8.4 6.75 11.647 4.782 15.35 4.782c3.702 0 6.948 1.968 8.765 4.908.118.192.329.31.555.31h2.486C25.15 5.47 20.623 2.304 15.35 2.304S5.549 5.47 3.543 10H6.04a.64.64 0 0 0 .545-.31zm17.21 12.775c-1.9 2.846-5.024 4.536-8.444 4.536-3.403 0-6.509-1.674-8.51-4.546a.654.654 0 0 0-.535-.28H3.4l.023.052C5.515 26.95 10.196 30 15.35 30s9.835-3.05 11.926-7.773l.023-.052h-2.961a.653.653 0 0 0-.543.29z" fill="#394eee"/></svg>