<svg id="icons" xmlns="http://www.w3.org/2000/svg" viewBox="0 0 32 32"><title>arcgis-for-developers-glyph-32</title><path d="M1 9.64a.44.44 0 0 1 .44-.44h3.908c4.04 0 7.426 1.82 7.426 6.41 0 4.06-3.314 6.24-7.054 6.24H1zm2.765 9.657h1.636c2.57 0 4.502-.975 4.502-3.829 0-2.463-1.968-3.716-4.307-3.716H3.765zm17.842.863a4.68 4.68 0 0 1-3.633 1.702 4.527 4.527 0 1 1 0-9.04c2.481 0 4.041 1.773 4.041 4.52v.833h-6.168a1.986 1.986 0 0 0 2.003 1.666 2.156 2.156 0 0 0 1.65-.744.438.438 0 0 1 .58-.057zm-2.25-3.793a1.593 1.593 0 0 0-1.631-1.63 1.774 1.774 0 0 0-1.88 1.63zm2.64-3.181h2.871l2.18 5.849h.036l2.02-5.85h2.677l-3.293 8.337a.44.44 0 0 1-.409.278h-2.52z" fill="#394EEE"/></svg>