<svg id="icons" xmlns="http://www.w3.org/2000/svg" viewBox="0 0 32 32"><title>arcgis-excalibur-glyph-32</title><path d="M13,13.09514l3.00007,3.56366V2.21626h3.27269A1.72724,1.72724,0,0,1,21,3.9435v9.54476a.62634.62634,0,0,1-.11358.35969L16,20.81344,10.3903,13.686V.826A.60971.60971,0,0,1,11,.21626h1.86093A.13908.13908,0,0,1,13,.35532Zm3,18.4886a.415.415,0,0,0,.26618-.09635l15.2236-12.686a.72094.72094,0,0,0,.00055-1.10723l-7.27366-6.08989a.0406.0406,0,0,0-.06667.03113v3.26071a.10966.10966,0,0,0,.039.08383l3.11063,2.62128a.3352.3352,0,0,1-.00193.51555l-11.033,9.10107a.41587.41587,0,0,1-.52928,0l-11.033-9.10107a.3352.3352,0,0,1-.00193-.51555l2.71673-2.28935A1.21731,1.21731,0,0,0,7.85,14.381v-2.7456a.0406.0406,0,0,0-.06667-.03113L.50967,17.69412a.72094.72094,0,0,0,.00055,1.10723l15.2236,12.686A.415.415,0,0,0,16,31.58374Z" fill="#DE4300"/></svg>