<svg xmlns="http://www.w3.org/2000/svg" viewBox="0 0 32 32"><path d="M17.802 21.398l6.2 2.557-5.14 2.133a.772.772 0 0 1-1.06-.717zM9.311 7.868a.604.604 0 0 1-.003-1.122L16 4.169l8.12 3.148-8.119 3.184zm-3.5 1.541l8.387 3.413v12.554a.772.772 0 0 1-1.06.717l-6.297-2.736a1.639 1.639 0 0 1-1.03-1.521zM3.844 6.03a1.316 1.316 0 0 0-.827 1.22v17.395a1.316 1.316 0 0 0 .827 1.221L16 30.888l12.983-5.317v-2.423l-7.156-3.023 7.156-2.963v-1.95l-5.101-2.2-3.867 1.516L24 16.123l-6.199 2.505v-5.711l.073-.122 11.108-4.487v-1.95l-12.47-5.047a1.384 1.384 0 0 0-1.027 0z" fill="#11ad1d" id="icons"/></svg>