<svg id="icons" xmlns="http://www.w3.org/2000/svg" viewBox="0 0 32 32"><title>arcgis-indoors-glyph-32</title><path d="M13.135 24.98l2.818 1.318a.418.418 0 0 0 .352 0l6.124-2.837c3.164-1.602 3.51-2.493 3.634-4.45v-6.09a.14.14 0 0 0-.083-.13l-1.806-.81a.14.14 0 0 1-.083-.128V8.145a.14.14 0 0 0-.075-.125L16.194 3.9a.14.14 0 0 0-.131 0l-7.01 3.716A3.504 3.504 0 0 0 7 10.8v8.263a4.119 4.119 0 0 0 2.248 3.454l.722.417-4.279 2.273a.14.14 0 0 1-.134-.001L.825 22.582a.14.14 0 0 1 .004-.249l2.1-1.07a.14.14 0 0 0 .077-.125v-3.741a.14.14 0 0 1 .068-.12l.971-.586a.14.14 0 0 0 .068-.12v-5.774A6.206 6.206 0 0 1 7.778 5.14L15.955.77a.14.14 0 0 1 .131 0l10.859 5.668v3.805a.188.188 0 0 0 .103.168l1.812.904a.14.14 0 0 1 .078.126v9.802l2.288 1.143a.14.14 0 0 1 .006.248L16.785 30.77a1.436 1.436 0 0 1-1.345.034l-6.485-3.23zM16 12a3 3 0 1 0 3 3 3 3 0 0 0-3-3z" fill="#007AC2"/></svg>