<svg id="icons" xmlns="http://www.w3.org/2000/svg" viewBox="0 0 32 32"><title>arcgis-insights-glyph-32</title><path d="M19 24.658a.167.167 0 0 1 .186-.085l2.125.505a.636.636 0 0 1 .489.619v3.537a.742.742 0 0 1-.713.766H2.71A.728.728 0 0 1 2 29.258V24.16a.45.45 0 0 1 .328-.431 19.346 19.346 0 0 1 2.426-.609.142.142 0 0 1 .114.031.14.14 0 0 1 .05.107v2.6a.281.281 0 0 0 .282.282H16a3.025 3.025 0 0 0 3-1.483zm4.129-5.2c-5.752-.047-8.296-3.111-14.39-2.717A13.535 13.535 0 0 0 5 17.76v-5.338A.422.422 0 0 1 5.422 12h13.156a.422.422 0 0 1 .422.422v3.444c3.664 1.343 11 1.93 11-3.856V1.582A.568.568 0 0 0 29.446 1H14.571a.569.569 0 0 0-.554.582v4.405a.796.796 0 0 0 .796.796h2.147v-2.52a.281.281 0 0 1 .282-.282h9.477a.281.281 0 0 1 .281.281v6.908a1.985 1.985 0 0 1-2.174 1.984h-3.007V9.742A.726.726 0 0 0 21.112 9H2.707A.726.726 0 0 0 2 9.742v9.79a15.93 15.93 0 0 0-1.955 2.187.16.16 0 0 0 .179.248c1.574-.532 6.546-2.157 8.628-2.157 6.114 0 9.15 2.969 14.403 3.013 5.674.047 7.555-3.878 7.982-5.02a.14.14 0 0 0-.188-.178 21.389 21.389 0 0 1-7.92 1.834z" fill="#DE4300"/></svg>