<svg id="icons" xmlns="http://www.w3.org/2000/svg" viewBox="0 0 32 32"><title>arcgis-maps-for-adobe-creative-cloud-glyph-32</title><path d="M20.87 30.15a15.247 15.247 0 0 1-7.904.44.13.13 0 0 1-.03-.244c1-.475 3.814-2.048 4.534-4.976.97-3.938 4.505-3.606 5.885-2.643 2.168 1.512 2.492 5.575-2.485 7.423zm10.04-11.452l-4.394 4.394a.13.13 0 0 1-.209-.036 5.572 5.572 0 0 0-1.83-2.173 5.163 5.163 0 0 0-1.038-.552.13.13 0 0 1-.043-.212l5.074-5.074a.098.098 0 0 1 .138 0l2.302 2.302a.955.955 0 0 1 0 1.35zm-16.95 7.565a7.91 7.91 0 0 0 1.11-1.585c.042-.163.087-.32.136-.473a.277.277 0 0 0-.02-.062.29.29 0 0 0-.244-.132H5.356A.356.356 0 0 1 5 23.655v-.639a.349.349 0 0 1 .127-.269c.285-.234.544-.444.673-.544a16.845 16.845 0 0 1 5.39-3.387 7.508 7.508 0 0 0 3.828 1.635 11.955 11.955 0 0 1 1.882.404 3.381 3.381 0 0 1 .368.17 5.916 5.916 0 0 1 1.549-.937 5.07 5.07 0 0 0-.58-.383 10.412 10.412 0 0 0-2.895-.813 8.306 8.306 0 0 1-2.326-.723c4.905-1.796 7.981-3.864 9.977-11.179q.136-.5.269-1H25.7a.356.356 0 0 1 .356.356v8.249l.012.017.02-.005 2.881-2.723a.098.098 0 0 0 .031-.07V4.205A1.206 1.206 0 0 0 27.794 3H5.584A3.583 3.583 0 0 0 2 6.583v18.393A2.024 2.024 0 0 0 4.024 27h8.162a2.502 2.502 0 0 0 1.773-.737zM16.626 5.99h4.995c-.093.333-.185.667-.28 1-1.903 6.648-4.65 8.215-9.696 9.978a5.958 5.958 0 0 1-.971-3.308 2.102 2.102 0 0 0 1.363-1.782A11.29 11.29 0 0 0 16.17 6.99c.082-.17.283-.616.456-1zm-1.713 0a65.1 65.1 0 0 1-.534 1 9.638 9.638 0 0 1-2.845 3.318 2.094 2.094 0 0 0-2.42-.567A13.607 13.607 0 0 0 7.277 6.99q-.312-.327-.633-.644l-.363-.356zM5 6.864c.494.519.987 1.04 1.448 1.594a14.68 14.68 0 0 1 1.526 2.477 2.084 2.084 0 0 0 1.05 2.644 9.941 9.941 0 0 0 1.067 3.943 20.905 20.905 0 0 0-5.022 3.244.042.042 0 0 1-.069-.03z" fill="#E1653C"/></svg>