<svg xmlns="http://www.w3.org/2000/svg" viewBox="0 0 32 32"><title>arcgis-marketplace-glyph-32</title><path d="M23.839 17.35a.9.9 0 0 1-.004-.516l2.09-7.146a.09.09 0 0 1 .173 0l4.887 16.118a.15.15 0 0 1-.143.194H26.71a.3.3 0 0 1-.287-.212zM16.194 26a3.001 3.001 0 0 0 2.895-2.21l4.808-17.6a.15.15 0 0 0-.145-.19h-3.527a.3.3 0 0 0-.288.213L15.807 19.9l-2.58-9.49a.09.09 0 0 0-.174-.003l-1.99 6.784a.9.9 0 0 0-.005.486l2.165 8.1a.3.3 0 0 0 .29.223zm-10.6 0a.3.3 0 0 0 .29-.22l5.358-19.59a.15.15 0 0 0-.144-.19H7.357a.3.3 0 0 0-.288.214L1.215 25.807a.15.15 0 0 0 .143.193z" fill="#DE4300" id="icons"/></svg>