<svg id="icons" xmlns="http://www.w3.org/2000/svg" viewBox="0 0 32 32"><title>arcgis-dashboards-glyph-32</title><path d="M26.8 30h-2.6a.2.2 0 0 1-.2-.2V13.418a.2.2 0 0 1 .2-.201h2.6a.2.2 0 0 1 .2.2V29.8a.2.2 0 0 1-.2.201zm-5 0a.2.2 0 0 0 .2-.2V18.341a.2.2 0 0 0-.2-.201h-2.6a.2.2 0 0 0-.2.2V29.8a.2.2 0 0 0 .2.201zm10.2-.201V20.2a.201.201 0 0 0-.201-.201H29.2a.201.201 0 0 0-.201.201V29.8a.201.201 0 0 0 .201.201H31.8a.201.201 0 0 0 .201-.201zM6.292 9A.292.292 0 0 0 6 9.292v11.46c.773.036 3.87-1.88 4.675-5.142.743-3.01 3.813-3.133 4.861-3.217 1.933-.153 3.926-.664 4.995-3.06A.236.236 0 0 0 20.316 9zm20.673-1.4A4.92 4.92 0 0 0 22 3H.748A.748.748 0 0 0 0 3.748v20.663a3.544 3.544 0 0 0 3.51 3.576h12.222A.268.268 0 0 0 16 27.72v-3.451a.268.268 0 0 0-.268-.268H4.512A1.516 1.516 0 0 1 3 22.489V6.38A.381.381 0 0 1 3.381 6h19.181A1.465 1.465 0 0 1 24 7.491v2.241a.268.268 0 0 0 .268.268h2.65a.05.05 0 0 0 .05-.05z" fill="#F89927"/></svg>