<svg id="icons" xmlns="http://www.w3.org/2000/svg" viewBox="0 0 32 32"><title>arcgis-quickcapture-glyph-32</title><path d="M23 3.2c-2.587 0-6.928.688-6.928 5.297v12.385a1.366 1.366 0 0 0 .396.963l6.163 6.201a.52.52 0 0 0 .738 0l6.163-6.201a1.366 1.366 0 0 0 .396-.963V8.497c0-4.609-4.34-5.297-6.928-5.297zm0 11.383a3.282 3.282 0 1 1 3.256-3.28A3.28 3.28 0 0 1 23 14.582zM13.378 24H5.812a1.967 1.967 0 0 1-1.915-1.368L3.18 21H13v.816A4.888 4.888 0 0 0 13.378 24zm-9.054-7a2.004 2.004 0 0 1-1.816-1.493L2.088 14H13v3zM13 10H2.524A1.691 1.691 0 0 1 .891 8.921L.104 7H13z" fill="#E1653C"/></svg>