<svg id="icons" xmlns="http://www.w3.org/2000/svg" viewBox="0 0 32 32"><title>arcgis-solutions-glyph-32</title><path d="M30.963 7.672a1.586 1.586 0 0 0-1.584-1.585h-6.274a.187.187 0 0 1-.188-.187V3.977A2 2 0 0 0 20.825 2h-8.672a2.095 2.095 0 0 0-2.093 2.093V5.9a.187.187 0 0 1-.187.187H3.598a1.586 1.586 0 0 0-1.584 1.585v4.016a.281.281 0 0 0 .281.28H4.9l.014-.013V9.153a.177.177 0 0 1 .177-.177h22.46a.456.456 0 0 1 .449.45v14.742A1.832 1.832 0 0 1 26.168 26h-8.896a.568.568 0 0 1-.53-.365A4.274 4.274 0 0 0 13 23a3.99 3.99 0 0 0-3.859 3H5.658a.757.757 0 0 1-.757-.757v-4.055A.188.188 0 0 0 4.714 21H2.028l-.014.014v5.58a2.35 2.35 0 0 0 2.347 2.346h5.161A3.983 3.983 0 0 0 13 31a4.272 4.272 0 0 0 3.324-1.81.569.569 0 0 1 .47-.25h12.068a2.102 2.102 0 0 0 2.101-2.101zM21 5.625a.375.375 0 0 1-.375.375h-8.25A.375.375 0 0 1 12 5.625V4.45a.456.456 0 0 1 .45-.45h8.1a.456.456 0 0 1 .45.45zM13 29a2 2 0 1 1 2-2 2 2 0 0 1-2 2zm1.273-11.006a.57.57 0 0 1 .479.262 3.893 3.893 0 0 0 6.65-.262h3.41a.188.188 0 0 0 .188-.188v-2.589a.187.187 0 0 0-.188-.188H21.8A3.8 3.8 0 0 0 18 12a4.19 4.19 0 0 0-3.69 2.65.568.568 0 0 1-.536.38H1.094a.094.094 0 0 0-.094.093V17.9a.094.094 0 0 0 .094.094zM18 13.9a2.1 2.1 0 1 1-2.1 2.1 2.1 2.1 0 0 1 2.1-2.1z" fill="#832FBC"/></svg>