<svg id="icons" xmlns="http://www.w3.org/2000/svg" viewBox="0 0 32 32"><title>arcgis-storymaps-glyph-32</title><path d="M18.371 8.917a.676.676 0 0 0 .402-.618V5.72a.1.1 0 0 0-.038-.078.117.117 0 0 0-.085-.019 15.867 15.867 0 0 0-3.091 1.322.105.105 0 0 1-.113-.01C12.136 4.71 7.618 5.45 4.148 5.963c-.366.055-2.32.341-2.827.415a.141.141 0 0 0-.121.14v21.968a.141.141 0 0 0 .161.14l1.261-.175c.7-.089 1.315-.246 2.007-.35 3.92-.588 7.68-1.316 9.88.841l.883.866a.159.159 0 0 0 .222 0l.883-.866c2.2-2.157 5.944-1.43 9.865-.842.692.105 1.408.262 2.107.35l1.068.151a.297.297 0 0 0 .339-.294v-8.316a.094.094 0 0 0-.177-.045l-.01.02a7.754 7.754 0 0 1-7.189 4.256 11.86 11.86 0 0 0-5.573.761V10.21a.858.858 0 0 1 .385-.716 7.58 7.58 0 0 1 1.06-.577zM14.07 24.983c-2.794-1.254-6.444-.791-9.602-.32l-.28.04a.222.222 0 0 1-.253-.218V9.198a.094.094 0 0 1 .08-.094l.777-.111c1.927-.284 6.452-1 8.87.492a.857.857 0 0 1 .408.73zM26 1.2c-1.867 0-5 .493-5 3.793v8.145a.974.974 0 0 0 .286.69l4.448 4.439a.377.377 0 0 0 .533 0l4.447-4.44a.974.974 0 0 0 .286-.69V4.994c0-3.3-3.133-3.793-5-3.793zm0 8.15a2.35 2.35 0 1 1 2.35-2.349A2.357 2.357 0 0 1 26 9.35z" fill="#00BAB5"/></svg>