<svg id="icons" xmlns="http://www.w3.org/2000/svg" viewBox="0 0 32 32"><title>arcgis-tracker-glyph-32</title><path d="M26.742 20.39a1.527 1.527 0 0 0-2.17-.04l-6.887 6.71-1.743 1.699a5.203 5.203 0 0 1-6.92.411 5.057 5.057 0 0 1-.325-7.47L22.09 8.493a1.745 1.745 0 0 0 .244-2.238 1.693 1.693 0 0 0-2.573-.223 4065.917 4065.917 0 0 1-9.653 9.485 5.371 5.371 0 0 1-7.14.494 5.217 5.217 0 0 1-.39-7.719l3.868-3.875-1.533-1.533a.242.242 0 0 1-.064-.252.247.247 0 0 1 .205-.165l5.952-.702a.247.247 0 0 1 .275.272l-.637 5.96a.247.247 0 0 1-.163.206.285.285 0 0 1-.281-.032l-1.58-1.58-3.88 3.878a2.235 2.235 0 0 0-.23 2.97 2.154 2.154 0 0 0 3.19.16l9.737-9.636a4.943 4.943 0 0 1 6.633-.424 4.827 4.827 0 0 1 .336 7.102L11.082 23.989a1.768 1.768 0 0 0-.246 2.249 1.703 1.703 0 0 0 2.592.22l8.624-8.605a5.223 5.223 0 0 1 7.316-.062 5.223 5.223 0 0 1 .07 7.45l-3.457 3.462-1.62-1.62a1.655 1.655 0 0 1 .036-2.375l2.287-2.153a1.527 1.527 0 0 0 .058-2.165z" fill="#00BAB5"/></svg>