<svg xmlns="http://www.w3.org/2000/svg" viewBox="0 0 16 16">
<style> #VectorTile { fill: #04980F}
    @media (prefers-color-scheme: dark) {#VectorTile { fill: #11AD1D}}
  </style>
  
<path id="VectorTile" d="m14.967 9.71-1.883 1.884a.065.065 0 0 1-.105-.018 2.783 2.783 0 0 0-.914-1.086c-.156-.108-.33-.2-.518-.275a.065.065 0 0 1-.021-.106l2.433-2.434c.02-.019.05-.019.07 0l.938.939a.775.775 0 0 1 0 1.096ZM6 11v1.38c0 .342-.274.62-.613.62H2.613A.617.617 0 0 1 2 12.38V9.62c0-.342.274-.62.613-.62H4V6H2.613A.617.617 0 0 1 2 5.38V2.62c0-.342.274-.62.613-.62h2.774c.339 0 .613.278.613.62V4h3V2.62c0-.342.274-.62.613-.62h2.774c.339 0 .613.278.613.62v2.76c0 .342-.274.62-.613.62H11v2.44a.2.2 0 0 1-.05.131l-.897 1.021a.03.03 0 0 1-.053-.02V6h-.387A.617.617 0 0 1 9 5.38V5H6v.38c0 .342-.274.62-.613.62H5v3h.387c.339 0 .613.278.613.62V10h2.912a.03.03 0 0 1 .016.056 2.948 2.948 0 0 0-.896.857.196.196 0 0 1-.16.087H6Zm4-7v1h2V3h-2v1ZM3 5h2V3H3v2Zm2 5H3v2h2v-2Zm6.451 1.366c-.585-.408-2.085-.549-2.496 1.121-.306 1.242-1.5 1.91-1.924 2.111a.055.055 0 0 0 .013.104c.483.1 1.96.331 3.353-.187 2.111-.784 1.974-2.507 1.054-3.149Z"/></svg>