<svg id="icons" xmlns="http://www.w3.org/2000/svg" viewBox="0 0 32 32">
  <title>arcgis-analytics-for-iot-glyph-32</title>
  <path
    d="M30.18282,19.14266a3.339,3.339,0,0,0-2.849-2.97277,3.3051,3.3051,0,0,0-1.83932.26963l-.00041-.00041-4.80269-3.8289a3.32641,3.32641,0,1,0-6.45727-1.12359,3.278,3.278,0,0,0,.07574.70412l-9.05814,6.3348a3.30174,3.30174,0,0,0-1.773-.50636,3.3265,3.3265,0,0,0,.01037,6.653,3.29232,3.29232,0,0,0,1.91781-.61171L15.714,28.76777a3.32554,3.32554,0,1,0,4.3492-3.25814L19.1746,15.1668a.18475.18475,0,0,1,.30916-.15182l4.257,3.32579.00352.00325a3.27676,3.27676,0,0,0-.13357,1.76314,3.32516,3.32516,0,0,0,6.57216-.9645Zm-13.25,6.72237-10.115-4.612a.36968.36968,0,0,1-.04718-.633l9.16788-6.41327a.36952.36952,0,0,1,.58061.2708l.9472,11.02525A.36955.36955,0,0,1,16.93283,25.865ZM26.0122,11.27172a.18462.18462,0,0,1-.109-.1638,8.3816,8.3816,0,0,0-16.657-1.05028.184.184,0,0,1-.07563.12217L6.39044,12.13392a.13067.13067,0,0,1-.20563-.09766c-.0139-.22146-.02239-.44436-.02239-.66934a11.364,11.364,0,1,1,22.728,0c0,.32885-.01508.65408-.043.97564a.13149.13149,0,0,1-.18441.10756Z"
    fill="#00BAB5"/>
</svg>
