<svg xmlns="http://www.w3.org/2000/svg" viewBox="0 0 32 32"><path d="M27.333 25.27c.111-1.998-1.336-3.726-3.454-3.79a.09.09 0 0 1-.066-.033c-2.181-2.607-6.128-1.508-6.868 1.827a.09.09 0 0 1-.058.066c-3.876 1.365-4.069 6.696.765 6.66l7.877-.003c4.587-.033 4-3.851 1.83-4.686a.04.04 0 0 1-.026-.04zM12.19 23c.098 0 .15.107.093.186-.79 1.09-1.254 2.367-1.282 3.7a.115.115 0 0 1-.116.114H5.092C4.49 27 4 26.51 4 25.908V9.363l3 3V22.88c0 .001.018.041.046.075.024.03.06.046.099.046h5.046zM28 4.11v14.598a.2.2 0 0 1-.243.196 6.74 6.74 0 0 1-1.547-.537A2.138 2.138 0 0 1 25 16.45V6.127A.127.127 0 0 0 24.873 6h-11.51l-3-3H26.89C27.503 3 28 3.497 28 4.11zM16.996 15.865a.107.107 0 0 1-.132.132l-2.694-.79a.492.492 0 0 1-.21-.124L5.94 7.06l2.12-2.122 8.022 8.022c.058.058.1.13.124.21l.79 2.693zM6.788 3.661a.11.11 0 0 1 .005.155L4.836 5.792a.11.11 0 0 1-.155-.004l-1.318-1.31c-.236-.234-.248-.606-.027-.829L4.64 2.33c.222-.223.592-.214.828.02l1.319 1.31z" fill="#5cbfbc"/></svg>