<svg id="icons" xmlns="http://www.w3.org/2000/svg" viewBox="0 0 32 32"><title>arcgis-workforce-glyph-32</title><path d="M28.53 23.07a.135.135 0 0 1 .251.068v2.487a4.33 4.33 0 0 1-4.258 4.333H12.01A1.009 1.009 0 0 1 11 28.95V18.513a3.318 3.318 0 0 1 3.318-3.317h11.799v-2.35a.198.198 0 0 1 .322-.153l5.13 4.18a.148.148 0 0 1 0 .23l-5.13 4.153a.198.198 0 0 1-.322-.154v-2.35H14.95l-.006 6.813a.435.435 0 0 0 .435.435h8.662c.204 0 3.311-.924 4.488-2.93zM7.9 24.828a.099.099 0 0 0 .099-.1v-4.447a.099.099 0 0 0-.099-.099H5.346a.395.395 0 0 1-.395-.395V5.997a.228.228 0 0 1 .227-.227h5.106l2.584 2.67a1.284 1.284 0 0 0 .923.39h12.13a.228.228 0 0 1 .132.043l2.706 1.933V8.493a3.318 3.318 0 0 0-3.318-3.318H14.827l-2.102-2.354a1.829 1.829 0 0 0-1.364-.611H4.36A3.36 3.36 0 0 0 1 5.568V21.47a3.459 3.459 0 0 0 3.16 3.358z" fill="#D83020"/></svg>