<svg id="icons" xmlns="http://www.w3.org/2000/svg" viewBox="0 0 32 32"><title>arcgis-workflow-manager-glyph-32</title><path d="M20.882 25.68a.453.453 0 0 1 0 .64l-4.062 4.062a.453.453 0 0 1-.64 0L13.798 28H6.68A1.68 1.68 0 0 1 5 26.32V20H2.52a.52.52 0 0 1-.52-.52v-4.96a.52.52 0 0 1 .52-.52H5V9.478a3.35 3.35 0 1 1 3-.007V14h2.48a.52.52 0 0 1 .52.52v4.96a.52.52 0 0 1-.52.52H8v3.775a.225.225 0 0 0 .225.225h5.573l2.382-2.382a.453.453 0 0 1 .64 0zM27.347 5H19V3.204a.204.204 0 0 0-.328-.162l-4.885 3.73a.309.309 0 0 0 .001.49l4.885 3.696a.204.204 0 0 0 .327-.162V9h7v14.125a3.164 3.164 0 0 1-.911 2.625L22.563 28h4.214A3.223 3.223 0 0 0 30 24.777V7.653A2.653 2.653 0 0 0 27.347 5z" fill="#394EEE"/></svg>