<svg id="Layer_1" data-name="Layer 1" xmlns="http://www.w3.org/2000/svg" width="16" height="48" viewBox="0 0 16 48">
  <rect x="1" y="24" width="14" height="1" style="fill: #ccc"/>
  <g>
    <circle cx="8" cy="8" r="7.5" style="fill: #583880"/>
    <path d="M8,1A7,7,0,1,1,1,8,7,7,0,0,1,8,1M8,0a8,8,0,1,0,8,8A8,8,0,0,0,8,0Z" style="fill: #fff"/>
  </g>
  <g>
    <circle cx="8" cy="14.4" r="5.5" style="fill: #8b74a6"/>
    <path d="M8,9.4a5,5,0,1,1-5,5,5,5,0,0,1,5-5m0-1a6,6,0,1,0,6,6,6,6,0,0,0-6-6Z" style="fill: #fff"/>
  </g>
  <g>
    <circle cx="8" cy="20.8" r="3.5" style="fill: #cec4db"/>
    <path d="M8,17.8a3,3,0,1,1-3,3,3,3,0,0,1,3-3m0-1a4,4,0,1,0,4,4,4,4,0,0,0-4-4Z" style="fill: #fff"/>
  </g>
  <path d="M8,23.7a3.5,3.5,0,1,1-3.5,3.5A3.5,3.5,0,0,1,8,23.7m0-1a4.5,4.5,0,1,0,4.5,4.5A4.51,4.51,0,0,0,8,22.7Z" style="fill: #fff"/>
  <g>
    <circle cx="8" cy="40" r="6.75" style="fill: #fff"/>
    <path d="M8,34a6,6,0,1,1-6,6,6,6,0,0,1,6-6m0-1.5A7.5,7.5,0,1,0,15.5,40,7.5,7.5,0,0,0,8,32.5Z" style="fill: #98321a"/>
  </g>
  <g>
    <circle cx="8" cy="33.6" r="4.75" style="fill: #fff"/>
    <path d="M8,29.6a4,4,0,1,1-4,4,4,4,0,0,1,4-4m0-1.5a5.5,5.5,0,1,0,5.5,5.5A5.5,5.5,0,0,0,8,28.1Z" style="fill: #c27462"/>
  </g>
  <g>
    <circle cx="8" cy="27.2" r="2.75" style="fill: #fff"/>
    <path d="M8,25.2a2,2,0,1,1-2,2,2,2,0,0,1,2-2m0-1.5a3.5,3.5,0,1,0,3.5,3.5A3.5,3.5,0,0,0,8,23.7Z" style="fill: #dcb0a5"/>
  </g>
</svg>
