<svg id="Layer_1" data-name="Layer 1" xmlns="http://www.w3.org/2000/svg" width="16" height="48" viewBox="0 0 16 48">
  <rect x="1" y="24" width="14" height="1" style="fill: #ccc"/>
  <g>
    <circle cx="8" cy="40" r="7.5" style="fill: #323232"/>
    <path d="M8,33a7,7,0,1,1-7,7,7,7,0,0,1,7-7m0-1a8,8,0,1,0,8,8,8,8,0,0,0-8-8Z" style="fill: #fff"/>
  </g>
  <g>
    <circle cx="8" cy="33.6" r="5.5" style="fill: #323232"/>
    <path d="M8,28.6a5,5,0,1,1-5,5,5,5,0,0,1,5-5m0-1a6,6,0,1,0,6,6,6,6,0,0,0-6-6Z" style="fill: #fff"/>
  </g>
  <g>
    <circle cx="8" cy="27.2" r="3.5" style="fill: #323232"/>
    <path d="M8,24.2a3,3,0,1,1-3,3,3,3,0,0,1,3-3m0-1a4,4,0,1,0,4,4,4,4,0,0,0-4-4Z" style="fill: #fff"/>
  </g>
  <g>
    <circle cx="8" cy="19.8" r="1.5" style="fill: #323232"/>
    <path d="M8,18.8a1,1,0,1,1-1,1,1,1,0,0,1,1-1m0-1a2,2,0,1,0,2,2,2,2,0,0,0-2-2Z" style="fill: #fff"/>
  </g>
  <g>
    <circle cx="8" cy="13.4" r="1.5" style="fill: #323232"/>
    <path d="M8,12.4a1,1,0,1,1-1,1,1,1,0,0,1,1-1m0-1a2,2,0,1,0,2,2,2,2,0,0,0-2-2Z" style="fill: #fff"/>
  </g>
  <g>
    <circle cx="8" cy="6" r="1.5" style="fill: #323232"/>
    <path d="M8,5A1,1,0,1,1,7,6,1,1,0,0,1,8,5M8,4a2,2,0,1,0,2,2A2,2,0,0,0,8,4Z" style="fill: #fff"/>
  </g>
</svg>
