<svg id="Layer_1" data-name="Layer 1" xmlns="http://www.w3.org/2000/svg" width="16" height="48" viewBox="0 0 16 48">
  <rect x="1" y="24" width="14" height="1" style="fill: #ccc"/>
  <g>
    <circle cx="8" cy="42" r="1.5" style="fill: #323232"/>
    <path d="M8,41a1,1,0,1,1-1,1,1,1,0,0,1,1-1m0-1a2,2,0,1,0,2,2,2,2,0,0,0-2-2Z" style="fill: #fff"/>
  </g>
  <g>
    <circle cx="8" cy="35.6" r="1.5" style="fill: #323232"/>
    <path d="M8,34.6a1,1,0,1,1-1,1,1,1,0,0,1,1-1m0-1a2,2,0,1,0,2,2,2,2,0,0,0-2-2Z" style="fill: #fff"/>
  </g>
  <g>
    <circle cx="8" cy="29.2" r="1.5" style="fill: #323232"/>
    <path d="M8,28.2a1,1,0,1,1-1,1,1,1,0,0,1,1-1m0-1a2,2,0,1,0,2,2,2,2,0,0,0-2-2Z" style="fill: #fff"/>
  </g>
  <g>
    <circle cx="8" cy="8" r="7.5" style="fill: #323232"/>
    <path d="M8,1A7,7,0,1,1,1,8,7,7,0,0,1,8,1M8,0a8,8,0,1,0,8,8A8,8,0,0,0,8,0Z" style="fill: #fff"/>
  </g>
  <g>
    <circle cx="8" cy="14.9" r="5.5" style="fill: #323232"/>
    <path d="M8,9.9a5,5,0,1,1-5,5,5,5,0,0,1,5-5m0-1a6,6,0,1,0,6,6,6,6,0,0,0-6-6Z" style="fill: #fff"/>
  </g>
  <g>
    <circle cx="8" cy="21.8" r="3.5" style="fill: #323232"/>
    <path d="M8,18.8a3,3,0,1,1-3,3,3,3,0,0,1,3-3m0-1a4,4,0,1,0,4,4,4,4,0,0,0-4-4Z" style="fill: #fff"/>
  </g>
</svg>
