<?xml version="1.0" encoding="UTF-8"?>
<svg id="Layer_2" data-name="Layer 2" xmlns="http://www.w3.org/2000/svg" viewBox="0 0 16.5 48.25">
  <defs>
    <style>
      .cls-1, .cls-2 {
        fill: #000;
        stroke-width: 0px;
      }

      .cls-2 {
        fill-rule: evenodd;
      }
    </style>
  </defs>
  <g id="Layer_1-2" data-name="Layer 1">
    <g>
      <path id="circle-1" class="cls-2" d="M8.25,32.25c4.42,0,8,3.58,8,8s-3.58,8-8,8S.25,44.67.25,40.25s3.58-8,8-8ZM8.25,32.77c4.13,0,7.48,3.35,7.48,7.48s-3.35,7.48-7.48,7.48-7.48-3.35-7.48-7.48,3.35-7.48,7.48-7.48Z"/>
      <g>
        <path class="cls-1" d="M8.25.25c4.42,0,8,3.58,8,8s-3.58,8-8,8S.25,12.67.25,8.25,3.83.25,8.25.25ZM14.36,8.25c0-3.37-2.74-6.11-6.11-6.11s-6.11,2.74-6.11,6.11,2.74,6.11,6.11,6.11,6.11-2.74,6.11-6.11Z"/>
        <circle class="cls-1" cx="8.25" cy="8.25" r="6.11"/>
      </g>
      <path id="circle-1-2" data-name="circle-1" class="cls-2" d="M8.25,16.25c4.42,0,8,3.58,8,8s-3.58,8-8,8S.25,28.67.25,24.25s3.58-8,8-8ZM8.25,16.77c4.13,0,7.48,3.35,7.48,7.48s-3.35,7.48-7.48,7.48S.77,28.38.77,24.25s3.35-7.48,7.48-7.48Z"/>
      <g>
        <path class="cls-1" d="M8.25,20.25c2.21,0,4,1.79,4,4s-1.79,4-4,4-4-1.79-4-4,1.79-4,4-4ZM11.3,24.25c0-1.69-1.37-3.05-3.05-3.05s-3.05,1.37-3.05,3.05,1.37,3.05,3.05,3.05,3.05-1.37,3.05-3.05Z"/>
        <circle class="cls-1" cx="8.25" cy="24.25" r="3.05"/>
      </g>
      <g>
        <path class="cls-1" d="M8.25,38.25c1.1,0,2,.9,2,2s-.9,2-2,2-2-.9-2-2,.9-2,2-2ZM9.78,40.25c0-.84-.68-1.53-1.53-1.53s-1.53.68-1.53,1.53.68,1.53,1.53,1.53,1.53-.68,1.53-1.53Z"/>
        <circle class="cls-1" cx="8.25" cy="40.25" r="1.53"/>
      </g>
    </g>
  </g>
</svg>