<svg id="Layer_1" data-name="Layer 1" xmlns="http://www.w3.org/2000/svg" width="16" height="48" viewBox="0 0 16 48">
  <g>
    <circle cx="8" cy="43.9" r="1.5" style="fill: #323232"/>
    <path d="M8,42.9a1,1,0,1,1-1,1,1,1,0,0,1,1-1m0-1a2,2,0,1,0,2,2,2,2,0,0,0-2-2Z" style="fill: #fff"/>
  </g>
  <g>
    <circle cx="8" cy="8" r="7.5" style="fill: #323232"/>
    <path d="M8,1A7,7,0,1,1,1,8,7,7,0,0,1,8,1M8,0a8,8,0,1,0,8,8A8,8,0,0,0,8,0Z" style="fill: #fff"/>
  </g>
  <g>
    <circle cx="8" cy="15.18" r="6" style="fill: #323232"/>
    <path d="M8,9.68a5.5,5.5,0,1,1-5.5,5.5A5.51,5.51,0,0,1,8,9.68m0-1a6.5,6.5,0,1,0,6.5,6.5A6.5,6.5,0,0,0,8,8.68Z" style="fill: #fff"/>
  </g>
  <g>
    <circle cx="8" cy="22.36" r="4" style="fill: #323232"/>
    <path d="M8,18.86a3.5,3.5,0,1,1-3.5,3.5A3.5,3.5,0,0,1,8,18.86m0-1a4.5,4.5,0,1,0,4.5,4.5A4.49,4.49,0,0,0,8,17.86Z" style="fill: #fff"/>
  </g>
  <g>
    <circle cx="8" cy="29.54" r="3" style="fill: #323232"/>
    <path d="M8,27a2.5,2.5,0,1,1-2.5,2.5A2.5,2.5,0,0,1,8,27m0-1a3.5,3.5,0,1,0,3.5,3.5A3.5,3.5,0,0,0,8,26Z" style="fill: #fff"/>
  </g>
  <g>
    <circle cx="8" cy="36.72" r="2" style="fill: #323232"/>
    <path d="M8,35.22a1.5,1.5,0,1,1-1.5,1.5A1.5,1.5,0,0,1,8,35.22m0-1a2.5,2.5,0,1,0,2.5,2.5A2.5,2.5,0,0,0,8,34.22Z" style="fill: #fff"/>
  </g>
</svg>
