<svg xmlns="http://www.w3.org/2000/svg" width="16" height="16" viewBox="0 0 16 16" fill="none">
<path d="M2.59961 1.5H11.4004C11.6567 1.50009 11.903 1.58882 12.0986 1.74805L12.1787 1.82031C12.3846 2.02474 12.5 2.30133 12.5 2.58887V6.55957C12.5 6.81106 12.4118 7.05429 12.252 7.24805L12.1787 7.32812C11.9728 7.53256 11.6931 7.64833 11.4004 7.64844H3.66602L3.51953 7.79395L1.5 9.79883V2.58887C1.5 2.33736 1.5882 2.09416 1.74805 1.90039L1.82129 1.82031C2.02721 1.61591 2.3069 1.5001 2.59961 1.5Z" stroke="white"/>
<path fill-rule="evenodd" clip-rule="evenodd" d="M5 9V11.004C5 11.3832 5.15452 11.7468 5.42958 12.0149C5.70463 12.283 6.07768 12.4337 6.46667 12.4337H13.3673L16 15V7.42971C16 7.05052 15.8455 6.68687 15.5704 6.41875C15.2954 6.15063 14.9223 6 14.5333 6H14V7H14.5333C14.6652 7 14.7867 7.05131 14.8724 7.13482C14.9572 7.21749 15 7.3241 15 7.42971V12.6287L13.7741 11.4337H6.46667C6.33478 11.4337 6.21328 11.3824 6.1276 11.2989C6.0428 11.2162 6 11.1096 6 11.004V9H5Z" fill="white"/>
</svg>