<svg width="26" height="26" viewBox="0 0 26 26" fill="none" xmlns="http://www.w3.org/2000/svg">
<g clip-path="url(#clip0_969_2693)">
<path d="M25.9087 10.6609L23.4188 14.9242V21.4154C23.4188 21.8192 23.2559 22.2065 22.9659 22.492C22.676 22.7776 22.2828 22.938 21.8727 22.938H20.8149V6.26936C20.8149 6.09933 20.7464 5.93626 20.6243 5.81603C20.5022 5.6958 20.3366 5.62826 20.164 5.62826H9.42322V1.054C9.42303 1.01155 9.43425 0.969807 9.45574 0.933012C9.47724 0.896217 9.50825 0.865684 9.54561 0.844517C9.58297 0.823351 9.62536 0.812305 9.66846 0.812503C9.71157 0.812701 9.75385 0.824135 9.79101 0.845644L13.6967 3.06385H21.8727C22.2828 3.06385 22.676 3.22427 22.9659 3.50982C23.2559 3.79536 23.4188 4.18265 23.4188 4.58647V8.41064L25.6385 9.69284C25.803 9.78745 25.9234 9.94172 25.9739 10.1226C26.0244 10.3036 26.001 10.4968 25.9087 10.6609ZM9.42322 15.5653H16.5837V9.79542H9.42322V15.5653ZM16.2583 19.7325H5.84297C5.67032 19.7325 5.50475 19.6649 5.38267 19.5447C5.26059 19.4245 5.19201 19.2614 5.19201 19.0914V3.06385H4.13421C3.72418 3.06385 3.33094 3.22427 3.04101 3.50982C2.75107 3.79536 2.58819 4.18265 2.58819 4.58647V11.0776L0.0982868 15.3409C0.050036 15.4229 0.018742 15.5135 0.00620984 15.6075C-0.00632232 15.7014 0.000155227 15.7969 0.0252684 15.8884C0.0503815 15.9799 0.0936335 16.0656 0.152531 16.1405C0.211429 16.2154 0.284806 16.2782 0.368433 16.325L2.58819 17.5912V21.4154C2.58819 21.8192 2.75107 22.2065 3.04101 22.492C3.33094 22.7776 3.72418 22.938 4.13421 22.938H12.3167L16.2224 25.1562C16.2595 25.1769 16.3015 25.1877 16.3441 25.1875C16.3867 25.1873 16.4285 25.1761 16.4654 25.155C16.5023 25.1339 16.5329 25.1037 16.5542 25.0674C16.5756 25.031 16.5868 24.9898 16.587 24.9478V20.053C16.587 20.0107 16.5785 19.9687 16.5619 19.9296C16.5453 19.8905 16.5211 19.855 16.4905 19.8252C16.4599 19.7954 16.4237 19.7719 16.3838 19.756C16.3439 19.74 16.3013 19.7321 16.2583 19.7325Z" fill="#09B8CA"/>
</g>
<defs>
<clipPath id="clip0_969_2693">
<rect width="26" height="26" fill="white"/>
</clipPath>
</defs>
</svg>
