<svg xmlns="http://www.w3.org/2000/svg" width="16" height="16" viewBox="0 0 16 16" fill="none">
<g clip-path="url(#clip0_385_116)">
<path d="M7.5 2C8.16304 2 8.79893 2.26339 9.26777 2.73223C9.73661 3.20107 10 3.83696 10 4.5C10 5.023 9.833 5.423 9.577 5.74C9.39631 5.95531 9.18625 6.14416 8.953 6.301L8.786 6.418C8.524 6.6 8.335 6.735 8.2 6.901C8.06175 7.06879 7.99051 7.28181 8 7.499V8.499C8 8.63161 7.94732 8.75879 7.85355 8.85255C7.75979 8.94632 7.63261 8.999 7.5 8.999C7.36739 8.999 7.24021 8.94632 7.14645 8.85255C7.05268 8.75879 7 8.63161 7 8.499V7.499C7 6.98 7.168 6.583 7.425 6.269C7.61 6.043 7.838 5.865 8.041 5.719L8.214 5.598C8.474 5.417 8.663 5.281 8.798 5.113C8.93881 4.94067 9.01077 4.72228 9 4.5C9 4.10218 8.84196 3.72064 8.56066 3.43934C8.27936 3.15804 7.89782 3 7.5 3C7.10218 3 6.72064 3.15804 6.43934 3.43934C6.15804 3.72064 6 4.10218 6 4.5C6 4.63261 5.94732 4.75979 5.85355 4.85355C5.75979 4.94732 5.63261 5 5.5 5C5.36739 5 5.24021 4.94732 5.14645 4.85355C5.05268 4.75979 5 4.63261 5 4.5C5 3.83696 5.26339 3.20107 5.73223 2.73223C6.20107 2.26339 6.83696 2 7.5 2ZM7.5 10.1C7.73206 10.1 7.95462 10.1922 8.11872 10.3563C8.28281 10.5204 8.375 10.7429 8.375 10.975C8.375 11.2071 8.28281 11.4296 8.11872 11.5937C7.95462 11.7578 7.73206 11.85 7.5 11.85C7.26794 11.85 7.04538 11.7578 6.88128 11.5937C6.71719 11.4296 6.625 11.2071 6.625 10.975C6.625 10.7429 6.71719 10.5204 6.88128 10.3563C7.04538 10.1922 7.26794 10.1 7.5 10.1Z" fill="white"/>
<path fill-rule="evenodd" clip-rule="evenodd" d="M7.49999 14C8.67999 14 9.68999 13.863 10.55 13.611C11.55 14.31 12.88 15.031 14.6 15.881C15.516 16.337 16.39 15.303 15.81 14.461C15.083 13.391 14.45 12.351 13.95 11.171C14.686 10.001 14.99 8.56098 14.99 7.00098C14.99 3.13098 13.11 0.000976562 7.48999 0.000976562C1.86999 0.000976562 -0.0100098 3.14098 -0.0100098 7.00098C-0.0100098 10.871 1.86999 14.001 7.48999 14.001L7.49999 14ZM13.11 10.64C13.0242 10.7759 12.9724 10.9304 12.959 11.0906C12.9456 11.2507 12.971 11.4117 13.033 11.56C13.549 12.79 14.203 13.87 14.923 14.93C13.273 14.107 12.043 13.43 11.123 12.79C11.0005 12.7045 10.8603 12.6475 10.7129 12.6233C10.5654 12.5991 10.4144 12.6082 10.271 12.65C9.51299 12.871 8.60099 12.999 7.50099 12.999C4.87099 12.999 3.30099 12.271 2.37099 11.269C1.42999 10.249 0.99999 8.78898 0.99999 6.99898C0.99999 5.20898 1.43399 3.73898 2.36999 2.72898C3.29699 1.72898 4.86999 0.998977 7.49999 0.998977C10.13 0.998977 11.7 1.72698 12.63 2.72898C13.57 3.74898 14 5.20898 14 6.99898C14 8.43898 13.716 9.67898 13.112 10.639L13.11 10.64Z" fill="white"/>
</g>
<defs>
<clipPath id="clip0_385_116">
<rect width="16" height="16" fill="white"/>
</clipPath>
</defs>
</svg>