<svg xmlns="http://www.w3.org/2000/svg" width="16" height="16" viewBox="0 0 16 16" fill="none">
<path d="M13.4999 6.3999C14.0045 6.69044 14.4136 7.12153 14.6774 7.64058C14.9411 8.15963 15.0482 8.74422 14.9854 9.32306C14.9226 9.90189 14.6928 10.45 14.3239 10.9004C13.955 11.3509 13.463 11.6843 12.9079 11.8599C12.7117 12.7502 12.2174 13.5468 11.5067 14.1179C10.796 14.6889 9.9116 15.0001 8.99992 14.9999H7.49992C7.36731 14.9999 7.24014 14.9472 7.14637 14.8535C7.0526 14.7597 6.99992 14.6325 6.99992 14.4999C6.99992 14.3673 7.0526 14.2401 7.14637 14.1463C7.24014 14.0526 7.36731 13.9999 7.49992 13.9999H8.99992C9.62054 14.0001 10.226 13.8079 10.7328 13.4497C11.2396 13.0915 11.6229 12.585 11.8299 11.9999H11.4999C11.3673 11.9999 11.2401 11.9472 11.1464 11.8535C11.0526 11.7597 10.9999 11.6325 10.9999 11.4999V6.4999C10.9999 6.36729 11.0526 6.24012 11.1464 6.14635C11.2401 6.05258 11.3673 5.9999 11.4999 5.9999H11.9999C12.1619 5.9999 12.3209 6.0129 12.4769 6.0379C12.3644 4.92879 11.8441 3.90095 11.017 3.15352C10.1898 2.4061 9.11473 1.99229 7.99992 1.99229C6.88512 1.99229 5.81 2.4061 4.98287 3.15352C4.15574 3.90095 3.63549 4.92879 3.52292 6.0379C3.68067 6.01262 3.84017 5.99991 3.99992 5.9999H4.49992C4.63253 5.9999 4.75971 6.05258 4.85348 6.14635C4.94724 6.24012 4.99992 6.36729 4.99992 6.4999V11.4999C4.99992 11.6325 4.94724 11.7597 4.85348 11.8535C4.75971 11.9472 4.63253 11.9999 4.49992 11.9999H3.99992C3.33891 12.0006 2.69615 11.783 2.17152 11.3809C1.64689 10.9788 1.26977 10.4146 1.09874 9.77611C0.92771 9.1376 0.972353 8.46048 1.22573 7.84995C1.47911 7.23943 1.92704 6.72968 2.49992 6.3999C2.49992 4.94121 3.07939 3.54226 4.11084 2.51082C5.14229 1.47936 6.54123 0.899902 7.99992 0.899902C9.45861 0.899902 10.8576 1.47936 11.889 2.51082C12.9205 3.54226 13.4999 4.94121 13.4999 6.3999ZM3.99992 6.9999C3.46949 6.9999 2.96078 7.21062 2.58571 7.58569C2.21064 7.96076 1.99992 8.46947 1.99992 8.9999C1.99992 9.53034 2.21064 10.039 2.58571 10.4141C2.96078 10.7892 3.46949 10.9999 3.99992 10.9999V6.9999ZM13.9999 8.9999C13.9999 8.46947 13.7892 7.96076 13.4141 7.58569C13.0391 7.21062 12.5304 6.9999 11.9999 6.9999V10.9999C12.5304 10.9999 13.0391 10.7892 13.4141 10.4141C13.7892 10.039 13.9999 9.53034 13.9999 8.9999Z" fill="white"/>
</svg>