<svg xmlns="http://www.w3.org/2000/svg" width="16" height="12" viewBox="0 0 16 12" fill="none">
<path d="M12.1572 6.74311C12.1295 6.65052 12.1289 6.55165 12.1556 6.45874L13.2786 2.52848C13.2848 2.50767 13.3035 2.49342 13.3248 2.49333C13.346 2.49324 13.3649 2.50732 13.3713 2.52807L15.9965 11.3933C16.0039 11.4183 15.9994 11.4455 15.9841 11.4665C15.9689 11.4875 15.9449 11.5 15.9193 11.5H13.7C13.6292 11.5 13.5668 11.4527 13.546 11.3835L12.1572 6.74311ZM8.05042 11.5C8.77717 11.4999 9.41402 11.002 9.60557 10.2843L12.1886 0.604297C12.1952 0.57951 12.1901 0.553015 12.1749 0.532589C12.1597 0.512163 12.1361 0.500122 12.111 0.5H10.2156C10.1445 0.5 10.0818 0.547631 10.0612 0.617334L7.8427 8.14541L6.45627 2.92489C6.45035 2.90371 6.43152 2.88905 6.41001 2.88886C6.38849 2.88867 6.36942 2.903 6.36315 2.92407L5.29428 6.65511C5.2693 6.74221 5.2682 6.83467 5.2911 6.92237L6.45468 11.3774C6.47342 11.4496 6.53726 11.5 6.61027 11.5H8.05042ZM2.35588 11.5C2.42855 11.5 2.49228 11.4503 2.51147 11.3786L5.39018 0.604297C5.39673 0.57951 5.39166 0.553015 5.37647 0.532589C5.36127 0.512163 5.33766 0.500122 5.31258 0.5H3.30298C3.2315 0.499879 3.16848 0.547978 3.14818 0.618149L0.00325075 11.3941C-0.00387593 11.419 0.000859744 11.4459 0.0160378 11.4668C0.0312158 11.4876 0.0550713 11.5 0.0804514 11.5H2.35588Z" fill="white"/>
</svg>