<svg xmlns="http://www.w3.org/2000/svg" width="16" height="16" viewBox="0 0 16 16" fill="none">
<path d="M8.00008 1.66675C5.46008 1.66675 3.66675 3.49541 3.66675 5.74608C3.66675 6.77008 4.08808 7.46075 4.61675 8.11941C4.73141 8.26275 4.84808 8.40075 4.96808 8.54275L5.03208 8.61741C5.17208 8.78408 5.31675 8.95608 5.45208 9.13341C5.72142 9.48741 5.97408 9.88541 6.11542 10.3561C6.15003 10.482 6.13404 10.6164 6.07088 10.7306C6.00771 10.8449 5.90236 10.9299 5.77735 10.9675C5.65234 11.0051 5.51759 10.9923 5.40187 10.9319C5.28615 10.8714 5.19866 10.7682 5.15808 10.6441C5.06608 10.3374 4.89341 10.0507 4.65608 9.73941C4.53083 9.57746 4.40145 9.41875 4.26808 9.26341L4.20675 9.19008C4.08675 9.04875 3.96008 8.89941 3.83675 8.74541C3.24675 8.01075 2.66675 7.10075 2.66675 5.74541C2.66675 2.90875 4.94341 0.666748 8.00008 0.666748C11.0567 0.666748 13.3334 2.90808 13.3334 5.74608C13.3334 7.10075 12.7534 8.01075 12.1634 8.74608C12.0401 8.89941 11.9134 9.04875 11.7934 9.19075L11.7321 9.26341C11.5921 9.42875 11.4621 9.58408 11.3441 9.73941C11.1067 10.0507 10.9341 10.3381 10.8421 10.6441C10.7995 10.7658 10.7117 10.8664 10.5968 10.925C10.4819 10.9835 10.3488 10.9955 10.2253 10.9583C10.1018 10.9212 9.99742 10.8379 9.93385 10.7257C9.87028 10.6135 9.85245 10.4811 9.88408 10.3561C10.0261 9.88541 10.2787 9.48741 10.5487 9.13341C10.6834 8.95608 10.8281 8.78408 10.9687 8.61741L11.0321 8.54275C11.1521 8.40075 11.2687 8.26275 11.3834 8.12008C11.9121 7.46008 12.3334 6.77008 12.3334 5.74608C12.3334 3.49541 10.5401 1.66675 8.00008 1.66675ZM5.83341 12.0001H10.1667C10.2994 12.0001 10.4265 12.0528 10.5203 12.1465C10.6141 12.2403 10.6667 12.3675 10.6667 12.5001C10.6667 12.6327 10.6141 12.7599 10.5203 12.8536C10.4265 12.9474 10.2994 13.0001 10.1667 13.0001H5.83341C5.70081 13.0001 5.57363 12.9474 5.47986 12.8536C5.38609 12.7599 5.33341 12.6327 5.33341 12.5001C5.33341 12.3675 5.38609 12.2403 5.47986 12.1465C5.57363 12.0528 5.70081 12.0001 5.83341 12.0001ZM6.33341 14.5001C6.33341 14.3675 6.38609 14.2403 6.47986 14.1465C6.57363 14.0528 6.70081 14.0001 6.83342 14.0001H9.16675C9.29936 14.0001 9.42653 14.0528 9.5203 14.1465C9.61407 14.2403 9.66675 14.3675 9.66675 14.5001C9.66675 14.6327 9.61407 14.7599 9.5203 14.8536C9.42653 14.9474 9.29936 15.0001 9.16675 15.0001H6.83342C6.70081 15.0001 6.57363 14.9474 6.47986 14.8536C6.38609 14.7599 6.33341 14.6327 6.33341 14.5001Z" fill="white"/>
</svg>