<svg width="68" height="48" viewBox="0 0 68 48" fill="none" xmlns="http://www.w3.org/2000/svg">
<rect width="68" height="48" fill="#181818"/>
<path d="M63 10C63.5523 10 64 10.5079 64 11.1338V42.8662C64 43.4921 63.5523 44 63 44H5C4.44772 44 4 43.4921 4 42.8662V11.1338C4 10.5079 4.44772 10 5 10H63ZM5 42.8662H63V11.1338H5V42.8662Z" fill="#363636"/>
<rect x="16" y="28" width="44" height="2" fill="#6A6A6A"/>
<rect x="4" y="4" width="28" height="3" fill="#6A6A6A"/>
<path d="M13.0546 27.1598L10.3931 29.7829L8.9454 28.3504C8.73001 28.1373 8.37692 28.1373 8.16154 28.3504C7.94615 28.5635 7.94615 28.9129 8.16154 29.126L9.89521 30.8415C10.0117 30.9568 10.2201 31.0092 10.3931 30.9987C10.5661 31.0057 10.7744 30.9533 10.8874 30.8415L13.8385 27.9355C14.0538 27.7223 14.0538 27.373 13.8385 27.1598C13.6231 26.9467 13.2735 26.9467 13.0546 27.1598Z" fill="#999999"/>
<rect x="16" y="36" width="44" height="2" fill="#363636"/>
<path d="M58.2041 14.0107C59.2128 14.113 60 14.9643 60 16V20L59.9893 20.2041C59.8938 21.1457 59.1457 21.8938 58.2041 21.9893L58 22H10C8.89543 22 8 21.1046 8 20V16C8 14.8954 8.89543 14 10 14H58L58.2041 14.0107ZM10 15C9.44772 15 9 15.4477 9 16V20C9 20.5523 9.44772 21 10 21H58C58.5523 21 59 20.5523 59 20V16C59 15.4477 58.5523 15 58 15H10ZM10.4141 16.4141C11.195 15.6331 12.4611 15.6333 13.2422 16.4141C13.9009 17.0728 14.0013 18.0749 13.5488 18.8418L14.6572 19.9502L13.9502 20.6572L12.8418 19.5488C12.0749 20.0013 11.0728 19.9009 10.4141 19.2422C9.63332 18.4611 9.63312 17.195 10.4141 16.4141ZM32 19H16V17H32V19ZM12.5352 17.1211C12.1446 16.7309 11.5115 16.7307 11.1211 17.1211C10.7307 17.5115 10.7309 18.1446 11.1211 18.5352C11.5116 18.9257 12.1446 18.9257 12.5352 18.5352C12.9257 18.1446 12.9257 17.5116 12.5352 17.1211Z" fill="#6A6A6A"/>
</svg>
