<svg width="68" height="48" viewBox="0 0 68 48" fill="none" xmlns="http://www.w3.org/2000/svg">
<rect width="68" height="48" fill="#181818"/>
<path d="M63 10C63.5523 10 64 10.5079 64 11.1338V42.8662C64 43.4921 63.5523 44 63 44H5C4.44772 44 4 43.4921 4 42.8662V11.1338C4 10.5079 4.44772 10 5 10H63ZM5 42.8662H63V11.1338H5V42.8662Z" fill="#363636"/>
<rect x="8" y="28" width="44" height="2" fill="#6A6A6A"/>
<rect x="8" y="36" width="44" height="2" fill="#363636"/>
<rect x="36" y="4" width="28" height="3" fill="#6A6A6A"/>
<path d="M59.0546 27.1598L56.3931 29.7829L54.9454 28.3504C54.73 28.1373 54.3769 28.1373 54.1615 28.3504C53.9462 28.5635 53.9462 28.9129 54.1615 29.126L55.8952 30.8415C56.0117 30.9568 56.2201 31.0092 56.3931 30.9987C56.5661 31.0057 56.7744 30.9533 56.8874 30.8415L59.8385 27.9355C60.0538 27.7223 60.0538 27.373 59.8385 27.1598C59.6231 26.9467 59.2735 26.9467 59.0546 27.1598Z" fill="#999999"/>
<path d="M58.2041 14.0107C59.2128 14.113 60 14.9643 60 16V20L59.9893 20.2041C59.8938 21.1457 59.1457 21.8938 58.2041 21.9893L58 22H10C8.89543 22 8 21.1046 8 20V16C8 14.8954 8.89543 14 10 14H58L58.2041 14.0107ZM10 15C9.44772 15 9 15.4477 9 16V20C9 20.5523 9.44772 21 10 21H58C58.5523 21 59 20.5523 59 20V16C59 15.4477 58.5523 15 58 15H10ZM53.5859 16.4141C54.3669 15.6332 55.6331 15.6332 56.4141 16.4141C57.0728 17.0728 57.173 18.075 56.7207 18.8418L57.8281 19.9502L57.1211 20.6572L56.0137 19.5488C55.2468 20.0013 54.2447 19.9009 53.5859 19.2422C52.805 18.4611 52.8049 17.1951 53.5859 16.4141ZM51 19H35V17H51V19ZM55.707 17.1211C55.3165 16.7308 54.6835 16.7308 54.293 17.1211C53.9025 17.5116 53.9026 18.1446 54.293 18.5352C54.6835 18.9257 55.3165 18.9257 55.707 18.5352C56.0974 18.1446 56.0975 17.5116 55.707 17.1211Z" fill="#6A6A6A"/>
</svg>
