<svg width="16" height="16" viewBox="0 0 16 16" fill="none" xmlns="http://www.w3.org/2000/svg">
<g clip-path="url(#clip0_2600_1148)">
<path d="M5.85355 9.06066L10.2071 4.70711L9.5 4L5.85355 7.64645L4.20711 6L3.5 6.70711L5.85355 9.06066Z" fill="black"/>
<path fill-rule="evenodd" clip-rule="evenodd" d="M2 0C0.895431 0 0 0.895431 0 2V11C0 12.1046 0.895431 13 2 13H11C12.1046 13 13 12.1046 13 11V2C13 0.895431 12.1046 0 11 0H2ZM11 1H2C1.44772 1 1 1.44772 1 2V11C1 11.5523 1.44772 12 2 12H11C11.5523 12 12 11.5523 12 11V2C12 1.44772 11.5523 1 11 1Z" fill="black"/>
<path d="M15 13.5V6.5L16 5.5V13.5C16 14.8807 14.8807 16 13.5 16H5.5L6.5 15H13.5C14.3284 15 15 14.3284 15 13.5Z" fill="black"/>
</g>
<defs>
<clipPath id="clip0_2600_1148">
<rect width="16" height="16" fill="white"/>
</clipPath>
</defs>
</svg>
